<?xml version="1.0" encoding="UTF-8" standalone="no"?>
<!DOCTYPE svg PUBLIC "-//W3C//DTD SVG 1.1//EN" "http://www.w3.org/Graphics/SVG/1.1/DTD/svg11.dtd">
<svg>
<metadata>
Created by FontForge 20090622 at Tue May 10 09:34:20 2016
 By deploy user
Copyright (c) 2012 by Doan BC doanbc1502@gmail.com. All rights reserved.
</metadata>
<defs>
<font id="SheliaVNF" horiz-adv-x="1769">
  <font-face font-family="Shelia VNF" font-weight="400" font-stretch="normal" units-per-em="2048" panose-1="2 11 5 0 4 0 0 2 0 4" ascent="1638" descent="-410" x-height="517" cap-height="1543" bbox="-1394.8 -1188.16 3546 2135.83" underline-thickness="50" underline-position="-50" unicode-range="U+0020-U+FB02"/>
<missing-glyph horiz-adv-x="606"/>
    <glyph glyph-name=".notdef" horiz-adv-x="606"/>
    <glyph glyph-name=".null" horiz-adv-x="0"/>
    <glyph glyph-name="nonmarkingreturn" horiz-adv-x="606"/>
    <glyph glyph-name="space" horiz-adv-x="606"/>
    <glyph glyph-name="A" unicode="A" d="M446 1049q13 15 25.5 23.5t27.5 12t32.5 2.5t41.5 -4q44 -5 101 -13t138.5 -30t193.5 -62.5t266 -111.5q169 130 317.5 228t262.5 164.5t186 103l90 45.5q1 9 3 20.5t8 24.5t18.5 25t33.5 22q22 10 47.5 19t49.5 15.5t43 10.5t28 4t18.5 -6.5t14.5 -16.5t3 -22.5 t-15 -23.5q-39 -35 -93.5 -94t-115.5 -133l-125.5 -158l-124 -167l-111.5 -160.5t-88 -139.5l87.5 -54.5t39.5 -27.5q6 -4 7.5 -14t-0.5 -18t-8 -10.5t-15 9.5q-8 11 -40.5 32.5l-86.5 55.5q-71 -120 -118.5 -226.5t-76.5 -188.5t-41.5 -135t-13.5 -66q-1 -8 -12.5 -6.5 t-25 11t-26 27.5t-14.5 43q-5 43 63 186t216 386q-30 20 -69 41.5l-83.5 44.5l-93 47.5l-96.5 50.5l-141 -115l-136 -116.5l-133.5 -115.5l-134.5 -112q-347 -276 -593 -421.5t-394 -167.5q-94 -14 -151.5 -15.5t-82.5 23.5q-42 45 -18 66t121 32q21 2 37 -3t29 -12.5 t23.5 -15t20.5 -8.5q58 -8 149 28t213 112t275 189.5l334 260.5l131.5 109.5l127.5 108l125 104l126 98.5q-101 45 -198 81t-177.5 59t-138 30t-78.5 -6q-17 -12 -29 -18t-25.5 -8t-32 -0.5t-48.5 5.5q-60 8 -73.5 25.5t3.5 36.5zM2062 1268q6 12 6 21q0 8 -6.5 11.5 t-23.5 -2.5t-71.5 -36t-142.5 -86t-207.5 -139t-266.5 -195l101.5 -54l84 -48l71 -43.5l62.5 -39.5q93 161 193 311z"/>
    <glyph glyph-name="B" unicode="B" horiz-adv-x="1966" d="M1765 498q41 -62 49.5 -141.5t-28.5 -184.5q-31 -85 -90 -161.5t-137 -142.5t-170 -120.5t-190.5 -95.5t-198 -68t-191.5 -37.5t-172.5 -4t-140.5 31.5q-91 38 -122 94t-16 121t69.5 135t134 137t176.5 127t198 105q189 83 361 137t325 80q-54 56 -132.5 96t-165 65.5 t-173 36t-156.5 7.5q-42 -2 -53.5 8t-6 24t21.5 28.5t28 23.5q12 8 34.5 12.5t53 8t68 7t80.5 9.5q76 11 159.5 33t165.5 54t158.5 73.5t137 90t100.5 103.5t51 115q5 29 -2 57.5t-31.5 54t-69 46.5t-114.5 35t-168 19t-230 -1q-128 -6 -251 -22.5t-235 -39t-208.5 -48.5 t-171.5 -51.5t-125 -47.5t-68 -37q-27 -23 -38 -39.5t-23 -31.5t-33.5 -29t-68.5 -31l-79 -28t-48.5 -9t-17 21t15.5 63q11 31 31 48t46 30q17 8 66 29t127.5 49t187 60t244 60t298 50t349.5 30q217 9 359 -5t224.5 -47.5t111.5 -85.5t20 -118q-11 -77 -72.5 -157 t-170 -150.5t-261.5 -125.5t-346 -83q-11 -2 -11 -6t11 -6q55 -6 124 -21.5t138.5 -43.5t133 -69.5t108.5 -97.5q25 5 51 8t50.5 4.5t45 1.5t35.5 -1q51 -3 80 -7t37 -18q8 -12 -7.5 -19.5t-47.5 -7.5q-11 0 -17 2.5t-11.5 6.5t-12.5 7t-19 5q-13 1 -32.5 1.5t-41.5 -1 t-45.5 -4t-44.5 -6.5zM948 266q-103 -48 -195 -107t-164 -121.5t-119.5 -126t-60.5 -121t13 -105.5t100 -80q56 -24 130 -26.5t158 12.5t174.5 46.5t179 75.5t171.5 98.5t152.5 117t121 130.5t77.5 138q32 88 17.5 158.5t-61.5 127.5q-157 -23 -335 -77.5t-359 -139.5z M1405 1450q15 -23 14 -51.5t-30 -71.5q-15 -22 -35 -42.5t-40.5 -36t-39.5 -25t-33 -9.5q-35 0 -83.5 -35t-107 -96.5t-125 -144.5l-137.5 -180q-68 -93 -128.5 -197.5t-112 -207t-92 -197.5t-68.5 -168q-8 -21 -24 -19t-31 18.5t-22.5 41.5t3.5 51q28 66 72 147.5 t99.5 171.5t121 186.5t137.5 192.5l158 200.5l158 184.5t147.5 156.5t126.5 116.5q9 7 18.5 13.5t19 10t18.5 2t16 -11.5z"/>
    <glyph glyph-name="C" unicode="C" horiz-adv-x="1231" d="M1384 1049q20 23 42 58t40 76t29 85.5t8 86t-22.5 76t-61.5 56.5q-40 20 -109 17.5t-157.5 -28.5t-191.5 -75.5t-211 -124t-215.5 -173t-204.5 -222.5q-110 -140 -164.5 -272.5t-65 -243t17 -192t81.5 -120.5q57 -41 142 -56t180 -10.5t190.5 26t173.5 53.5q41 17 89 39 l97.5 47l97.5 51.5t90 52t75 48t52 40.5q9 8 12.5 14.5t5.5 12.5t5.5 11.5t11.5 12.5q47 44 54 15q5 -22 -19 -46.5t-74 -62.5q-32 -24 -84.5 -59t-117.5 -73.5t-137 -75.5t-142 -66q-53 -22 -117.5 -41t-134 -31.5t-141.5 -17.5t-138.5 0t-125.5 22t-103 49 q-49 35 -82.5 91.5t-48 128t-9 157t34.5 179.5t83 194.5t137 202.5q102 126 215.5 223t228 167.5t225.5 115t208.5 65t176.5 18t130 -25.5q56 -26 80.5 -69t28 -93.5t-10 -104t-33 -100.5t-40 -83t-31.5 -52q-34 -48 -80.5 -92.5t-106.5 -73.5q-30 -15 -52 -19t-40 -1.5 t-34 10.5t-34 18q-13 7 -6 21t25.5 30t45.5 33t55 30.5t53 21t40 6.5q23 -3 38 3.5t26 15.5q11 11 20 24z"/>
    <glyph glyph-name="D" unicode="D" horiz-adv-x="2064" d="M1989 518q-63 -143 -147.5 -265t-183 -222.5t-206 -180t-216 -138t-214.5 -96t-200.5 -55t-174 -14t-135.5 26.5q-68 29 -99 72t-32 95t25.5 111t72.5 119.5t108 121t133.5 115t148.5 101t153 80.5q114 51 232.5 84t234 52.5t224.5 26t206 3.5q55 141 78.5 268.5t15 237 t-50 197t-118 147t-188.5 89t-261 22.5q-128 -6 -251 -22.5t-235 -39t-208.5 -48.5t-171.5 -51.5t-125 -47.5t-68 -37q-27 -23 -38.5 -39.5t-23.5 -31.5t-33.5 -29t-68.5 -31l-79 -28t-48.5 -9t-17 21t15.5 63q11 31 31.5 48t46.5 30q17 8 65.5 29t127.5 49t187 60t244 60 t298 50t350 30q244 11 406.5 -54.5t240 -195.5t69 -318.5t-105.5 -422.5q40 -5 81 -12t68 -15q50 -12 78 -23.5t33 -25.5t-11 -18t-48 4q-11 2 -16.5 6t-10 8.5t-10 9.5t-17.5 9q-13 4 -32 8.5t-40.5 7.5t-44.5 5t-44 3zM1030 358q-103 -48 -201 -114t-179 -139.5 t-138.5 -149.5t-79.5 -144t-2 -123t94 -87q52 -22 127 -23t164.5 19t189.5 59.5t203 98.5t204 137t192.5 174.5t169 210.5t133.5 245q-98 2 -207.5 -5t-223 -26t-227.5 -51.5t-219 -81.5zM1395 1450q15 -23 13.5 -51.5t-30.5 -71.5q-15 -22 -35 -42.5t-40 -36t-39 -25 t-33 -9.5q-35 0 -83.5 -35t-107 -96.5t-125 -144.5l-137.5 -180q-68 -93 -128.5 -197.5t-112 -207t-92 -197.5t-68.5 -168q-8 -21 -24.5 -19t-31 18.5t-22 41.5t3.5 51q28 66 72 147.5t99.5 171.5t121 186.5t137.5 192.5l158 200.5l158 184.5t147.5 156.5t126.5 116.5 q9 7 18.5 13.5t19 10t18.5 2t16 -11.5z"/>
    <glyph glyph-name="E" unicode="E" horiz-adv-x="1729" d="M166 -358q36 -36 113 -54t187 -6t249.5 59t300.5 140q95 54 172.5 110t137.5 108.5t103.5 99.5t71.5 85q6 9 7.5 22t3 29.5t6 35.5t16.5 38q29 47 57 55t43 -30q6 -16 -10 -46.5t-47 -70.5q-38 -51 -87.5 -109t-114 -119.5t-147.5 -124.5t-188 -122q-173 -98 -320.5 -149 t-265.5 -63.5t-204 11t-137 74.5q-34 35 -56 88t-26 118t12 139.5t57.5 152t110 155.5t170.5 150q109 78 221.5 135.5t211.5 98.5t177.5 67l120.5 41q8 2 11 5.5t1.5 6.5t-6.5 4.5t-12 -0.5q-39 -12 -93 -19.5t-112 -5t-113 15.5t-94 41.5t-56.5 74.5t-0.5 114 q20 80 78.5 148.5t143 125t190.5 101.5t220.5 77.5t232.5 52.5t227 28q27 1 53.5 1.5t54.5 -18.5q38 -26 49 -42t-1 -27t-45 -21l-81 -24t-73.5 -14.5t-44 5t-38 12t-53.5 7.5q-64 1 -148 -16.5t-173.5 -48.5t-178.5 -73.5t-162.5 -91t-125.5 -101t-68 -103.5 q-17 -54 -1 -90t52.5 -57.5t87 -31t102 -10t98.5 6.5t77 18q65 23 84.5 13.5t11.5 -52.5q-4 -21 -7 -35t-13.5 -25t-33 -22t-65.5 -26q-24 -9 -88 -29t-151 -56.5t-190.5 -91t-206.5 -131.5q-81 -60 -143.5 -127t-105 -135.5t-66 -135t-28 -126t10 -108.5t47.5 -82z"/>
    <glyph glyph-name="F" unicode="F" horiz-adv-x="852" d="M1137 1450q14 -22 14 -51l235 61.5t177 42.5t130 26t94 12t69 1t55 -6q40 -7 62 -26t30.5 -43.5t7 -52t-7.5 -51.5t-13.5 -41t-11.5 -22q-11 -14 -21 -10.5t-7 19.5q11 55 -15.5 88.5t-81.5 49t-134 14.5t-173.5 -14.5t-199.5 -38t-211 -56.5q-9 -20 -26.5 -44t-39.5 -45 t-47 -35t-49 -14q-32 0 -74 -28t-93 -78.5t-108.5 -119.5l-119.5 -150q59 4 117.5 17t109 28t90.5 28t61 15q54 5 80.5 -9t32.5 -59q2 -19 -3.5 -20t-18 6t-31.5 16t-43 10q-34 1 -79 -8.5t-100 -23.5l-119.5 -30t-137.5 -28q-74 -101 -138 -210t-117 -214t-94 -200 t-69 -168q-8 -21 -24.5 -19t-31 18.5t-22 41.5t3.5 51q28 65 71 145.5t97.5 169.5t119.5 184.5l136 190.5q-45 -5 -75.5 3t-49.5 21t-28.5 28t-12.5 24q-7 21 -5 28.5t13 5.5t30 -9.5t45.5 -16t59.5 -14.5t72 -4q97 125 196 240t189 206q-71 -19 -150.5 -36.5t-168.5 -30 t-187.5 -18.5t-208.5 -3q-29 0 -54 6t-48 29q-33 34 -41 51.5t6 26.5t48 12t85 8q33 3 54.5 2t36.5 -5t26 -9.5t22.5 -12t26 -13t37.5 -11.5q64 -14 134 -13.5t143.5 11t148.5 28.5t150 39q3 4 15.5 16.5l29 28t36 31.5t37.5 26.5t33 13t23 -8.5z"/>
    <glyph glyph-name="G" unicode="G" horiz-adv-x="1835" d="M1436 604q-31 18 -80.5 31.5t-111.5 21t-134.5 8.5t-148.5 -6q-20 -57 -28 -109.5t-3.5 -97.5t22 -81.5t49.5 -61.5q33 -25 80.5 -32.5t102.5 -0.5t115 26t118.5 47t112 63t96.5 73q40 35 61 61t32 44.5t15.5 31t11.5 22.5t20 19t42 19q17 6 36.5 12t38 10t34.5 4.5 t25 -3.5q12 -6 10 -13t-12 -15.5t-23.5 -19t-24.5 -24.5q-19 -24 -50.5 -71.5l-73.5 -110.5l-93.5 -138t-110.5 -152.5t-124.5 -154.5t-134.5 -145q-92 -90 -188.5 -151t-195.5 -98.5t-198 -53.5t-195 -17q-109 -1 -207 32.5t-170 98.5t-108.5 159.5t-22.5 215.5 q12 96 54 176.5t105.5 146.5t144.5 117.5t170 89t181.5 61.5t180.5 36q20 57 52 121t75 131t97 133t118 127q96 92 194.5 159.5t194 112t185.5 68.5t169.5 28.5t146 -8.5t114.5 -41q52 -31 74.5 -74.5t25.5 -92t-9.5 -98.5t-31 -93.5t-38 -77t-30.5 -49.5q-34 -48 -86 -91 t-114 -69q-36 -15 -58.5 -22t-37.5 -7t-25 6t-21 15t-6 25.5t20 36t37 39.5t45.5 36t45.5 25t37 8q22 -2 39 -1.5t31.5 5.5t26.5 14.5t25 24.5q12 14 30.5 43t36 66t29.5 79.5t11.5 83t-18 77t-58.5 61.5q-62 37 -162.5 37t-223.5 -40.5t-260 -125t-271 -216.5 q-48 -47 -93 -103t-83 -114.5t-68.5 -117t-50.5 -109.5q78 5 149 3t131 -9t106.5 -18.5t74.5 -24.5q56 -28 75.5 -54.5t16.5 -41.5q-2 -16 -16.5 -12t-37.5 24q-8 7 -11 14t-5 13.5t-5.5 12.5t-12.5 11zM913 264q-72 59 -88 158t21 223q-76 -9 -161 -32t-169.5 -59.5 t-163 -87t-141.5 -114.5t-104.5 -141t-51.5 -168q-12 -112 25.5 -197t106 -142t159 -86t184.5 -30q85 -1 175 18.5t181.5 61t182.5 105.5t178 153q88 89 161 179.5t127 164.5t86.5 123t39.5 56t7.5 11.5t-2.5 6.5t-7.5 1.5t-7.5 -3.5q-49 -41 -110 -81.5t-127.5 -75.5 t-136 -60t-135 -34t-124.5 2t-105 48z"/>
    <glyph glyph-name="H" unicode="H" horiz-adv-x="1999" d="M2535 1450q16 -23 14.5 -51.5t-30.5 -71.5q-15 -22 -35 -42.5t-40.5 -36t-39.5 -25t-32 -9.5q-26 0 -58 -18.5t-70 -51.5t-80.5 -79.5t-88.5 -103.5l-128.5 -168t-121.5 -177l46.5 -30l34.5 -22l29 -19q4 -15 4 -25q0 -8 -4.5 -12.5t-15.5 4.5l-37.5 27.5t-73.5 50.5 q-48 -81 -91.5 -163.5t-80.5 -161t-67 -149.5t-51 -128q-8 -21 -24.5 -19t-31 18.5t-22 41.5t3.5 51q22 52 54 114.5t72.5 132l88 144l100.5 150.5q-125 80 -258 143.5t-278 122.5l-72 -113l-75 -117.5l-82.5 -126.5l-94.5 -141q-125 -183 -239 -334t-209.5 -261 t-168.5 -174t-116 -73q-27 -6 -53 -6.5t-47 4t-34 13t-14 20.5q0 8 18 32.5t45.5 51t59 47.5t58.5 21q41 -1 107.5 52t151 146.5t183.5 221l205 276.5l160.5 233t160.5 250q-104 39 -191 68.5t-153 47.5t-109 22.5t-61 -7.5q-17 -11 -29 -17t-25.5 -8t-32 -0.5t-48.5 5.5 q-60 7 -73 25t4 36q25 31 52 37.5t74 -2.5q38 -8 88 -17t122 -28t169.5 -50.5t229.5 -82.5q37 63 62.5 112.5t41.5 88.5t24 69t11 54.5t2 45.5l-2 42q-1 12 7 31t22 39.5t32 41t37.5 37t38.5 25.5t35 8q25 -2 43.5 -4t29 -6.5t11.5 -14.5t-10 -28q-13 -21 -38.5 -67 l-65 -116.5l-95 -166l-129.5 -214.5q134 -57 264 -122.5t271 -147.5l123 168t139 174l117 138.5l113 124l104.5 105t91.5 81.5q8 7 17.5 13.5t19.5 10t18.5 2t15.5 -11.5z"/>
    <glyph glyph-name="I" unicode="I" horiz-adv-x="1532" d="M813 -12q-5 -12 -13.5 -16t-18 -1t-19.5 12t-17 21q-44 -6 -89 -16t-95.5 -26t-106.5 -39.5t-120 -55.5q-21 -10 -32.5 -20t-20 -20l-16.5 -19.5t-20 -19t-31.5 -18.5t-51.5 -18l-82 -22t-49.5 -5.5t-15.5 23t20 62.5q14 29 35 42.5t49 24.5q103 41 190.5 68t162.5 44 t139.5 26.5t123.5 15.5q-7 26 4 49q28 66 72 147.5t99.5 171.5t121 186.5t137.5 192.5l121 156l123.5 148.5l121 135l112.5 115.5l-162.5 -50t-184.5 -47t-208 -33t-234 -9q-29 0 -54 6t-48 29q-33 34 -41 51.5t6 26.5t48 12t85 8q33 3 54.5 2t36.5 -5t26 -9.5t22.5 -12 t26 -13t37.5 -11.5q85 -18 166 -11t161.5 28t163 50.5t170.5 55.5q24 20 42 33.5t32.5 19t25.5 1t21 -20.5l207 52.5t176 38t149 18.5t126 -7q40 -8 62.5 -27.5t32.5 -44.5t10.5 -52.5t-4.5 -51.5t-11.5 -41.5t-10.5 -22.5q-11 -14 -21 -10.5t-7 19.5q11 51 -16 84.5 t-83 52.5q-59 20 -125.5 23.5t-141.5 -5t-159.5 -27t-179.5 -42.5q-3 -23 -21.5 -53.5t-44.5 -58t-55.5 -46.5t-54.5 -19q-35 0 -83.5 -35t-107 -96.5t-125 -144.5l-137.5 -180q-62 -86 -118.5 -181t-105 -189.5t-89 -184t-70.5 -164.5q85 5 160.5 2t137.5 -9.5t109 -15 t75 -14.5q51 -12 85.5 -27t37.5 -30q5 -16 -10 -20t-44 7q-11 4 -17.5 10l-12 11.5t-11.5 10.5t-16 7q-32 9 -79.5 19t-111 16.5t-142 9t-171.5 -3.5z"/>
    <glyph glyph-name="J" unicode="J" horiz-adv-x="1890" d="M1784 635l139 222t94.5 165.5t58.5 120t30.5 86.5t10.5 65t-1 56l-170 -54t-195.5 -53t-223.5 -38.5t-253 -10.5q-29 0 -54.5 6t-48.5 29q-33 34 -40.5 51.5t6.5 26.5t48 12t85 8q49 4 74 0t42.5 -12.5t35 -19t51.5 -17.5q84 -18 164.5 -11.5t161 27.5t162.5 50.5 t171 56.5q12 22 31.5 44.5t41 41t43.5 31t40 14.5q30 4 49 2.5t27 -9.5t4.5 -24.5t-19.5 -42.5q94 23 174.5 40.5t149.5 27t128.5 10.5t110.5 -8q40 -8 63 -27.5t33 -44.5t10 -52.5t-4.5 -51.5t-11.5 -41.5t-10 -22.5q-11 -14 -21.5 -10.5t-7.5 18.5q11 51 -15.5 85 t-82.5 53q-54 18 -114.5 23.5t-128 1t-143 -18t-159.5 -33.5l-64.5 -122.5l-95.5 -174.5l-129 -224l-165 -272l-158 -238.5t-186 -243.5t-214 -226.5t-242 -188.5t-270.5 -128.5t-299.5 -47.5q-108 0 -205 35t-165.5 102t-101 165.5t-12.5 226.5q18 118 80.5 216.5 t153 175.5t201 133t225.5 89q130 37 249.5 41.5t216.5 -8.5t165.5 -36.5t97.5 -41.5q49 -31 70 -57t18 -41q-2 -16 -16 -12t-37 24q-9 7 -12.5 14t-5.5 13t-5.5 12t-11.5 12q-39 28 -111 51t-167.5 34t-208 5.5t-232.5 -35.5q-113 -28 -220.5 -84.5t-194.5 -134.5t-146 -173 t-74 -201q-17 -115 16 -204.5t99 -151t156.5 -94t189.5 -32.5q137 0 266.5 49t249 131t228 189t204.5 224t178.5 235t149.5 223z"/>
    <glyph glyph-name="K" unicode="K" horiz-adv-x="1294" d="M1083 1479q17 -22 17.5 -50t-25.5 -73q-15 -23 -33.5 -45t-38 -39t-37.5 -27.5t-32 -11.5q-31 -2 -68.5 -31t-81.5 -78t-94 -115.5l-106 -144.5q202 -5 373 16.5t315.5 65.5t264 107t220.5 141q24 18 38 27t21.5 18.5t9.5 24t3 43.5q1 21 16.5 42.5t36 39.5t41 32 l31.5 21q14 9 42 10.5t53 -4.5t39 -19t-1 -32q-45 -60 -123 -122t-168 -118q-128 -80 -255.5 -147.5t-269.5 -114.5t-306.5 -70.5t-368.5 -15.5q-17 0 -17 -3t13 -9q22 -11 59 -38.5t68 -62.5q25 -29 64 -95t88.5 -158.5l107.5 -205.5l121 -237q73 -143 153.5 -241.5 t167.5 -157t179.5 -79.5t187.5 -9q11 1 16.5 5t10 8.5t10.5 9t18 7.5q29 10 43.5 6t9.5 -18q-5 -15 -40 -27t-84 -18q-111 -15 -214 3t-198 73.5t-182 151t-166 235.5q-61 106 -110 210.5l-93.5 197t-88.5 169.5t-95 129q-29 31 -62.5 52t-70.5 30q-66 -91 -124.5 -193 t-108 -201.5t-89 -191.5t-66.5 -163q-8 -21 -24 -19t-30.5 18.5t-22 41.5t3.5 51q27 63 68.5 141t94 165t114.5 179.5t130 184.5q-72 9 -96 24t-10 35q14 21 26 34t32 19.5t51.5 7t84.5 -3.5l135.5 178.5l128.5 165l118 141.5t104 109q8 8 17.5 15.5t19 11.5t18 3t16.5 -11z "/>
    <glyph glyph-name="L" unicode="L" horiz-adv-x="934" d="M1030 -289q-56 -7 -114 -2.5t-123.5 24t-140.5 55.5t-165 93l-131.5 84t-101 59t-74 25t-49.5 -18q-17 -19 -29 -30t-24 -10.5t-25.5 13t-32.5 41.5q-13 20 -7.5 52.5t21.5 64.5t37 57.5t40 30.5q16 5 32 11t36 21.5t47 45t65 82.5t89.5 134l121.5 199q67 115 110 197 t68 140t35 97t11.5 68t-2 53t-5.5 52q-1 12 7 31t21.5 39.5t32 41t38 37t38.5 25.5t35 8q24 -2 42 -3t28 -5.5t11.5 -14.5t-7.5 -30l-22.5 -49l-34.5 -71l-51 -99.5l-73 -135l-100.5 -177.5l-132.5 -226l-129.5 -215l-102 -163.5l-78.5 -121l-59 -86.5q33 -11 65.5 -27 t73 -40l94 -56l128.5 -75l164.5 -95t124 -63t101 -33t95.5 -4q42 4 73.5 11.5t58 18t50.5 25t50 33.5q8 6 14.5 16.5t12.5 22.5t12.5 23t15.5 18q48 40 63 12q10 -16 7 -31t-15 -29t-31 -27t-41 -25q-52 -31 -117 -59.5t-151 -39.5z"/>
    <glyph glyph-name="M" unicode="M" horiz-adv-x="2482" d="M999 684q-77 -89 -145.5 -182.5t-127.5 -185t-107.5 -177.5t-83.5 -159q-10 -21 -25.5 -17.5t-26.5 21t-14.5 44t10.5 52.5q35 66 76 133.5l91 145.5l110 171.5l133 212.5q81 132 133 245.5t76 203t22.5 152t-26.5 94.5q-19 23 -64 33.5t-104.5 7t-128 -21.5t-133.5 -52 l-168.5 -88.5t-120.5 -71t-77.5 -62t-39.5 -61.5q-10 -30 -15.5 -48.5t-15 -36.5t-26.5 -39.5t-51 -57.5l-47 -47t-38 -24.5t-29.5 11t-21.5 60.5q-3 15 -0.5 32t9.5 33.5t16 31t20 24.5q20 20 69.5 61.5t124.5 94t173.5 110.5t218.5 111q81 35 158.5 58.5t143.5 31t117 -2 t79 -40.5q40 -45 52.5 -117t-8.5 -169.5t-77 -219.5t-152 -268q-6 -10 -6 -14t4 -4t9 3.5t10 8.5q4 4 38.5 44.5l93 104.5l137.5 145l171 168l177 160.5t161 123t142.5 70.5t123.5 3q41 -13 56 -50t10.5 -91.5t-25.5 -122t-51.5 -140.5t-68 -148.5l-75 -145l-72.5 -130 l-60 -104.5q-5 -8 0 -14t16 8l45 60.5t69.5 89l103.5 123.5l147 163q224 243 374.5 337.5t241.5 33.5q54 -37 60.5 -103t-25 -160t-96.5 -216.5t-156 -272.5l-114 -198t-96.5 -189.5t-69.5 -174.5t-33 -154t12 -128t67 -96q32 -26 69.5 -37.5t70.5 -15.5q39 -4 78 -2 q2 8 9 17q6 8 16.5 15.5t29.5 14.5q37 12 58.5 12t30.5 -7t8 -17.5t-9 -18.5q-31 -28 -63 -43.5t-80 -15.5q-24 0 -55 2t-64 9.5t-67 21.5t-64 38q-58 46 -84.5 110t-27.5 141t20.5 165.5t59.5 184.5t90.5 197t113.5 204q92 153 148 267.5t82 193t24 123t-27 59.5 q-39 23 -87.5 14t-110 -49.5t-138.5 -112.5t-174 -176l-186 -207.5t-176 -226.5q-55 -78 -103 -154.5l-89 -147.5l-75 -135l-61 -116q-13 -25 -28.5 -23t-26.5 18t-15.5 39t4.5 40l77.5 140l73 128l74.5 128.5l81 142.5q29 51 68.5 127t79 162t74.5 173t55.5 160.5t21.5 125 t-27 65.5q-37 18 -85 11.5t-112 -42t-146 -102t-185 -166.5l-111.5 -108.5l-84 -84l-66 -68.5l-56 -60.5l-53.5 -60.5z"/>
    <glyph glyph-name="N" unicode="N" horiz-adv-x="1860" d="M1440 1145l-117 -119.5l-88.5 -90l-68.5 -70l-57 -58.5l-54 -57.5l-60 -65.5q-78 -87 -148 -179.5t-129 -183.5t-107 -177.5t-83 -159.5q-10 -21 -25 -18t-26.5 19.5t-15 42.5t11.5 52l43.5 80l46 81.5l53.5 90.5l67.5 108l87.5 134.5l114 168.5q79 116 130.5 227.5 t77 205t25 162t-25.5 100.5q-19 23 -65.5 33.5t-108.5 7.5t-132 -20.5t-135 -51.5l-166.5 -88.5t-117 -71.5t-74 -63t-37.5 -62q-10 -30 -15.5 -48.5t-15 -36.5t-27 -39.5t-51.5 -57.5q-25 -27 -46 -47t-38 -24.5t-29.5 11t-21.5 60.5q-3 15 -0.5 32t9.5 33.5t16 31t20 24.5 q20 20 69.5 61.5t124.5 94t173.5 110.5t218.5 111q81 35 157 57t141 28.5t116.5 -2.5t83.5 -36q60 -51 72 -127.5t-15 -175.5t-89.5 -218t-152.5 -253q-6 -8 -2.5 -13t11.5 4l98.5 111l99.5 104l112.5 113l137.5 137q93 94 184 163.5t172.5 109.5t149.5 47t115 -23 q65 -42 76.5 -118t-19.5 -182.5t-99 -241t-161 -293.5l-111.5 -198t-95 -187.5t-68.5 -171.5t-33 -150.5t12 -125.5t67 -95q32 -26 70.5 -37.5t71.5 -15.5q39 -4 77 -2q2 8 9 17q6 8 16.5 15.5t29.5 14.5q37 12 58 12t30.5 -7t8.5 -17.5t-9 -18.5q-31 -28 -63 -43.5 t-80 -15.5q-24 0 -55 2t-64 9.5t-66.5 21.5t-62.5 38q-59 46 -86.5 110t-29.5 141.5t18.5 166t58.5 184.5t90.5 197t114.5 203q82 139 141 258t90 211t31 155t-35 91q-35 27 -90 25t-123.5 -33t-148 -91t-164.5 -147z"/>
    <glyph glyph-name="O" unicode="O" horiz-adv-x="1221" d="M1325 1296q-47 31 -102 29.5t-105.5 -21t-90 -51t-54.5 -61.5q-16 -32 -20 -50.5t-10 -35.5t-20.5 -37.5t-50.5 -54.5l-60 -57t-41 -27.5t-24.5 12.5t-11.5 64q-3 32 7.5 54.5t27.5 47.5q25 33 66 69.5t91 69.5t107 59t114.5 38.5t111.5 8.5t100 -32q48 -29 66 -84 t13.5 -126t-30 -154t-65 -169t-91 -170t-108.5 -157q-58 -73 -127 -146.5t-146.5 -138t-161.5 -114.5t-170 -75.5t-173.5 -23t-171.5 44.5t-127 111.5t-52 156.5t11.5 186.5t62.5 200.5t101 198.5t128 180.5q103 125 215 217t221 152.5t207.5 91t174.5 33.5t130 -11 t89.5 -33.5t54 -38.5t21.5 -26t3.5 -14t-2.5 -10.5t-9.5 -3t-16.5 9.5t-29 21t-51.5 21.5t-79.5 14t-114 -1.5t-154.5 -42t-183.5 -100t-195.5 -154.5t-189.5 -204.5q-61 -77 -117 -166.5t-99 -182t-69.5 -183t-27.5 -168t28 -138t96 -92.5t145.5 -29t161 31.5t166 78.5 t161 111.5t145 129.5t118.5 134q55 72 101.5 153.5t80.5 163.5t55 160.5t25.5 144t-8.5 114t-47 71.5z"/>
    <glyph glyph-name="P" unicode="P" horiz-adv-x="1233" d="M1106 670q-18 -1 -44 -1.5t-54.5 0.5t-57 3.5t-49.5 7.5q-24 6 -29.5 15.5t0.5 21t19 23l24 20.5q7 4 20 6.5t29.5 2.5t35 -1.5t36.5 -5.5q27 -5 40.5 -15t22.5 -20t18.5 -16.5t27.5 -5.5q77 5 165.5 25t178.5 54t175 82t154 109.5t116.5 136t62.5 162.5q9 54 -12.5 102 t-90.5 82t-193.5 50.5t-322.5 7.5q-128 -6 -251 -22.5t-235 -39t-208.5 -48.5t-171.5 -51.5t-125 -47.5t-68 -37q-27 -23 -38 -39.5t-23 -31.5t-33.5 -29t-68.5 -31l-79 -28t-48.5 -9t-17 21t15.5 63q11 31 31 48t46 30q17 8 66 28.5t127.5 47.5t187 58t244 59.5t298 51 t349.5 33.5q151 9 265.5 4t197 -21.5t136 -43t83 -60.5t38.5 -74.5t3 -84.5q-15 -103 -69 -185.5t-134 -146.5t-179 -110.5t-204.5 -78t-210.5 -49t-196 -22.5zM1405 1450q15 -23 14 -51.5t-30 -71.5q-15 -22 -35 -42.5t-40.5 -36t-39.5 -25t-33 -9.5q-35 0 -83.5 -35 t-107 -96.5t-125 -144.5l-137.5 -180q-68 -93 -128.5 -197.5t-112 -207t-92 -197.5t-68.5 -168q-8 -21 -24 -19t-31 18.5t-22.5 41.5t3.5 51q28 66 72 147.5t99.5 171.5t121 186.5t137.5 192.5l158 200.5l158 184.5t147.5 156.5t126.5 116.5q9 7 18.5 13.5t19 10t18.5 2 t16 -11.5z"/>
    <glyph glyph-name="Q" unicode="Q" horiz-adv-x="1450" d="M41 174q15 17 61.5 43.5t112.5 52.5q-9 88 11.5 188t63.5 201.5t103 200t129 182.5q103 125 214.5 217t219.5 152.5t205.5 91t173.5 33.5t130.5 -11t90 -33.5t53.5 -38.5t21 -26t3.5 -14t-2.5 -10.5t-9 -3t-16 9.5t-29.5 21t-51.5 21.5t-79.5 14t-114.5 -1.5t-153.5 -42 t-182 -100t-194 -154.5t-189.5 -204.5q-57 -72 -110.5 -156.5t-96.5 -172t-71 -174t-35 -163.5q88 31 175 31.5t170.5 -21.5t163 -60.5t153.5 -84.5q102 71 192.5 156.5t155.5 170.5q55 72 103 153t84.5 162.5t60.5 159.5t31 143.5t-4.5 113.5t-45.5 71q-31 20 -68 27 t-75.5 3.5t-75.5 -15.5t-68.5 -29t-54.5 -37.5t-33 -40.5q-16 -32 -19 -52t-7 -38t-17 -40t-49 -56l-60 -57t-41 -27.5t-24.5 12.5t-11.5 64q-3 32 7.5 54.5t27.5 47.5q25 33 66.5 70.5t92.5 71.5t108.5 61t115 39.5t111 7t96.5 -36.5q40 -29 55.5 -83.5t10.5 -125.5 t-28 -154t-60.5 -169t-87 -170.5t-106.5 -157.5q-69 -88 -153 -174.5t-180 -157.5q78 -54 158.5 -119.5l166.5 -140.5q172 -150 322 -181.5t280 44.5q13 7 23.5 8t14 -4t-1 -14.5t-21.5 -22.5q-74 -58 -142 -83.5t-144 -13t-167 65.5t-209 154l-181.5 155.5l-143.5 118.5 q-69 -45 -140 -77.5t-143.5 -46.5t-145 -6.5t-143.5 42.5q-71 34 -111.5 89.5t-60.5 127.5q-11 -11 -18.5 -19.5t-9.5 -21.5q-1 -9 -5 -17t-13.5 -16.5t-25.5 -18t-40 -21.5q-11 -6 -27 -1t-29 15.5t-18 23.5t6 25zM420 33q53 -26 113 -29t124 12t130 44.5t131 70.5 q-68 48 -144.5 86t-156.5 58t-161 19t-159 -30q-2 -78 26.5 -138.5t96.5 -92.5z"/>
    <glyph glyph-name="R" unicode="R" horiz-adv-x="1706" d="M1065 711q41 -29 75 -73t64 -99t58 -119l56.5 -133l59 -141t66.5 -142q73 -143 149.5 -244.5t161.5 -162.5t181 -82t208 -2q11 1 17.5 7.5t12 14t12 15t18.5 10.5q15 4 28 6.5t22 0.5t12 -10.5t-3 -25.5q-3 -8 -15.5 -14.5t-31 -12.5t-41.5 -10.5t-47 -7.5 q-111 -15 -213.5 -1t-196.5 67t-181.5 149.5t-168.5 247.5q-62 114 -107 224.5l-86 208t-85 176.5t-103 128q-14 11 -37 13.5t-45 7.5q-25 4 -31.5 13t-2 19t16.5 21t23 20q7 5 22 7t34.5 2t41.5 -2t42 -5q26 -4 36.5 -10t16 -12t12.5 -9.5t25 -2.5q77 5 167 31.5t181 68.5 t177 96t155 114.5t115 123.5t57 123q5 29 -2 57.5t-31.5 54t-69 46.5t-114.5 35t-168 19t-230 -1q-128 -6 -251 -22.5t-235 -39t-208.5 -48.5t-171.5 -51.5t-125 -47.5t-68 -37q-27 -23 -38 -39.5t-23 -31.5t-33.5 -29t-68.5 -31l-79 -28t-48.5 -9t-17 21t15.5 63 q11 31 31 48t46 30q17 7 66 29t127.5 50.5t187 60.5t244 61t298 51t349.5 30q217 9 360 -6t226 -49.5t112 -87t17 -117.5q-13 -74 -64.5 -144t-130 -132.5t-178.5 -115t-209.5 -92t-223.5 -63.5t-220 -28zM1368 1450q16 -23 14.5 -51.5t-30.5 -71.5q-15 -22 -35 -42.5 t-40.5 -36t-39.5 -25t-33 -9.5q-35 0 -83.5 -35t-107 -96.5t-125 -144.5t-136.5 -180q-68 -93 -129 -197.5t-112.5 -207t-92 -197.5t-68.5 -168q-8 -21 -24 -19t-31 18.5t-22.5 41.5t3.5 51q28 66 72 147.5t99.5 171.5t121.5 186.5l138 192.5q76 102 157 200.5l158 184.5 t147.5 156.5t126.5 116.5q9 7 18.5 13.5t19.5 10t18.5 2t15.5 -11.5z"/>
    <glyph glyph-name="S" unicode="S" horiz-adv-x="1632" d="M1667 1542q62 5 100.5 -9t58 -39.5t22.5 -59.5t-4.5 -69t-23.5 -68t-34 -56t-34.5 -46.5t-36 -45t-42.5 -40.5t-53 -34t-50 -20t-34 -3t-25.5 9t-23.5 18q-10 9 -5 23t19.5 30.5t35.5 33t44 29t44 20t36 6.5q22 -3 37 2t25 13q11 9 18 21q18 22 35 50t27 56.5t11 55.5 t-13 47t-44.5 31.5t-83.5 9.5q-41 -2 -93 -14.5t-107 -34t-107.5 -51.5t-94 -65.5t-68.5 -76.5t-29 -85q-2 -33 16 -62.5t47.5 -60t67 -63.5t74 -72t67.5 -87t49 -108q57 -6 104 -14.5t82 -16.5q48 -11 83 -24t38 -29q9 -29 -55 -10q-11 3 -16.5 7.5t-9.5 9t-9.5 9 t-15.5 7.5q-34 9 -83.5 17.5t-111.5 14.5q20 -86 15 -170t-29 -163t-64.5 -153t-92 -141.5t-111 -127t-121.5 -109.5q-88 -71 -191.5 -125.5t-209.5 -89.5t-208.5 -49.5t-190 -4.5t-153.5 45.5t-98 100.5q-36 73 -39.5 152t23 159.5t79.5 159.5t130 152.5t175 138.5t214 117 q107 48 209 77.5t196.5 46t180.5 21t161 2.5q-24 52 -59.5 94.5t-74.5 79.5l-77 70t-66.5 64.5t-43 63t-6.5 67.5q12 55 48.5 103t88.5 87t114.5 70.5t127 53.5t126.5 35t113 17zM645 567q-107 -48 -198.5 -109t-163.5 -131t-123 -145t-77.5 -150t-27 -147.5t28.5 -136.5 q24 -53 83.5 -78t141 -27.5t178 16.5t194 55t190 86.5t165.5 111.5q56 46 112 103.5t104.5 121.5t86 134t58 143t20 146.5t-27.5 144.5q-78 2 -167 -2.5t-184.5 -20t-194.5 -43.5t-198 -72z"/>
    <glyph glyph-name="T" unicode="T" horiz-adv-x="737" d="M1135 1419l19.5 17t27 18.5t27.5 7t20 -17.5l163 42t156.5 35t138.5 20t109 -3q40 -8 62.5 -27t32 -43.5t8.5 -51t-6 -50t-12.5 -40.5t-10.5 -21q-11 -14 -21.5 -11t-7.5 19q9 43 -12.5 74.5t-64.5 51t-103.5 27t-130 3.5t-144 -19t-145.5 -41q0 -17 -7 -37t-24 -45 q-15 -22 -35 -42.5t-40 -36t-39 -25t-33 -9.5q-35 0 -83.5 -35t-107 -96.5t-125 -144.5l-137.5 -180q-68 -93 -128.5 -197.5t-112 -207t-92 -197.5t-68.5 -168q-8 -21 -24.5 -19t-31 18.5t-22 41.5t3.5 51q28 66 72 147.5t99.5 171.5t121 186.5t137.5 192.5l133.5 171.5 l135.5 161l130.5 143.5t118.5 118q-70 -19 -133.5 -40l-128 -41t-133.5 -38t-149.5 -30.5t-176 -19t-212.5 -3.5q-29 0 -54.5 6t-48.5 29q-33 34 -41 51.5t6 26.5t48 12t85 8q49 5 74.5 1t42.5 -12.5t34.5 -19t51.5 -18.5q62 -13 117.5 -16t110 2.5t112 18.5t124 32.5 l145.5 44z"/>
    <glyph glyph-name="U" unicode="U" d="M817 713q-89 -146 -137 -254t-63 -185t0.5 -126t54.5 -76q38 -28 86 -26.5t109.5 28t137 76.5t169.5 120l103 81.5l116.5 98.5l119 107l111 106t92.5 96t64 77l136 196.5l124 183l111.5 159.5t99.5 126q7 8 15 16t17 12.5t18 4.5t17 -8q19 -20 22 -48.5t-20 -76.5 q-11 -24 -27 -48.5t-33.5 -44t-35 -31t-31.5 -9.5q-23 4 -58.5 -33.5t-81 -105.5t-100.5 -160.5l-116 -198.5q-56 -97 -98 -199t-73 -201.5t-52.5 -192t-36.5 -169.5q-4 -21 -18.5 -20t-29 16t-24 40t-2.5 52q32 133 90.5 296t159.5 345q3 5 0 6t-6 -2q-32 -35 -72.5 -75 l-86 -82.5l-95 -86.5l-99 -86.5l-98.5 -82.5l-94 -74q-100 -76 -186 -133t-159 -88.5t-133.5 -35.5t-109.5 26q-63 38 -84 100.5t-4.5 151t69.5 205t138 263.5q92 159 166.5 276.5t122.5 202t65 139t-6 87.5q-21 29 -68.5 39t-110 3.5t-132.5 -28t-135 -55.5l-166 -88.5 t-115.5 -71.5t-73 -63t-36.5 -62q-10 -30 -15.5 -48.5t-15 -36.5t-27 -39.5t-51.5 -57.5q-25 -27 -46 -47t-38 -24.5t-29.5 11t-21.5 60.5q-3 15 -0.5 32t9 33.5t16 31t20.5 24.5q20 20 69 61.5t124 94t174 110.5t219 111q81 35 163 60.5t153 35.5t125.5 1.5t80.5 -40.5 q40 -51 31.5 -116t-55.5 -156t-127.5 -215.5z"/>
    <glyph glyph-name="V" unicode="V" horiz-adv-x="1548" d="M969 672q53 124 89.5 220t59 169t32.5 126.5t10 92.5t-9 67.5t-23 51.5q-21 33 -71.5 48.5t-116 15.5t-138.5 -14.5t-138 -41.5q-101 -42 -170 -77.5t-114 -68.5t-69 -64.5t-35 -63.5q-10 -30 -18 -50.5t-21 -40t-33 -43t-54 -59.5l-47 -47t-38 -24.5t-29.5 11 t-21.5 60.5q-3 15 -0.5 32t9.5 33.5t16 31t20 24.5q20 20 69.5 61.5t124.5 94t173.5 110.5t218.5 111q81 35 163.5 57.5t155 29t130 -2.5t88.5 -37q29 -27 50 -62t29.5 -83t3 -112.5t-28.5 -150.5t-66 -196.5t-109 -251.5l-98 -207l-72 -149l-60 -121q-1 -7 1 -11t6 -4.5 t14 4.5q6 4 39 23t84 51t116.5 77t137.5 100t147 119t144 136q146 151 231 257.5t127 177.5t51.5 112.5t3.5 62.5q-5 22 4 50t26 56.5t38 55.5t39 47t32.5 34t29.5 22t32.5 10.5t42.5 1.5q29 -2 39 -10.5t7 -23t-15 -33l-27 -40.5l-77.5 -117l-78.5 -116q-29 -43 -71.5 -100 t-102 -128l-136 -157l-173.5 -186q-65 -67 -137.5 -131l-146 -123l-144.5 -112l-132.5 -98.5l-110.5 -83t-78 -65.5q-22 -21 -38 -24t-28 4.5t-21 24t-16 34.5t-8.5 28t3.5 22t17 30.5t33 54.5q18 31 40 73l50.5 100.5l64 135.5z"/>
    <glyph glyph-name="W" unicode="W" horiz-adv-x="2605" d="M2071 1208q18 -31 4 -88t-76 -145q-74 -105 -125 -210.5t-80 -202t-37.5 -181.5t2.5 -150t40.5 -106t76.5 -51t103.5 1t117.5 38.5t124.5 70t123 95t112.5 114t95 127.5q48 79 85 158.5t62.5 153t41 138.5t21 114.5t2 81t-15.5 38.5q-20 11 -31.5 29t-17 41t-7 49 t-1.5 53q1 28 4 47.5t10 36t19.5 31.5t32.5 33q25 26 43 13.5t28.5 -51t13.5 -97t-1 -125.5q-5 -72 -13.5 -152t-34.5 -173.5t-75 -203t-135 -239.5q-71 -110 -158 -207.5t-183 -167t-197.5 -102.5t-201.5 -15q-68 12 -108 49t-57.5 91.5t-15 123t18.5 144t43 154 t58.5 153.5t66 143t64.5 121q6 11 0.5 16t-15.5 -8q-17 -23 -40 -51t-63.5 -69.5t-105.5 -101l-165 -146.5q-75 -65 -157 -128l-164 -122l-159.5 -112.5l-145 -100l-121 -84.5t-85.5 -66q-24 -21 -40.5 -24t-27.5 4.5t-18 24t-12 34.5q-4 18 -4 28t6 22t20 30.5t39 54.5 l50.5 73t64.5 100.5l81.5 135.5l102.5 179q70 124 114 220t68.5 169t32 126.5t3.5 92.5t-16 67.5t-26 51.5q-14 22 -41 36.5t-64 22t-80.5 8t-89.5 -5.5t-93 -19t-90 -32q-97 -43 -167 -83t-117.5 -77.5t-74.5 -72t-37 -66.5q-9 -31 -14.5 -47.5t-15 -31.5t-27 -34.5 l-49.5 -56.5l-46.5 -48.5t-37.5 -25t-29.5 10.5t-21.5 59q-4 15 -2 32.5t8 34t15 31.5t20 25q19 21 66 62.5t119.5 94t169.5 111t216 111.5q91 40 175 63t154 28.5t123.5 -5.5t84.5 -39q30 -27 54.5 -62t37 -83t9 -112.5t-29 -150.5t-77.5 -196.5t-136 -251.5l-124.5 -207 l-92.5 -149l-77 -121q-1 -6 1 -10q2 -3 5.5 -4.5t13.5 3.5q44 20 118.5 62.5t170.5 107t208 150t232 192.5q91 82 162.5 155t120 132.5t74.5 102.5t28 65q1 22 11.5 41t24 34t28 26.5t24.5 17.5q25 15 41.5 18.5t27.5 -1t18 -14.5t14 -22z"/>
    <glyph glyph-name="X" unicode="X" horiz-adv-x="1401" d="M1288 -98q9 -6 16 -5.5t13.5 3t14.5 4t18 -1.5q32 -8 44 -16t1 -19q-6 -7 -19.5 -13t-31.5 -7t-39.5 3.5t-44.5 18.5q-55 33 -107.5 97t-102 154.5t-95 206.5t-87.5 253l-157 -143.5l-174.5 -155.5l-186.5 -156.5t-192.5 -146t-192 -124t-186 -90.5t-174 -46t-156.5 10 q-23 7 -23.5 22t10 31t27.5 29.5t29 17.5t38.5 8t55.5 5.5t54 -2t36 -15.5q27 -28 76.5 -20.5t115 42t145 91t165 127.5l174.5 151l175.5 161l166 158l146.5 142l-63 206.5t-49 150t-38.5 102t-30.5 63.5t-27 34.5t-26 14.5q-43 14 -67 44.5t-39 82.5q-7 26 -11 44t-4 33.5 t4 32t13 40.5q7 23 20.5 25t28.5 -10t29.5 -33.5t25.5 -45.5l56.5 -120.5t50.5 -120.5l30.5 -84t24.5 -71l22 -67.5l23.5 -74l27.5 -91.5l36 -118l115 121l111 122l99 116.5t78.5 104t49 83.5t11.5 57q-9 43 5.5 80t52.5 76q19 19 32.5 31t27 20t29.5 12.5t42 9.5 q23 5 30 -5t3.5 -28.5t-13.5 -42.5t-22 -47q-49 -98 -117.5 -201t-149.5 -206t-171.5 -204l-182.5 -194q43 -137 85.5 -252t88 -205t96.5 -155.5t111 -103.5z"/>
    <glyph glyph-name="Y" unicode="Y" horiz-adv-x="1706" d="M1958 868l-74.5 -131l-91.5 -161.5l-107.5 -180.5t-123 -188t-138.5 -184t-153 -168q-75 -74 -166 -140t-196.5 -111t-226.5 -62.5t-257 5.5q-94 16 -175 59.5t-137 110.5t-79.5 156t-1.5 197q13 67 44.5 121t72 96t87 73.5t90.5 53.5t81 35.5t59 19.5q57 15 90.5 14.5 t42.5 -12.5q11 -12 -2.5 -23.5t-42.5 -11.5q-12 0 -19 2.5l-13 4.5t-12.5 3.5t-16.5 -0.5q-31 -6 -71.5 -20t-84 -37.5t-87.5 -55t-81 -72t-64 -89.5t-38 -106q-12 -64 -3.5 -121.5t32.5 -107.5t61 -91t81.5 -72.5t94 -52t98.5 -29.5q114 -20 223 0.5t211 68.5t194.5 117.5 t172.5 147.5q66 65 130 143.5t122.5 162t111.5 169l99 164l83 146.5l64 118q3 7 0 8t-8 -6q-89 -104 -184 -199.5t-207 -189.5q-97 -80 -178.5 -137t-151.5 -89t-130.5 -37t-115.5 20q-48 21 -82 59.5t-41.5 102.5t17.5 157.5t96 224.5l73 132l76.5 140.5l70 137.5t53 123 t26 98.5t-11.5 63.5q-18 23 -63 34.5t-105 9.5t-128.5 -18.5t-133.5 -50.5l-168.5 -89.5t-120.5 -73.5t-77.5 -65t-39.5 -63q-10 -30 -15.5 -48.5t-14.5 -36.5t-26.5 -39.5t-51.5 -57.5l-47 -47t-38 -24.5t-29.5 11t-21.5 60.5q-3 15 -0.5 32t9.5 33.5t16.5 31t20.5 24.5 q20 20 69 61.5t124 94t173.5 110.5t218.5 111q81 35 159 59t144.5 32t117.5 -2t77 -42q26 -31 38 -62.5t8.5 -72t-22.5 -94t-55.5 -129t-91 -177l-129.5 -237.5q-45 -82 -68.5 -148t-32 -117t-5 -88t13.5 -62t22.5 -38.5t22.5 -17.5q49 -21 104.5 -15.5t120.5 35.5t141.5 83 t167.5 126q38 30 84 73l94.5 92.5l97 103l92 103.5l79.5 94.5t59 76.5l83 116.5l63 89.5l50.5 70l45 60l47 58l55.5 65q7 7 21 19.5t30 22.5t30.5 14.5t23.5 -3.5q18 -20 21.5 -48.5t-19.5 -76.5q-12 -24 -28 -47t-33.5 -41.5t-34.5 -30.5t-31 -14q-35 -6 -68 -39.5t-69 -87 t-75.5 -124z"/>
    <glyph glyph-name="Z" unicode="Z" horiz-adv-x="1368" d="M27 -297q1 -3 24 2.5t61 17.5l89.5 29.5l108.5 36.5l118 38.5l119 37.5q121 37 224.5 57.5t186 27t143.5 0.5t97 -22q47 -21 68 -55t25.5 -71.5t-2.5 -72t-17 -55.5q-4 -8 -10 -11t-11 -2t-8.5 5t-1.5 12q5 25 1 47t-15.5 41t-30 36.5t-41.5 35.5q-31 24 -93 34t-141.5 8 t-171 -15.5t-180.5 -36.5q-95 -25 -175.5 -52.5t-146 -55.5t-116.5 -54t-88 -47t-62 -14t-40.5 29.5t-22 53t-6.5 56.5q0 17 14 52.5t46 89t86 124t133 158t187 191t249 223.5l258.5 212l215 167l176.5 132l143.5 108.5t115.5 96t92 93.5q-59 -25 -141 -46.5t-180 -37.5 t-208.5 -26.5t-226 -13t-232.5 2.5t-228 20q-29 5 -55.5 12.5t-49.5 30.5q-33 34 -41 51.5t6.5 26.5t48.5 12.5l85 8.5q49 4 72.5 -3t38.5 -20.5t30 -29.5t47 -29q47 -19 110.5 -28.5t137 -11.5t154 3.5t160.5 17.5t157 31t143.5 43t119 53.5t85.5 63.5q16 17 34.5 13.5 t36.5 -19t33.5 -38.5t26.5 -44q11 -22 7 -38.5t-20 -32t-41.5 -32l-56.5 -37.5l-74 -46l-127.5 -81l-170.5 -113.5t-202 -145t-222 -176t-230 -204.5q-173 -164 -296 -304t-200 -247.5t-109 -178t-23 -95.5z"/>
    <glyph glyph-name="Agrave" unicode="À" d="M446 1049q13 15 25.5 23.5t27.5 12t32.5 2.5t41.5 -4q44 -5 101 -13t138.5 -30t193.5 -62.5t266 -111.5q169 130 317.5 228t262.5 164.5t186 103l90 45.5q1 9 1 17.5t4.5 17t15.5 18t32 19.5l48.5 22l53 22.5t46.5 17.5t30 7t18.5 -6.5t14.5 -16.5t3 -22.5t-15 -23.5 q-39 -35 -93.5 -94t-115.5 -133l-125.5 -158l-124 -167l-111.5 -160.5t-88 -139.5l87.5 -54.5t39.5 -27.5q6 -4 7.5 -14t-0.5 -18t-8 -10.5t-15 9.5q-8 11 -40.5 32.5l-86.5 55.5q-71 -120 -118.5 -226.5t-76.5 -188.5t-41.5 -135t-13.5 -66q-1 -8 -12.5 -6.5t-25 11 t-26 27.5t-14.5 43q-5 43 63 186t216 386q-30 20 -69 41.5l-83.5 44.5l-93 47.5l-96.5 50.5q-48 -37 -95 -79l-98 -87q-488 -422 -822 -638.5t-517 -243.5q-94 -14 -151.5 -15.5t-82.5 23.5q-42 45 -18 66t121 32q21 2 37 -3t29 -12.5t23.5 -15t20.5 -8.5q70 -10 189 44.5 t283 166.5t371.5 276.5l455.5 374.5l91.5 76.5l90.5 71.5q-101 45 -198 81t-177.5 59t-138 30t-78.5 -6q-17 -12 -29 -18t-25.5 -8t-32 -0.5t-48.5 5.5q-60 8 -73.5 25.5t3.5 36.5zM2062 1268q6 12 6 21q0 8 -6.5 11.5t-23.5 -2.5t-71.5 -36t-142.5 -86t-207.5 -139 t-266.5 -195l101.5 -54l84 -48l71 -43.5l62.5 -39.5q93 161 193 311zM2232 1769q8 17 21.5 35t25.5 27q10 8 22 1.5t17 -22.5q14 -48 44.5 -91t64.5 -66q4 -3 4.5 -9.5t-4 -13t-13 -10t-20.5 -0.5q-10 2 -30 12.5t-42.5 25.5t-43.5 33t-33 35q-7 10 -12.5 22t-0.5 21z"/>
    <glyph glyph-name="Aacute" unicode="Á" d="M446 1049q13 15 25.5 23.5t27.5 12t32.5 2.5t41.5 -4q44 -5 101 -13t138.5 -30t193.5 -62.5t266 -111.5q169 130 317.5 228t262.5 164.5t186 103l90 45.5q1 9 1 17.5t4.5 17t15.5 18t32 19.5l48.5 22l53 22.5t46.5 17.5t30 7t18.5 -6.5t14.5 -16.5t3 -22.5t-15 -23.5 q-39 -35 -93.5 -94t-115.5 -133l-125.5 -158l-124 -167l-111.5 -160.5t-88 -139.5l87.5 -54.5t39.5 -27.5q6 -4 7.5 -14t-0.5 -18t-8 -10.5t-15 9.5q-8 11 -40.5 32.5l-86.5 55.5q-71 -120 -118.5 -226.5t-76.5 -188.5t-41.5 -135t-13.5 -66q-1 -8 -12.5 -6.5t-25 11 t-26 27.5t-14.5 43q-5 43 63 186t216 386q-30 20 -69 41.5l-83.5 44.5l-93 47.5l-96.5 50.5q-48 -37 -95 -79l-98 -87q-488 -422 -822 -638.5t-517 -243.5q-94 -14 -151.5 -15.5t-82.5 23.5q-42 45 -18 66t121 32q21 2 37 -3t29 -12.5t23.5 -15t20.5 -8.5q70 -10 189 44.5 t283 166.5t371.5 276.5l455.5 374.5l91.5 76.5l90.5 71.5q-101 45 -198 81t-177.5 59t-138 30t-78.5 -6q-17 -12 -29 -18t-25.5 -8t-32 -0.5t-48.5 5.5q-60 8 -73.5 25.5t3.5 36.5zM2062 1268q6 12 6 21q0 8 -6.5 11.5t-23.5 -2.5t-71.5 -36t-142.5 -86t-207.5 -139 t-266.5 -195l101.5 -54l84 -48l71 -43.5l62.5 -39.5q93 161 193 311zM2423 1743q5 -9 -0.5 -21.5t-12.5 -21.5q-12 -17 -33 -35t-43.5 -33t-42.5 -26t-30 -13q-12 -3 -20.5 0.5t-13 10t-4.5 13t5 9.5q34 23 64.5 66.5t44.5 91.5q5 15 17 21.5t22 -1.5q12 -9 25.5 -26.5 t21.5 -34.5z"/>
    <glyph glyph-name="Acircumflex" unicode="Â" d="M446 1049q13 15 25.5 23.5t27.5 12t32.5 2.5t41.5 -4q44 -5 101 -13t138.5 -30t193.5 -62.5t266 -111.5q169 130 317.5 228t262.5 164.5t186 103l90 45.5q1 9 1 17.5t4.5 17t15.5 18t32 19.5l48.5 22l53 22.5t46.5 17.5t30 7t18.5 -6.5t14.5 -16.5t3 -22.5t-15 -23.5 q-40 -35 -94 -94t-115 -133l-125.5 -158l-124 -167l-111.5 -160.5t-88 -139.5l87.5 -54.5t39.5 -27.5q6 -4 7.5 -14t-0.5 -18t-8 -10.5t-15 9.5q-8 11 -40.5 32.5l-86.5 55.5q-71 -120 -118.5 -226.5t-76.5 -188.5t-41.5 -135t-13.5 -66q-1 -8 -12.5 -6.5t-25 11t-26 27.5 t-14.5 43q-5 43 63 186t216 386q-30 20 -69 41.5l-83.5 44.5l-93 47.5l-96.5 50.5q-48 -37 -95 -79l-98 -87q-488 -422 -822 -638.5t-517 -243.5q-94 -14 -151.5 -15.5t-82.5 23.5q-42 45 -18 66t121 32q21 2 37 -3t29 -12.5t23.5 -15t20.5 -8.5q70 -10 189 44.5t283 166.5 t371.5 276.5l455.5 374.5l91.5 76.5l90.5 71.5q-101 45 -198 81t-177.5 59t-138 30t-78.5 -6q-17 -12 -29 -18t-25.5 -8t-32 -0.5t-48.5 5.5q-60 8 -73.5 25.5t3.5 36.5zM2062 1268q6 12 6 21q0 8 -6.5 11.5t-23.5 -2.5t-71.5 -36t-142.5 -86t-207.5 -139t-266.5 -195 l101.5 -54l84 -48l71 -43.5l62.5 -39.5q93 161 193 311zM2337 1835q31 0 67 -25.5t68 -61t57.5 -72t36.5 -58.5q6 -12 3 -24t-12 -18.5t-20.5 -6.5t-21.5 12q-6 8 -23 26.5l-36.5 40l-38.5 41l-29 29.5q-31 31 -61 29.5t-56 -29.5l-29 -32.5l-32.5 -37t-33 -35t-30.5 -26.5 q-15 -11 -27 -11.5t-19 5.5t-8 18t7 27q11 21 38 56.5t61 69.5t71 58.5t68 24.5z"/>
    <glyph glyph-name="uni1EA6" unicode="Ầ" d="M446 1049q13 15 25.5 23.5t27.5 12t32.5 2.5t41.5 -4q44 -5 101 -13t138.5 -30t193.5 -62.5t266 -111.5q169 130 317.5 228t262.5 164.5t186 103l90 45.5q1 9 1 17.5t4.5 17t15.5 18t32 19.5l48.5 22l53 22.5t46.5 17.5t30 7t18.5 -6.5t14.5 -16.5t3 -22.5t-15 -23.5 q-40 -35 -94 -94t-115 -133l-125.5 -158l-124 -167l-111.5 -160.5t-88 -139.5l87.5 -54.5t39.5 -27.5q6 -4 7.5 -14t-0.5 -18t-8 -10.5t-15 9.5q-8 11 -40.5 32.5l-86.5 55.5q-71 -120 -118.5 -226.5t-76.5 -188.5t-41.5 -135t-13.5 -66q-1 -8 -12.5 -6.5t-25 11t-26 27.5 t-14.5 43q-5 43 63 186t216 386q-30 20 -69 41.5l-83.5 44.5l-93 47.5l-96.5 50.5q-48 -37 -95 -79l-98 -87q-488 -422 -822 -638.5t-517 -243.5q-94 -14 -151.5 -15.5t-82.5 23.5q-42 45 -18 66t121 32q21 2 37 -3t29 -12.5t23.5 -15t20.5 -8.5q70 -10 189 44.5t283 166.5 t371.5 276.5l455.5 374.5l91.5 76.5l90.5 71.5q-101 45 -198 81t-177.5 59t-138 30t-78.5 -6q-17 -12 -29 -18t-25.5 -8t-32 -0.5t-48.5 5.5q-60 8 -73.5 25.5t3.5 36.5zM2062 1268q6 12 6 21q0 8 -6.5 11.5t-23.5 -2.5t-71.5 -36t-142.5 -86t-207.5 -139t-266.5 -195 l101.5 -54l84 -48l71 -43.5l62.5 -39.5q93 161 193 311zM2337 1835q31 0 67 -25.5t68 -61t57.5 -72t36.5 -58.5q6 -12 3 -24t-12 -18.5t-20.5 -6.5t-21.5 12q-6 8 -23 26.5l-36.5 40l-38.5 41l-29 29.5q-31 31 -61 29.5t-56 -29.5l-29 -32.5l-32.5 -37t-33 -35t-30.5 -26.5 q-15 -11 -27 -11.5t-19 5.5t-8 18t7 27q11 21 38 56.5t61 69.5t71 58.5t68 24.5zM2358 2040q8 17 21 34.5t26 27.5q9 8 21.5 1.5t17.5 -22.5q7 -24 18.5 -47t25.5 -44t30.5 -38t33.5 -29q5 -3 5 -9.5t-4.5 -12.5t-13 -9.5t-20.5 -0.5q-10 2 -29.5 12.5t-42 25.5t-44 33 t-33.5 35q-6 9 -11.5 21.5t-0.5 21.5z"/>
    <glyph glyph-name="uni1EA4" unicode="Ấ" d="M446 1049q13 15 25.5 23.5t27.5 12t32.5 2.5t41.5 -4q44 -5 101 -13t138.5 -30t193.5 -62.5t266 -111.5q169 130 317.5 228t262.5 164.5t186 103l90 45.5q1 9 1 17.5t4.5 17t15.5 18t32 19.5l48.5 22l53 22.5t46.5 17.5t30 7t18.5 -6.5t14.5 -16.5t3 -22.5t-15 -23.5 q-40 -35 -94 -94t-115 -133l-125.5 -158l-124 -167l-111.5 -160.5t-88 -139.5l87.5 -54.5t39.5 -27.5q6 -4 7.5 -14t-0.5 -18t-8 -10.5t-15 9.5q-8 11 -40.5 32.5l-86.5 55.5q-71 -120 -118.5 -226.5t-76.5 -188.5t-41.5 -135t-13.5 -66q-1 -8 -12.5 -6.5t-25 11t-26 27.5 t-14.5 43q-5 43 63 186t216 386q-30 20 -69 41.5l-83.5 44.5l-93 47.5l-96.5 50.5q-48 -37 -95 -79l-98 -87q-488 -422 -822 -638.5t-517 -243.5q-94 -14 -151.5 -15.5t-82.5 23.5q-42 45 -18 66t121 32q21 2 37 -3t29 -12.5t23.5 -15t20.5 -8.5q70 -10 189 44.5t283 166.5 t371.5 276.5l455.5 374.5l91.5 76.5l90.5 71.5q-101 45 -198 81t-177.5 59t-138 30t-78.5 -6q-17 -12 -29 -18t-25.5 -8t-32 -0.5t-48.5 5.5q-60 8 -73.5 25.5t3.5 36.5zM2062 1268q6 12 6 21q0 8 -6.5 11.5t-23.5 -2.5t-71.5 -36t-142.5 -86t-207.5 -139t-266.5 -195 l101.5 -54l84 -48l71 -43.5l62.5 -39.5q93 161 193 311zM2337 1835q31 0 67 -25.5t68 -61t57.5 -72t36.5 -58.5q6 -12 3 -24t-12 -18.5t-20.5 -6.5t-21.5 12q-6 8 -23 26.5l-36.5 40l-38.5 41l-29 29.5q-31 31 -61 29.5t-56 -29.5l-29 -32.5l-32.5 -37t-33 -35t-30.5 -26.5 q-15 -11 -27 -11.5t-19 5.5t-8 18t7 27q11 21 38 56.5t61 69.5t71 58.5t68 24.5zM2695 2006q5 -9 -0.5 -21.5t-11.5 -21.5q-12 -17 -33.5 -35t-44 -33t-42 -25.5t-29.5 -12.5q-12 -3 -20.5 0.5t-13 9.5t-4.5 12.5t5 9.5q17 12 33.5 29t30.5 38t25.5 44t18.5 47 q5 16 17.5 22.5t21.5 -1.5q13 -10 26 -27.5t21 -34.5z"/>
    <glyph glyph-name="uni1EAA" unicode="Ẫ" d="M446 1049q13 15 25.5 23.5t27.5 12t32.5 2.5t41.5 -4q44 -5 101 -13t138.5 -30t193.5 -62.5t266 -111.5q169 130 317.5 228t262.5 164.5t186 103l90 45.5q1 9 1 17.5t4.5 17t15.5 18t32 19.5l48.5 22l53 22.5t46.5 17.5t30 7t18.5 -6.5t14.5 -16.5t3 -22.5t-15 -23.5 q-40 -35 -94 -94t-115 -133l-125.5 -158l-124 -167l-111.5 -160.5t-88 -139.5l87.5 -54.5t39.5 -27.5q6 -4 7.5 -14t-0.5 -18t-8 -10.5t-15 9.5q-8 11 -40.5 32.5l-86.5 55.5q-71 -120 -118.5 -226.5t-76.5 -188.5t-41.5 -135t-13.5 -66q-1 -8 -12.5 -6.5t-25 11t-26 27.5 t-14.5 43q-5 43 63 186t216 386q-30 20 -69 41.5l-83.5 44.5l-93 47.5l-96.5 50.5q-48 -37 -95 -79l-98 -87q-488 -422 -822 -638.5t-517 -243.5q-94 -14 -151.5 -15.5t-82.5 23.5q-42 45 -18 66t121 32q21 2 37 -3t29 -12.5t23.5 -15t20.5 -8.5q70 -10 189 44.5t283 166.5 t371.5 276.5l455.5 374.5l91.5 76.5l90.5 71.5q-101 45 -198 81t-177.5 59t-138 30t-78.5 -6q-17 -12 -29 -18t-25.5 -8t-32 -0.5t-48.5 5.5q-60 8 -73.5 25.5t3.5 36.5zM2062 1268q6 12 6 21q0 8 -6.5 11.5t-23.5 -2.5t-71.5 -36t-142.5 -86t-207.5 -139t-266.5 -195 l101.5 -54l84 -48l71 -43.5l62.5 -39.5q93 161 193 311zM2337 1835q31 0 67 -25.5t68 -61t57.5 -72t36.5 -58.5q6 -12 3 -24t-12 -18.5t-20.5 -6.5t-21.5 12q-6 8 -23 26.5l-36.5 40l-38.5 41l-29 29.5q-31 31 -61 29.5t-56 -29.5l-29 -32.5l-32.5 -37t-33 -35t-30.5 -26.5 q-15 -11 -27 -11.5t-19 5.5t-8 18t7 27q11 21 38 56.5t61 69.5t71 58.5t68 24.5zM2757 1960q-2 -3 -13 -18t-31 -31t-49 -27.5t-65 -7.5q-39 4 -73.5 14t-64.5 21l-56 20t-47 12q-18 2 -33 -1.5t-28.5 -10.5t-26.5 -15.5t-25 -15.5q-17 -9 -24 0.5t6 26.5q5 7 18 22t32.5 29 t44.5 23.5t54 7.5q36 -3 62 -10.5t50 -16.5l49 -18.5t60 -16.5q35 -8 72 -2t63 35q6 6 12.5 6.5t11.5 -2.5t6 -9.5t-5 -14.5z"/>
    <glyph glyph-name="uni1EA8" unicode="Ẩ" d="M446 1049q13 15 25.5 23.5t27.5 12t32.5 2.5t41.5 -4q44 -5 101 -13t138.5 -30t193.5 -62.5t266 -111.5q169 130 317.5 228t262.5 164.5t186 103l90 45.5q1 9 1 17.5t4.5 17t15.5 18t32 19.5l48.5 22l53 22.5t46.5 17.5t30 7t18.5 -6.5t14.5 -16.5t3 -22.5t-15 -23.5 q-40 -35 -94 -94t-115 -133l-125.5 -158l-124 -167l-111.5 -160.5t-88 -139.5l87.5 -54.5t39.5 -27.5q6 -4 7.5 -14t-0.5 -18t-8 -10.5t-15 9.5q-8 11 -40.5 32.5l-86.5 55.5q-71 -120 -118.5 -226.5t-76.5 -188.5t-41.5 -135t-13.5 -66q-1 -8 -12.5 -6.5t-25 11t-26 27.5 t-14.5 43q-5 43 63 186t216 386q-30 20 -69 41.5l-83.5 44.5l-93 47.5l-96.5 50.5q-48 -37 -95 -79l-98 -87q-488 -422 -822 -638.5t-517 -243.5q-94 -14 -151.5 -15.5t-82.5 23.5q-42 45 -18 66t121 32q21 2 37 -3t29 -12.5t23.5 -15t20.5 -8.5q70 -10 189 44.5t283 166.5 t371.5 276.5l455.5 374.5l91.5 76.5l90.5 71.5q-101 45 -198 81t-177.5 59t-138 30t-78.5 -6q-17 -12 -29 -18t-25.5 -8t-32 -0.5t-48.5 5.5q-60 8 -73.5 25.5t3.5 36.5zM2062 1268q6 12 6 21q0 8 -6.5 11.5t-23.5 -2.5t-71.5 -36t-142.5 -86t-207.5 -139t-266.5 -195 l101.5 -54l84 -48l71 -43.5l62.5 -39.5q93 161 193 311zM2337 1835q-31 0 -68 -24.5t-71 -58.5t-61 -69.5t-38 -56.5q-8 -15 -7 -27t8 -18t19 -5.5t27 11.5q14 10 30.5 26.5t33 35l32.5 37l29 32.5q26 28 56 29.5t61 -29.5l29 -29.5l38.5 -41l36.5 -40t23 -26.5 q10 -12 21.5 -12t20.5 6.5t12 18.5t-3 24q-11 22 -36.5 58.5t-57.5 72t-68 61t-67 25.5zM2623 1683q4 -20 -5 -22t-16 14q-12 35 -0.5 76t97 72t91.5 93t-66 86q-56 18 -66 -14q-2 -6 24 -19.5t8 -37.5q-15 -20 -42 -11q-56 18 -40 66q15 45 58.5 66.5t93.5 5.5 q137 -46 92 -183q-18 -55 -125 -81.5t-104 -110.5z"/>
    <glyph glyph-name="uni1EAC" unicode="Ậ" d="M446 1049q13 15 25.5 23.5t27.5 12t32.5 2.5t41.5 -4q44 -5 101 -13t138.5 -30t193.5 -62.5t266 -111.5q169 130 317.5 228t262.5 164.5t186 103l90 45.5q1 9 1 17.5t4.5 17t15.5 18t32 19.5l48.5 22l53 22.5t46.5 17.5t30 7t18.5 -6.5t14.5 -16.5t3 -22.5t-15 -23.5 q-40 -35 -94 -94t-115 -133l-125.5 -158l-124 -167l-111.5 -160.5t-88 -139.5l87.5 -54.5t39.5 -27.5q6 -4 7.5 -14t-0.5 -18t-8 -10.5t-15 9.5q-8 11 -40.5 32.5l-86.5 55.5q-71 -120 -118.5 -226.5t-76.5 -188.5t-41.5 -135t-13.5 -66q-1 -8 -12.5 -6.5t-25 11t-26 27.5 t-14.5 43q-5 43 63 186t216 386q-30 20 -69 41.5l-83.5 44.5l-93 47.5l-96.5 50.5q-48 -37 -95 -79l-98 -87q-488 -422 -822 -638.5t-517 -243.5q-94 -14 -151.5 -15.5t-82.5 23.5q-42 45 -18 66t121 32q21 2 37 -3t29 -12.5t23.5 -15t20.5 -8.5q70 -10 189 44.5t283 166.5 t371.5 276.5l455.5 374.5l91.5 76.5l90.5 71.5q-101 45 -198 81t-177.5 59t-138 30t-78.5 -6q-17 -12 -29 -18t-25.5 -8t-32 -0.5t-48.5 5.5q-60 8 -73.5 25.5t3.5 36.5zM2062 1268q6 12 6 21q0 8 -6.5 11.5t-23.5 -2.5t-71.5 -36t-142.5 -86t-207.5 -139t-266.5 -195 l101.5 -54l84 -48l71 -43.5l62.5 -39.5q93 161 193 311zM2337 1835q31 0 67 -25.5t68 -61t57.5 -72t36.5 -58.5q6 -12 3 -24t-12 -18.5t-20.5 -6.5t-21.5 12q-6 8 -23 26.5l-36.5 40l-38.5 41l-29 29.5q-31 31 -61 29.5t-56 -29.5l-29 -32.5l-32.5 -37t-33 -35t-30.5 -26.5 q-15 -11 -27 -11.5t-19 5.5t-8 18t7 27q11 21 38 56.5t61 69.5t71 58.5t68 24.5zM725 -142q17 -3 30 -12t20.5 -21t9.5 -25.5t-2 -25.5q-16 -45 -43.5 -60.5t-59.5 4.5q-20 12 -25 20.5t-1 19t15 24t23 35.5q3 7 2.5 15t1 14.5t7.5 10t22 1.5z"/>
    <glyph glyph-name="Atilde" unicode="Ã" d="M446 1049q13 15 25.5 23.5t27.5 12t32.5 2.5t41.5 -4q44 -5 101 -13t138.5 -30t193.5 -62.5t266 -111.5q169 130 317.5 228t262.5 164.5t186 103l90 45.5q1 9 1 17.5t4.5 17t15.5 18t32 19.5l48.5 22l53 22.5t46.5 17.5t30 7t18.5 -6.5t14.5 -16.5t3 -22.5t-15 -23.5 q-40 -35 -94 -94t-115 -133l-125.5 -158l-124 -167l-111.5 -160.5t-88 -139.5l87.5 -54.5t39.5 -27.5q6 -4 7.5 -14t-0.5 -18t-8 -10.5t-15 9.5q-8 11 -40.5 32.5l-86.5 55.5q-71 -120 -118.5 -226.5t-76.5 -188.5t-41.5 -135t-13.5 -66q-1 -8 -12.5 -6.5t-25 11t-26 27.5 t-14.5 43q-5 43 63 186t216 386q-30 20 -69 41.5l-83.5 44.5l-93 47.5l-96.5 50.5q-48 -37 -95 -79l-98 -87q-488 -422 -822 -638.5t-517 -243.5q-94 -14 -151.5 -15.5t-82.5 23.5q-42 45 -18 66t121 32q21 2 37 -3t29 -12.5t23.5 -15t20.5 -8.5q70 -10 189 44.5t283 166.5 t371.5 276.5l455.5 374.5l91.5 76.5l90.5 71.5q-101 45 -198 81t-177.5 59t-138 30t-78.5 -6q-17 -12 -29 -18t-25.5 -8t-32 -0.5t-48.5 5.5q-60 8 -73.5 25.5t3.5 36.5zM2062 1268q6 12 6 21q0 8 -6.5 11.5t-23.5 -2.5t-71.5 -36t-142.5 -86t-207.5 -139t-266.5 -195 l101.5 -54l84 -48l71 -43.5l62.5 -39.5q93 161 193 311zM2613 1698q-2 -2 -13 -17t-31 -31t-48.5 -28t-64.5 -8q-39 4 -74 14t-65 21l-56 20t-47 12q-18 3 -33 -1t-28.5 -11t-26.5 -15.5t-25 -15.5q-17 -9 -24 0.5t6 26.5q5 8 18 22.5t32.5 28.5t44.5 23.5t54 7.5 q36 -3 62.5 -10.5t50 -16.5l49 -18t60.5 -16q35 -8 72 -2.5t63 34.5q5 6 12 7t11.5 -2.5t5.5 -10t-5 -14.5z"/>
    <glyph glyph-name="Adieresis" unicode="Ä" d="M446 1049q13 15 25.5 23.5t27.5 12t32.5 2.5t41.5 -4q44 -5 101 -13t138.5 -30t193.5 -62.5t266 -111.5q169 130 317.5 228t262.5 164.5t186 103l90 45.5q1 9 1 17.5t4.5 17t15.5 18t32 19.5l48.5 22l53 22.5t46.5 17.5t30 7t18.5 -6.5t14.5 -16.5t3 -22.5t-15 -23.5 q-39 -35 -93.5 -94t-115.5 -133l-125.5 -158l-124 -167l-111.5 -160.5t-88 -139.5l87.5 -54.5t39.5 -27.5q6 -4 7.5 -14t-0.5 -18t-8 -10.5t-15 9.5q-8 11 -40.5 32.5l-86.5 55.5q-71 -120 -118.5 -226.5t-76.5 -188.5t-41.5 -135t-13.5 -66q-1 -8 -12.5 -6.5t-25 11 t-26 27.5t-14.5 43q-5 43 63 186t216 386q-30 20 -69 41.5l-83.5 44.5l-93 47.5l-96.5 50.5q-48 -37 -95 -79l-98 -87q-488 -422 -822 -638.5t-517 -243.5q-94 -14 -151.5 -15.5t-82.5 23.5q-42 45 -18 66t121 32q21 2 37 -3t29 -12.5t23.5 -15t20.5 -8.5q70 -10 189 44.5 t283 166.5t371.5 276.5l455.5 374.5l91.5 76.5l90.5 71.5q-101 45 -198 81t-177.5 59t-138 30t-78.5 -6q-17 -12 -29 -18t-25.5 -8t-32 -0.5t-48.5 5.5q-60 8 -73.5 25.5t3.5 36.5zM2062 1268q6 12 6 21q0 8 -6.5 11.5t-23.5 -2.5t-71.5 -36t-142.5 -86t-207.5 -139 t-266.5 -195l101.5 -54l84 -48l71 -43.5l62.5 -39.5q93 161 193 311zM2281 1749q17 -3 30 -12t20.5 -21t9.5 -25.5t-2 -25.5q-16 -45 -43.5 -60t-59.5 5q-20 11 -25 19.5t-0.5 18.5t15.5 24t23 36q3 7 2.5 15t0.5 14.5t7 10t22 1.5zM2488 1749q17 -3 30 -12t20.5 -21 t9.5 -25.5t-2 -25.5q-16 -45 -43.5 -60t-59.5 5q-20 11 -25 19.5t-0.5 18.5t15.5 24t23 36q3 7 2.5 15t0.5 14.5t7 10t22 1.5z"/>
    <glyph glyph-name="Abreve" unicode="Ă" d="M446 1049q13 15 25.5 23.5t27.5 12t32.5 2.5t41.5 -4q44 -5 101 -13t138.5 -30t193.5 -62.5t266 -111.5q169 130 317.5 228t262.5 164.5t186 103l90 45.5q1 9 1 17.5t4.5 17t15.5 18t32 19.5l48.5 22l53 22.5t46.5 17.5t30 7t18.5 -6.5t14.5 -16.5t3 -22.5t-15 -23.5 q-40 -35 -94 -94t-115 -133l-125.5 -158l-124 -167l-111.5 -160.5t-88 -139.5l87.5 -54.5t39.5 -27.5q6 -4 7.5 -14t-0.5 -18t-8 -10.5t-15 9.5q-8 11 -40.5 32.5l-86.5 55.5q-71 -120 -118.5 -226.5t-76.5 -188.5t-41.5 -135t-13.5 -66q-1 -8 -12.5 -6.5t-25 11t-26 27.5 t-14.5 43q-5 43 63 186t216 386q-30 20 -69 41.5l-83.5 44.5l-93 47.5l-96.5 50.5q-48 -37 -95 -79l-98 -87q-488 -422 -822 -638.5t-517 -243.5q-94 -14 -151.5 -15.5t-82.5 23.5q-42 45 -18 66t121 32q21 2 37 -3t29 -12.5t23.5 -15t20.5 -8.5q70 -10 189 44.5t283 166.5 t371.5 276.5l455.5 374.5l91.5 76.5l90.5 71.5q-101 45 -198 81t-177.5 59t-138 30t-78.5 -6q-17 -12 -29 -18t-25.5 -8t-32 -0.5t-48.5 5.5q-60 8 -73.5 25.5t3.5 36.5zM2062 1268q6 12 6 21q0 8 -6.5 11.5t-23.5 -2.5t-71.5 -36t-142.5 -86t-207.5 -139t-266.5 -195 l101.5 -54l84 -48l71 -43.5l62.5 -39.5q93 161 193 311zM2056 1772q-2 2 -5.5 10t-2 15.5t10.5 11.5t30 -1q27 -5 44 -7t28.5 -7t18.5 -17.5t15 -39.5q5 -17 11.5 -35.5t20 -34t37.5 -25.5t63 -10q48 0 77.5 9t47.5 24t28.5 35t20.5 43q8 19 15 29.5t16 16.5t22.5 8.5 l36.5 6.5q56 10 63.5 -3t-20.5 -42q-27 -29 -43 -53l-29.5 -44t-28.5 -35t-40 -25t-65.5 -15.5t-103.5 -5.5q-60 0 -100.5 10.5t-66.5 27t-40.5 37.5t-24.5 42.5t-17.5 40.5t-18.5 33z"/>
    <glyph glyph-name="uni1EB0" unicode="Ằ" d="M446 1049q13 15 25.5 23.5t27.5 12t32.5 2.5t41.5 -4q44 -5 101 -13t138.5 -30t193.5 -62.5t266 -111.5q169 130 317.5 228t262.5 164.5t186 103l90 45.5q1 9 1 17.5t4.5 17t15.5 18t32 19.5l48.5 22l53 22.5t46.5 17.5t30 7t18.5 -6.5t14.5 -16.5t3 -22.5t-15 -23.5 q-40 -35 -94 -94t-115 -133l-125.5 -158l-124 -167l-111.5 -160.5t-88 -139.5l87.5 -54.5t39.5 -27.5q6 -4 7.5 -14t-0.5 -18t-8 -10.5t-15 9.5q-8 11 -40.5 32.5l-86.5 55.5q-71 -120 -118.5 -226.5t-76.5 -188.5t-41.5 -135t-13.5 -66q-1 -8 -12.5 -6.5t-25 11t-26 27.5 t-14.5 43q-5 43 63 186t216 386q-30 20 -69 41.5l-83.5 44.5l-93 47.5l-96.5 50.5q-48 -37 -95 -79l-98 -87q-488 -422 -822 -638.5t-517 -243.5q-94 -14 -151.5 -15.5t-82.5 23.5q-42 45 -18 66t121 32q21 2 37 -3t29 -12.5t23.5 -15t20.5 -8.5q70 -10 189 44.5t283 166.5 t371.5 276.5l455.5 374.5l91.5 76.5l90.5 71.5q-101 45 -198 81t-177.5 59t-138 30t-78.5 -6q-17 -12 -29 -18t-25.5 -8t-32 -0.5t-48.5 5.5q-60 8 -73.5 25.5t3.5 36.5zM2062 1268q6 12 6 21q0 8 -6.5 11.5t-23.5 -2.5t-71.5 -36t-142.5 -86t-207.5 -139t-266.5 -195 l101.5 -54l84 -48l71 -43.5l62.5 -39.5q93 161 193 311zM2056 1772q-2 2 -5.5 10t-2 15.5t10.5 11.5t30 -1q27 -5 44 -7t28.5 -7t18.5 -17.5t15 -39.5q5 -17 11.5 -35.5t20 -34t37.5 -25.5t63 -10q48 0 77.5 9t47.5 24t28.5 35t20.5 43q8 19 15 29.5t16 16.5t22.5 8.5 l36.5 6.5q56 10 63.5 -3t-20.5 -42q-27 -29 -43 -53l-29.5 -44t-28.5 -35t-40 -25t-65.5 -15.5t-103.5 -5.5q-60 0 -100.5 10.5t-66.5 27t-40.5 37.5t-24.5 42.5t-17.5 40.5t-18.5 33zM2159 1953q8 17 21 34.5t26 27.5q9 8 21.5 1.5t17.5 -22.5q7 -24 18.5 -47t25.5 -44 t30.5 -38t33.5 -29q5 -3 5 -9.5t-4.5 -12.5t-13 -9.5t-20.5 -0.5q-10 2 -29.5 12.5t-42 25.5t-44 33t-33.5 35q-6 9 -11.5 21.5t-0.5 21.5z"/>
    <glyph glyph-name="uni1EAE" unicode="Ắ" d="M446 1049q13 15 25.5 23.5t27.5 12t32.5 2.5t41.5 -4q44 -5 101 -13t138.5 -30t193.5 -62.5t266 -111.5q169 130 317.5 228t262.5 164.5t186 103l90 45.5q1 9 1 17.5t4.5 17t15.5 18t32 19.5l48.5 22l53 22.5t46.5 17.5t30 7t18.5 -6.5t14.5 -16.5t3 -22.5t-15 -23.5 q-40 -35 -94 -94t-115 -133l-125.5 -158l-124 -167l-111.5 -160.5t-88 -139.5l87.5 -54.5t39.5 -27.5q6 -4 7.5 -14t-0.5 -18t-8 -10.5t-15 9.5q-8 11 -40.5 32.5l-86.5 55.5q-71 -120 -118.5 -226.5t-76.5 -188.5t-41.5 -135t-13.5 -66q-1 -8 -12.5 -6.5t-25 11t-26 27.5 t-14.5 43q-5 43 63 186t216 386q-30 20 -69 41.5l-83.5 44.5l-93 47.5l-96.5 50.5q-48 -37 -95 -79l-98 -87q-488 -422 -822 -638.5t-517 -243.5q-94 -14 -151.5 -15.5t-82.5 23.5q-42 45 -18 66t121 32q21 2 37 -3t29 -12.5t23.5 -15t20.5 -8.5q70 -10 189 44.5t283 166.5 t371.5 276.5l455.5 374.5l91.5 76.5l90.5 71.5q-101 45 -198 81t-177.5 59t-138 30t-78.5 -6q-17 -12 -29 -18t-25.5 -8t-32 -0.5t-48.5 5.5q-60 8 -73.5 25.5t3.5 36.5zM2062 1268q6 12 6 21q0 8 -6.5 11.5t-23.5 -2.5t-71.5 -36t-142.5 -86t-207.5 -139t-266.5 -195 l101.5 -54l84 -48l71 -43.5l62.5 -39.5q93 161 193 311zM2056 1772q-2 2 -5.5 10t-2 15.5t10.5 11.5t30 -1q27 -5 44 -7t28.5 -7t18.5 -17.5t15 -39.5q5 -17 11.5 -35.5t20 -34t37.5 -25.5t63 -10q48 0 77.5 9t47.5 24t28.5 35t20.5 43q8 19 15 29.5t16 16.5t22.5 8.5 l36.5 6.5q56 10 63.5 -3t-20.5 -42q-27 -29 -43 -53l-29.5 -44t-28.5 -35t-40 -25t-65.5 -15.5t-103.5 -5.5q-60 0 -100.5 10.5t-66.5 27t-40.5 37.5t-24.5 42.5t-17.5 40.5t-18.5 33zM2553 1953q5 -9 -0.5 -21.5t-11.5 -21.5q-12 -17 -33.5 -35t-44 -33t-42 -25.5 t-29.5 -12.5q-12 -3 -20.5 0.5t-13 9.5t-4.5 12.5t5 9.5q17 12 33.5 29t30.5 38t25.5 44t18.5 47q5 16 17.5 22.5t21.5 -1.5q13 -10 26 -27.5t21 -34.5z"/>
    <glyph glyph-name="uni1EB4" unicode="Ẵ" d="M446 1049q13 15 25.5 23.5t27.5 12t32.5 2.5t41.5 -4q44 -5 101 -13t138.5 -30t193.5 -62.5t266 -111.5q169 130 317.5 228t262.5 164.5t186 103l90 45.5q1 9 1 17.5t4.5 17t15.5 18t32 19.5l48.5 22l53 22.5t46.5 17.5t30 7t18.5 -6.5t14.5 -16.5t3 -22.5t-15 -23.5 q-40 -35 -94 -94t-115 -133l-125.5 -158l-124 -167l-111.5 -160.5t-88 -139.5l87.5 -54.5t39.5 -27.5q6 -4 7.5 -14t-0.5 -18t-8 -10.5t-15 9.5q-8 11 -40.5 32.5l-86.5 55.5q-71 -120 -118.5 -226.5t-76.5 -188.5t-41.5 -135t-13.5 -66q-1 -8 -12.5 -6.5t-25 11t-26 27.5 t-14.5 43q-5 43 63 186t216 386q-30 20 -69 41.5l-83.5 44.5l-93 47.5l-96.5 50.5q-48 -37 -95 -79l-98 -87q-488 -422 -822 -638.5t-517 -243.5q-94 -14 -151.5 -15.5t-82.5 23.5q-42 45 -18 66t121 32q21 2 37 -3t29 -12.5t23.5 -15t20.5 -8.5q70 -10 189 44.5t283 166.5 t371.5 276.5l455.5 374.5l91.5 76.5l90.5 71.5q-101 45 -198 81t-177.5 59t-138 30t-78.5 -6q-17 -12 -29 -18t-25.5 -8t-32 -0.5t-48.5 5.5q-60 8 -73.5 25.5t3.5 36.5zM2062 1268q6 12 6 21q0 8 -6.5 11.5t-23.5 -2.5t-71.5 -36t-142.5 -86t-207.5 -139t-266.5 -195 l101.5 -54l84 -48l71 -43.5l62.5 -39.5q93 161 193 311zM2056 1772q-2 2 -5.5 10t-2 15.5t10.5 11.5t30 -1q27 -5 44 -7t28.5 -7t18.5 -17.5t15 -39.5q5 -17 11.5 -35.5t20 -34t37.5 -25.5t63 -10q48 0 77.5 9t47.5 24t28.5 35t20.5 43q8 19 15 29.5t16 16.5t22.5 8.5 l36.5 6.5q56 10 63.5 -3t-20.5 -42q-27 -29 -43 -53l-29.5 -44t-28.5 -35t-40 -25t-65.5 -15.5t-103.5 -5.5q-60 0 -100.5 10.5t-66.5 27t-40.5 37.5t-24.5 42.5t-17.5 40.5t-18.5 33zM2740 1959q-2 -3 -13 -18t-31 -31t-49 -27.5t-65 -7.5q-39 4 -73.5 14t-64.5 21l-56 20 t-47 12q-18 2 -33 -1.5t-28.5 -10.5t-26.5 -15.5t-25 -15.5q-17 -9 -24 0.5t6 26.5q5 7 18 22t32.5 29t44.5 23.5t54 7.5q36 -3 62 -10.5t50 -16.5l49 -18.5t60 -16.5q35 -8 72 -2t63 35q6 6 12.5 6.5t11.5 -2.5t6 -9.5t-5 -14.5z"/>
    <glyph glyph-name="uni1EB2" unicode="Ẳ" d="M446 1049q13 15 25.5 23.5t27.5 12t32.5 2.5t41.5 -4q44 -5 101 -13t138.5 -30t193.5 -62.5t266 -111.5q169 130 317.5 228t262.5 164.5t186 103l90 45.5q1 9 1 17.5t4.5 17t15.5 18t32 19.5l48.5 22l53 22.5t46.5 17.5t30 7t18.5 -6.5t14.5 -16.5t3 -22.5t-15 -23.5 q-40 -35 -94 -94t-115 -133l-125.5 -158l-124 -167l-111.5 -160.5t-88 -139.5l87.5 -54.5t39.5 -27.5q6 -4 7.5 -14t-0.5 -18t-8 -10.5t-15 9.5q-8 11 -40.5 32.5l-86.5 55.5q-71 -120 -118.5 -226.5t-76.5 -188.5t-41.5 -135t-13.5 -66q-1 -8 -12.5 -6.5t-25 11t-26 27.5 t-14.5 43q-5 43 63 186t216 386q-30 20 -69 41.5l-83.5 44.5l-93 47.5l-96.5 50.5q-48 -37 -95 -79l-98 -87q-488 -422 -822 -638.5t-517 -243.5q-94 -14 -151.5 -15.5t-82.5 23.5q-42 45 -18 66t121 32q21 2 37 -3t29 -12.5t23.5 -15t20.5 -8.5q70 -10 189 44.5t283 166.5 t371.5 276.5l455.5 374.5l91.5 76.5l90.5 71.5q-101 45 -198 81t-177.5 59t-138 30t-78.5 -6q-17 -12 -29 -18t-25.5 -8t-32 -0.5t-48.5 5.5q-60 8 -73.5 25.5t3.5 36.5zM2062 1268q6 12 6 21q0 8 -6.5 11.5t-23.5 -2.5t-71.5 -36t-142.5 -86t-207.5 -139t-266.5 -195 l101.5 -54l84 -48l71 -43.5l62.5 -39.5q93 161 193 311zM2056 1772q11 -14 18.5 -33t17.5 -40.5t24.5 -42.5t40.5 -37.5t66.5 -27t100.5 -10.5q63 0 103.5 5.5t65.5 15.5t40 25t28.5 35l29.5 44t43 53q28 29 20.5 42t-63.5 3l-36.5 -6.5t-22.5 -8.5t-16 -16.5t-15 -29.5 q-10 -23 -20.5 -43t-28.5 -35t-47.5 -24t-77.5 -9q-39 0 -63 10t-37.5 25.5t-20 34t-11.5 35.5q-8 27 -15 39.5t-18.5 17.5t-28.5 7t-44 7q-21 5 -30 1t-10.5 -11.5t2 -15.5t5.5 -10zM2367 1754q4 -20 -5 -22t-16 14q-12 35 -0.5 76t97 72t91.5 93t-66 86q-56 18 -66 -14 q-2 -6 24 -19.5t8 -37.5q-15 -20 -42 -11q-56 18 -40 66q15 45 58.5 66.5t93.5 5.5q137 -46 92 -183q-18 -55 -125 -81.5t-104 -110.5z"/>
    <glyph glyph-name="uni1EB6" unicode="Ặ" d="M446 1049q13 15 25.5 23.5t27.5 12t32.5 2.5t41.5 -4q44 -5 101 -13t138.5 -30t193.5 -62.5t266 -111.5q169 130 317.5 228t262.5 164.5t186 103l90 45.5q1 9 1 17.5t4.5 17t15.5 18t32 19.5l48.5 22l53 22.5t46.5 17.5t30 7t18.5 -6.5t14.5 -16.5t3 -22.5t-15 -23.5 q-40 -35 -94 -94t-115 -133l-125.5 -158l-124 -167l-111.5 -160.5t-88 -139.5l87.5 -54.5t39.5 -27.5q6 -4 7.5 -14t-0.5 -18t-8 -10.5t-15 9.5q-8 11 -40.5 32.5l-86.5 55.5q-71 -120 -118.5 -226.5t-76.5 -188.5t-41.5 -135t-13.5 -66q-1 -8 -12.5 -6.5t-25 11t-26 27.5 t-14.5 43q-5 43 63 186t216 386q-30 20 -69 41.5l-83.5 44.5l-93 47.5l-96.5 50.5q-48 -37 -95 -79l-98 -87q-488 -422 -822 -638.5t-517 -243.5q-94 -14 -151.5 -15.5t-82.5 23.5q-42 45 -18 66t121 32q21 2 37 -3t29 -12.5t23.5 -15t20.5 -8.5q70 -10 189 44.5t283 166.5 t371.5 276.5l455.5 374.5l91.5 76.5l90.5 71.5q-101 45 -198 81t-177.5 59t-138 30t-78.5 -6q-17 -12 -29 -18t-25.5 -8t-32 -0.5t-48.5 5.5q-60 8 -73.5 25.5t3.5 36.5zM2062 1268q6 12 6 21q0 8 -6.5 11.5t-23.5 -2.5t-71.5 -36t-142.5 -86t-207.5 -139t-266.5 -195 l101.5 -54l84 -48l71 -43.5l62.5 -39.5q93 161 193 311zM2056 1772q-2 2 -5.5 10t-2 15.5t10.5 11.5t30 -1q27 -5 44 -7t28.5 -7t18.5 -17.5t15 -39.5q5 -17 11.5 -35.5t20 -34t37.5 -25.5t63 -10q48 0 77.5 9t47.5 24t28.5 35t20.5 43q8 19 15 29.5t16 16.5t22.5 8.5 l36.5 6.5q56 10 63.5 -3t-20.5 -42q-27 -29 -43 -53l-29.5 -44t-28.5 -35t-40 -25t-65.5 -15.5t-103.5 -5.5q-60 0 -100.5 10.5t-66.5 27t-40.5 37.5t-24.5 42.5t-17.5 40.5t-18.5 33zM662 -142q17 -3 30 -12t20.5 -21t9.5 -25.5t-2 -25.5q-16 -45 -43.5 -60.5t-59.5 4.5 q-20 12 -25 20.5t-1 19t15 24t23 35.5q3 7 2.5 15t1 14.5t7.5 10t22 1.5z"/>
    <glyph glyph-name="Aring" unicode="Å" d="M446 1049q13 15 25.5 23.5t27.5 12t32.5 2.5t41.5 -4q44 -5 101 -13t138.5 -30t193.5 -62.5t266 -111.5q169 130 317.5 228t262.5 164.5t186 103l90 45.5q1 9 1 17.5t4.5 17t15.5 18t32 19.5l48.5 22l53 22.5t46.5 17.5t30 7t18.5 -6.5t14.5 -16.5t3 -22.5t-15 -23.5 q-40 -35 -94 -94t-115 -133l-125.5 -158l-124 -167l-111.5 -160.5t-88 -139.5l87.5 -54.5t39.5 -27.5q6 -4 7.5 -14t-0.5 -18t-8 -10.5t-15 9.5q-8 11 -40.5 32.5l-86.5 55.5q-71 -120 -118.5 -226.5t-76.5 -188.5t-41.5 -135t-13.5 -66q-1 -8 -12.5 -6.5t-25 11t-26 27.5 t-14.5 43q-5 43 63 186t216 386q-30 20 -69 41.5l-83.5 44.5l-93 47.5l-96.5 50.5q-48 -37 -95 -79l-98 -87q-488 -422 -822 -638.5t-517 -243.5q-94 -14 -151.5 -15.5t-82.5 23.5q-42 45 -18 66t121 32q21 2 37 -3t29 -12.5t23.5 -15t20.5 -8.5q70 -10 189 44.5t283 166.5 t371.5 276.5l455.5 374.5l91.5 76.5l90.5 71.5q-101 45 -198 81t-177.5 59t-138 30t-78.5 -6q-17 -12 -29 -18t-25.5 -8t-32 -0.5t-48.5 5.5q-60 8 -73.5 25.5t3.5 36.5zM2062 1268q6 12 6 21q0 8 -6.5 11.5t-23.5 -2.5t-71.5 -36t-142.5 -86t-207.5 -139t-266.5 -195 l101.5 -54l84 -48l71 -43.5l62.5 -39.5q93 161 193 311zM2228 1788q14 23 35 40t45.5 27t51 11t50.5 -8t39.5 -27t22 -40t4 -46.5t-15.5 -48.5q-14 -25 -35.5 -42.5t-46 -27.5t-51 -10.5t-50.5 8.5q-24 10 -39.5 27.5t-22.5 39.5t-4 47t17 50zM2267 1731q0 -41 21 -69 t53 -28q16 0 30 9.5t24.5 25t16.5 35.5t5 41q0 20 -6.5 37.5t-17.5 30t-25 20t-29 6.5q-15 -2 -28.5 -11t-23 -24t-15 -33.5t-5.5 -39.5z"/>
    <glyph glyph-name="uni1EA2" unicode="Ả" d="M446 1049q-17 -19 -3.5 -36.5t73.5 -25.5q30 -4 48.5 -5.5t32 0.5t25.5 8t29 18q21 13 78.5 6t138 -30t177.5 -59t198 -81l-126 -98.5l-125 -104l-127.5 -108l-131.5 -109.5l-334 -260.5t-275 -189.5t-213 -112t-149 -28q-10 1 -20.5 8.5t-23.5 15t-29 12.5t-37 3 q-97 -11 -121 -32t18 -66q25 -25 82.5 -23.5t151.5 15.5q148 22 394 167.5t593 421.5l134.5 112l133.5 115.5l136 116.5l141 115l96.5 -50.5l93 -47.5l83.5 -44.5t69 -41.5q-148 -243 -216 -386t-63 -186q2 -25 14.5 -43t26 -27.5t25 -11t12.5 6.5q1 13 13.5 66t41.5 135 t76.5 188.5t118.5 226.5l86.5 -55.5t40.5 -32.5q9 -12 15 -9.5t8 10.5t0.5 18t-7.5 14q-9 8 -39.5 27.5l-87.5 54.5q36 62 88 139.5l111.5 160.5l124 167l125.5 158t115.5 133t93.5 94q13 11 15 23.5t-3 22.5t-14.5 16.5t-18.5 6.5t-28 -4t-43 -10.5t-49.5 -15.5t-47.5 -19 q-21 -10 -33.5 -22t-18.5 -25t-8 -24.5t-3 -20.5l-90 -45.5t-186 -103t-262.5 -164.5t-317.5 -228q-154 71 -266 111.5t-193.5 62.5t-138.5 30t-101 13q-24 3 -41.5 4t-32.5 -2.5t-27.5 -12t-25.5 -23.5zM2062 1268l-200 -300t-193 -311l-62.5 39.5l-71 43.5l-84 48 l-101.5 54q147 112 266.5 195t207.5 139t142.5 86t71.5 36t23.5 2.5t6.5 -11.5q0 -9 -6 -21zM2475 1500q4 -20 -5 -22t-16 14q-12 35 -0.5 76t97 72t91.5 93t-66 86q-56 18 -66 -14q-2 -6 24 -19.5t8 -37.5q-15 -20 -42 -11q-56 18 -40 66q15 45 58.5 66.5t93.5 5.5 q137 -46 92 -183q-18 -55 -125 -81.5t-104 -110.5z"/>
    <glyph glyph-name="uni1EA0" unicode="Ạ" d="M446 1049q13 15 25.5 23.5t27.5 12t32.5 2.5t41.5 -4q44 -5 101 -13t138.5 -30t193.5 -62.5t266 -111.5q169 130 317.5 228t262.5 164.5t186 103l90 45.5q1 9 3 20.5t8 24.5t18.5 25t33.5 22q22 10 47.5 19t49.5 15.5t43 10.5t28 4t18.5 -6.5t14.5 -16.5t3 -22.5 t-15 -23.5q-39 -35 -93.5 -94t-115.5 -133l-125.5 -158l-124 -167l-111.5 -160.5t-88 -139.5l87.5 -54.5t39.5 -27.5q6 -4 7.5 -14t-0.5 -18t-8 -10.5t-15 9.5q-8 11 -40.5 32.5l-86.5 55.5q-71 -120 -118.5 -226.5t-76.5 -188.5t-41.5 -135t-13.5 -66q-1 -8 -12.5 -6.5 t-25 11t-26 27.5t-14.5 43q-5 43 63 186t216 386q-30 20 -69 41.5l-83.5 44.5l-93 47.5l-96.5 50.5l-141 -115l-136 -116.5l-133.5 -115.5l-134.5 -112q-347 -276 -593 -421.5t-394 -167.5q-94 -14 -151.5 -15.5t-82.5 23.5q-42 45 -18 66t121 32q21 2 37 -3t29 -12.5 t23.5 -15t20.5 -8.5q58 -8 149 28t213 112t275 189.5l334 260.5l131.5 109.5l127.5 108l125 104l126 98.5q-101 45 -198 81t-177.5 59t-138 30t-78.5 -6q-17 -12 -29 -18t-25.5 -8t-32 -0.5t-48.5 5.5q-60 8 -73.5 25.5t3.5 36.5zM2062 1268q6 12 6 21q0 8 -6.5 11.5 t-23.5 -2.5t-71.5 -36t-142.5 -86t-207.5 -139t-266.5 -195l101.5 -54l84 -48l71 -43.5l62.5 -39.5q93 161 193 311zM646 -142q17 -3 30 -12t20.5 -21t9.5 -25.5t-2 -25.5q-16 -45 -43.5 -60.5t-59.5 4.5q-20 12 -25 20.5t-1 19t15 24t23 35.5q3 7 2.5 15t1 14.5t7.5 10 t22 1.5z"/>
    <glyph glyph-name="AE" unicode="Æ" horiz-adv-x="1845" d="M848 0v354h-522l-185 -354h-121l773 1458h938v-98h-775v-582h660v-98h-660v-582h775v-98h-883zM848 1360l-475 -907h475v907z"/>
    <glyph glyph-name="AEacute" unicode="Ǽ" horiz-adv-x="2028" d="M848 0v354h-522l-185 -354h-121l773 1458h938v-98h-775v-582h660v-98h-660v-582h775v-98h-883zM848 1360l-475 -907h475v907zM2747 1853q5 -9 -0.5 -21.5t-11.5 -21.5q-12 -17 -33.5 -35t-44 -33t-42 -25.5t-29.5 -12.5q-12 -3 -20.5 0.5t-13 9.5t-4.5 12.5t5 9.5 q17 12 33.5 29t30.5 38t25.5 44t18.5 47q5 16 17.5 22.5t21.5 -1.5q13 -10 26 -27.5t21 -34.5z"/>
    <glyph glyph-name="uni01E2" unicode="Ǣ" horiz-adv-x="2028" d="M848 0v354h-522l-185 -354h-121l773 1458h938v-98h-775v-582h660v-98h-660v-582h775v-98h-883zM848 1360l-475 -907h475v907zM1088 1634v94h606v-94h-606z"/>
    <glyph glyph-name="Ccedilla" unicode="Ç" horiz-adv-x="1231" d="M1384 1049q20 23 42 58t40 76t29 85.5t8 86t-22.5 76t-61.5 56.5q-40 20 -109 17.5t-157.5 -28.5t-191.5 -75.5t-211 -124t-215.5 -173t-204.5 -222.5q-110 -140 -164.5 -272.5t-65 -243t17 -192t81.5 -120.5q57 -41 142 -56t180 -10.5t190.5 26t173.5 53.5q41 17 89 39 l97.5 47l97.5 51.5t90 52t75 48t52 40.5q9 8 12.5 14.5t5.5 12.5t5.5 11.5t11.5 12.5q47 44 54 15q5 -22 -19 -46.5t-74 -62.5q-32 -24 -84.5 -59t-117.5 -73.5t-137 -75.5t-142 -66q-53 -22 -117 -41t-133 -31q-6 -9 -12.5 -17.5t-9.5 -16t0 -14t16 -13.5q15 -8 37 -8 t44.5 3t42.5 7t32 4q13 0 24.5 -7t17.5 -20t5.5 -32t-10.5 -42q-11 -23 -26.5 -46t-38.5 -44.5t-54.5 -39.5t-73.5 -31q-43 -13 -84 -14.5t-75.5 4.5t-61 18t-41.5 26q-7 6 -7.5 16t4 20t13 18t19.5 10t18 -4.5t16 -16.5t23 -20t39 -14q24 -5 55.5 -6.5t63 3t60.5 16 t50 34.5q22 22 32 45.5t7.5 41.5t-18.5 27.5t-47 3.5q-30 -5 -63.5 -13.5t-61 -11t-43.5 4.5t-11 33q7 29 6 48.5t1 33.5q-58 -6 -114 -5.5t-107 8t-96 23.5t-81 41q-49 35 -82.5 91.5t-48 128t-9 157t34.5 179.5t83 194.5t137 202.5q102 126 215.5 223t228 167.5t225.5 115 t208.5 65t176.5 18t130 -25.5q56 -26 80.5 -69t28 -93.5t-10 -104t-33 -100.5t-40 -83t-31.5 -52q-34 -48 -80.5 -92.5t-106.5 -73.5q-30 -15 -52 -19t-40 -1.5t-34 10.5t-34 18q-13 7 -6 21t25.5 30t45.5 33t55 30.5t53 21t40 6.5q23 -3 38 3.5t26 15.5q11 11 20 24z"/>
    <glyph glyph-name="Dcroat" unicode="Đ" horiz-adv-x="2064" d="M1989 518q-63 -143 -147.5 -265t-183 -222.5t-206 -180t-216 -138t-214.5 -96t-200.5 -55t-174 -14t-135.5 26.5q-68 29 -99 72t-32 95t25.5 111t72.5 119.5t108 121t133.5 115t148.5 101t153 80.5q114 51 232.5 84t234 52.5t224.5 26t206 3.5q55 141 78.5 268.5t15 237 t-50 197t-118 147t-188.5 89t-261 22.5q-128 -6 -251 -22.5t-235 -39t-208.5 -48.5t-171.5 -51.5t-125 -47.5t-68 -37q-27 -23 -38.5 -39.5t-23.5 -31.5t-33.5 -29t-68.5 -31l-79 -28t-48.5 -9t-17 21t15.5 63q11 31 31.5 48t46.5 30q17 8 65.5 29t127.5 49t187 60t244 60 t298 50t350 30q244 11 406.5 -54.5t240 -195.5t69 -318.5t-105.5 -422.5q40 -5 81 -12t68 -15q50 -12 78 -23.5t33 -25.5t-11 -18t-48 4q-11 2 -16.5 6t-10 8.5t-10 9.5t-17.5 9q-13 4 -32 8.5t-40.5 7.5t-44.5 5t-44 3zM1030 358q-103 -48 -201 -114t-179 -139.5 t-138.5 -149.5t-79.5 -144t-2 -123t94 -87q52 -22 127 -23t164.5 19t189.5 59.5t203 98.5t204 137t192.5 174.5t169 210.5t133.5 245q-98 2 -207.5 -5t-223 -26t-227.5 -51.5t-219 -81.5zM1395 1450q15 -23 13.5 -51.5t-30.5 -71.5q-15 -22 -35 -42.5t-40 -36t-39 -25 t-33 -9.5q-35 0 -82 -33.5t-103.5 -92t-120.5 -138l-132 -172.5q60 -12 105.5 -20t88.5 -13q63 -6 119.5 -1.5t93.5 20.5q15 6 20 12t7 11.5t3 11t7 10.5q25 22 47 22q7 0 10.5 -5t4.5 -11t-1.5 -12.5t-7.5 -9.5q-18 -14 -38 -27t-42 -21q-44 -17 -95 -23.5t-128 -0.5 q-27 2 -46 4.5t-40.5 6l-50 8.5t-74.5 12h-2q-67 -93 -127 -196.5t-111 -205.5t-91.5 -195.5t-67.5 -166.5q-8 -21 -24.5 -19t-31 18.5t-22 41.5t3.5 51q28 64 70 143.5t95.5 167.5t117 181.5l133.5 187.5q-50 6 -87.5 9t-45.5 3q-26 0 -48 -7.5t-40 -29.5 q-20 -21 -54.5 -28t-68.5 -9q-34 -3 -37.5 9.5t8.5 46.5q9 23 38.5 35.5t65.5 18t72 5.5t58 -2l38 -3.5t35 -4t38.5 -6t47.5 -9.5l156 197.5l157 181l146.5 154t124.5 115.5q9 7 18.5 13.5t19 10t18.5 2t16 -11.5z"/>
    <glyph glyph-name="Egrave" unicode="È" horiz-adv-x="1729" d="M166 -358q36 -36 113 -54t187 -6t249.5 59t300.5 140q95 54 172.5 110t137.5 108.5t103.5 99.5t71.5 85q6 9 7.5 22t3 29.5t6 35.5t16.5 38q29 47 57 55t43 -30q6 -16 -10 -46.5t-47 -70.5q-38 -51 -87.5 -109t-114 -119.5t-147.5 -124.5t-188 -122q-173 -98 -320.5 -149 t-265.5 -63.5t-204 11t-137 74.5q-34 35 -56 88t-26 118t12 139.5t57.5 152t110 155.5t170.5 150q109 78 221.5 135.5t211.5 98.5t177.5 67l120.5 41q8 2 11 5.5t1.5 6.5t-6.5 4.5t-12 -0.5q-39 -12 -98 -19.5t-124 -5t-128.5 15.5t-110 41.5t-69 74.5t-5.5 114 q20 80 76.5 146t139.5 119.5t187 95.5t218.5 74.5t235 56.5t235.5 41q28 5 54.5 3.5t54.5 -20.5q38 -26 49 -42t-1 -27t-45 -21l-81 -24t-73.5 -14.5t-44 5t-38 12t-53.5 7.5q-64 1 -148 -16.5t-174 -48.5t-178.5 -73.5t-162.5 -91t-125.5 -101t-67.5 -103.5q-17 -54 4 -90 t64.5 -57.5t102 -31t117.5 -10t111 6.5t82 18q65 23 84.5 13.5t11.5 -52.5q-4 -21 -7 -35t-13.5 -25t-33 -22t-65.5 -26q-24 -9 -88 -29t-151 -56.5t-190.5 -91t-206.5 -131.5q-81 -60 -143.5 -127t-105 -135.5t-66 -135t-28 -126t10 -108.5t47.5 -82zM1358 1733 q8 17 21.5 34.5t25.5 26.5q9 8 21.5 1.5t17.5 -21.5q14 -48 44 -91.5t64 -66.5q5 -3 5 -9.5t-4 -13t-12.5 -10t-20.5 -0.5q-10 2 -30 13t-42.5 26t-44 33t-33.5 35q-6 9 -11.5 21t-0.5 22z"/>
    <glyph glyph-name="Eacute" unicode="É" horiz-adv-x="1729" d="M1626 1712q5 -9 -0.5 -21.5t-11.5 -21.5q-12 -17 -33.5 -35t-44 -33t-42.5 -25.5t-30 -12.5q-12 -3 -20.5 0.5t-12.5 9.5t-4 12.5t5 9.5q17 12 33.5 29t30.5 38t25.5 44t18.5 47q5 16 17.5 22.5t21.5 -1.5q12 -10 25.5 -27.5t21.5 -34.5zM166 -358q36 -36 113 -54t187 -6 t249.5 59t300.5 140q95 54 172.5 110t137.5 108.5t103.5 99.5t71.5 85q6 9 7.5 22t3 29.5t6 35.5t16.5 38q29 47 57 55t43 -30q6 -16 -10 -46.5t-47 -70.5q-38 -51 -87.5 -109t-114 -119.5t-147.5 -124.5t-188 -122q-173 -98 -320.5 -149t-265.5 -63.5t-204 11t-137 74.5 q-34 35 -56 88t-26 118t12 139.5t57.5 152t110 155.5t170.5 150q109 78 221.5 135.5t211.5 98.5t177.5 67l120.5 41q8 2 11 5.5t1.5 6.5t-6.5 4.5t-12 -0.5q-39 -12 -98 -19.5t-124 -5t-128.5 15.5t-110 41.5t-69 74.5t-5.5 114q20 80 76.5 146t139.5 119.5t187 95.5 t218.5 74.5t235 56.5t235.5 41q28 5 54.5 3.5t54.5 -20.5q38 -26 49 -42t-1 -27t-45 -21l-81 -24t-73.5 -14.5t-44 5t-38 12t-53.5 7.5q-64 1 -148 -16.5t-174 -48.5t-178.5 -73.5t-162.5 -91t-125.5 -101t-67.5 -103.5q-17 -54 4 -90t64.5 -57.5t102 -31t117.5 -10t111 6.5 t82 18q65 23 84.5 13.5t11.5 -52.5q-4 -21 -7 -35t-13.5 -25t-33 -22t-65.5 -26q-24 -9 -88 -29t-151 -56.5t-190.5 -91t-206.5 -131.5q-81 -60 -143.5 -127t-105 -135.5t-66 -135t-28 -126t10 -108.5t47.5 -82z"/>
    <glyph glyph-name="uni1EC0" unicode="Ề" horiz-adv-x="1729" d="M166 -358q36 -36 113 -54t187 -6t249.5 59t300.5 140q95 54 172.5 110t137.5 108.5t103.5 99.5t71.5 85q6 9 7.5 22t3 29.5t6 35.5t16.5 38q29 47 57 55t43 -30q6 -16 -10 -46.5t-47 -70.5q-38 -51 -87.5 -109t-114 -119.5t-147.5 -124.5t-188 -122q-173 -98 -320.5 -149 t-265.5 -63.5t-204 11t-137 74.5q-34 35 -56 88t-26 118t12 139.5t57.5 152t110 155.5t170.5 150q109 78 221.5 135.5t211.5 98.5t177.5 67l120.5 41q8 2 11 5.5t1.5 6.5t-6.5 4.5t-12 -0.5q-39 -12 -98 -19.5t-124 -5t-128.5 15.5t-110 41.5t-69 74.5t-5.5 114 q20 80 76.5 146t139.5 119.5t187 95.5t218.5 74.5t235 56.5t235.5 41q28 5 54.5 3.5t54.5 -20.5q38 -26 49 -42t-1 -27t-45 -21l-81 -24t-73.5 -14.5t-44 5t-38 12t-53.5 7.5q-64 1 -148 -16.5t-174 -48.5t-178.5 -73.5t-162.5 -91t-125.5 -101t-67.5 -103.5q-17 -54 4 -90 t64.5 -57.5t102 -31t117.5 -10t111 6.5t82 18q65 23 84.5 13.5t11.5 -52.5q-4 -21 -7 -35t-13.5 -25t-33 -22t-65.5 -26q-24 -9 -88 -29t-151 -56.5t-190.5 -91t-206.5 -131.5q-81 -60 -143.5 -127t-105 -135.5t-66 -135t-28 -126t10 -108.5t47.5 -82zM1671 1823 q31 0 67 -25.5t68.5 -61t58 -72t36.5 -58.5q6 -12 2.5 -24t-12.5 -18.5t-20.5 -6.5t-21.5 12l-23 26l-36.5 40l-38.5 41l-29 30q-31 31 -60.5 29.5t-55.5 -29.5l-29 -32.5l-32.5 -37t-33 -35t-30.5 -26.5q-15 -11 -27 -12t-19 5t-8 18.5t7 27.5q7 14 21.5 35t34 44.5 t42.5 46.5t47 41.5t47.5 30t44.5 11.5zM1653 2040q8 17 21 34.5t26 27.5q9 8 21.5 1.5t17.5 -22.5q7 -24 18.5 -47t25.5 -44t30.5 -38t33.5 -29q5 -3 5 -9.5t-4.5 -12.5t-13 -9.5t-20.5 -0.5q-10 2 -29.5 12.5t-42 25.5t-44 33t-33.5 35q-6 9 -11.5 21.5t-0.5 21.5z"/>
    <glyph glyph-name="uni1EC4" unicode="Ễ" horiz-adv-x="1729" d="M166 -358q36 -36 113 -54t187 -6t249.5 59t300.5 140q95 54 172.5 110t137.5 108.5t103.5 99.5t71.5 85q6 9 7.5 22t3 29.5t6 35.5t16.5 38q29 47 57 55t43 -30q6 -16 -10 -46.5t-47 -70.5q-38 -51 -87.5 -109t-114 -119.5t-147.5 -124.5t-188 -122q-173 -98 -320.5 -149 t-265.5 -63.5t-204 11t-137 74.5q-34 35 -56 88t-26 118t12 139.5t57.5 152t110 155.5t170.5 150q109 78 221.5 135.5t211.5 98.5t177.5 67l120.5 41q8 2 11 5.5t1.5 6.5t-6.5 4.5t-12 -0.5q-39 -12 -98 -19.5t-124 -5t-128.5 15.5t-110 41.5t-69 74.5t-5.5 114 q20 80 76.5 146t139.5 119.5t187 95.5t218.5 74.5t235 56.5t235.5 41q28 5 54.5 3.5t54.5 -20.5q38 -26 49 -42t-1 -27t-45 -21l-81 -24t-73.5 -14.5t-44 5t-38 12t-53.5 7.5q-64 1 -148 -16.5t-174 -48.5t-178.5 -73.5t-162.5 -91t-125.5 -101t-67.5 -103.5q-17 -54 4 -90 t64.5 -57.5t102 -31t117.5 -10t111 6.5t82 18q65 23 84.5 13.5t11.5 -52.5q-4 -21 -7 -35t-13.5 -25t-33 -22t-65.5 -26q-24 -9 -88 -29t-151 -56.5t-190.5 -91t-206.5 -131.5q-81 -60 -143.5 -127t-105 -135.5t-66 -135t-28 -126t10 -108.5t47.5 -82zM1671 1823 q31 0 67 -25.5t68.5 -61t58 -72t36.5 -58.5q6 -12 2.5 -24t-12.5 -18.5t-20.5 -6.5t-21.5 12l-23 26l-36.5 40l-38.5 41l-29 30q-31 31 -60.5 29.5t-55.5 -29.5l-29 -32.5l-32.5 -37t-33 -35t-30.5 -26.5q-15 -11 -27 -12t-19 5t-8 18.5t7 27.5q7 14 21.5 35t34 44.5 t42.5 46.5t47 41.5t47.5 30t44.5 11.5zM2060 1948q-2 -3 -13 -18t-31 -31t-49 -27.5t-65 -7.5q-39 4 -73.5 14t-64.5 21l-56 20t-47 12q-18 2 -33 -1.5t-28.5 -10.5t-26.5 -15.5t-25 -15.5q-17 -9 -24 0.5t6 26.5q5 7 18 22t32.5 29t44.5 23.5t54 7.5q36 -3 62 -10.5 t50 -16.5l49 -18.5t60 -16.5q35 -8 72 -2t63 35q6 6 12.5 6.5t11.5 -2.5t6 -9.5t-5 -14.5z"/>
    <glyph glyph-name="uni1EC2" unicode="Ể" horiz-adv-x="1729" d="M166 -358q-33 33 -47.5 82t-10 108.5t28 126t66 135t105 135.5t143.5 127q103 77 206.5 131.5t190.5 91t151 56.5t88 29q43 15 65.5 26t33 22t13.5 25t7 35q8 43 -11.5 52.5t-84.5 -13.5q-30 -11 -82 -18t-111 -6.5t-117.5 10t-102 31t-64.5 57.5t-4 90q16 51 67.5 103.5 t125.5 101t162.5 91t178.5 73.5t174 48.5t148 16.5q34 -1 53.5 -7.5t38 -12t44 -5t73.5 14.5l81 24t45 21t1 27t-49 42q-28 19 -54.5 20.5t-54.5 -3.5q-115 -17 -235.5 -41t-235 -56.5t-218.5 -74.5t-187 -95.5t-139.5 -119.5t-76.5 -146q-17 -68 5.5 -114t69 -74.5 t110 -41.5t128.5 -15.5t124 5t98 19.5q7 2 12 0.5t6.5 -4.5t-1.5 -6.5t-11 -5.5l-120.5 -41t-177.5 -67t-211.5 -98.5t-221.5 -135.5q-102 -72 -170.5 -150t-110 -155.5t-57.5 -152t-12 -139.5t26 -118t56 -88q51 -51 137 -74.5t204 -11t265.5 63.5t320.5 149 q105 59 188 122t147.5 124.5t114 119.5t87.5 109q31 40 47 70.5t10 46.5q-15 38 -43 30t-57 -55q-12 -19 -16.5 -38t-6 -35.5t-3 -29.5t-7.5 -22q-28 -38 -71.5 -85t-103.5 -99.5t-137.5 -108.5t-172.5 -110q-161 -93 -300.5 -140t-249.5 -59t-187 6t-113 54zM1671 1823 q-21 0 -44.5 -11.5t-47.5 -30t-47 -41.5t-42.5 -46.5t-34 -44.5t-21.5 -35q-8 -15 -7 -27.5t8 -18.5t19 -5t27 12q14 10 30.5 26.5t33 35l32.5 37l29 32.5q26 28 55.5 29.5t60.5 -29.5l29 -30l38.5 -41l36.5 -40l23 -26q10 -12 21.5 -12t20.5 6.5t12.5 18.5t-2.5 24 q-11 22 -36.5 58.5t-58 72t-68.5 61t-67 25.5zM1965 1683q4 -20 -5 -22t-16 14q-12 35 -0.5 76t97 72t91.5 93t-66 86q-56 18 -66 -14q-2 -6 24 -19.5t8 -37.5q-15 -20 -42 -11q-56 18 -40 66q15 45 58.5 66.5t93.5 5.5q137 -46 92 -183q-18 -55 -125 -81.5t-104 -110.5z "/>
    <glyph glyph-name="uni1EC6" unicode="Ệ" horiz-adv-x="1729" d="M103 -142q17 -3 30 -12t20.5 -21t9.5 -25.5t-2 -25.5q-16 -45 -43.5 -60.5t-59.5 4.5q-20 12 -25 20.5t-1 19t15 24t23 35.5q3 7 2.5 15t1 14.5t7.5 10t22 1.5zM375 -358q36 -36 113 -54t187 -6t249.5 59t300.5 140q95 54 172.5 110t137.5 108.5t103.5 99.5t71.5 85 q6 9 7.5 22t3 29.5t6 35.5t16.5 38q29 47 57 55t43 -30q6 -16 -10 -46.5t-47 -70.5q-38 -51 -87.5 -109t-114 -119.5t-147.5 -124.5t-188 -122q-173 -98 -320.5 -149t-265.5 -63.5t-204 11t-137 74.5q-34 35 -56 88t-26 118t12 139.5t57.5 152t110 155.5t170.5 150 q109 78 221.5 135.5t211.5 98.5t177.5 67l120.5 41q8 2 11 5.5t1.5 6.5t-6.5 4.5t-12 -0.5q-39 -12 -98 -19.5t-124 -5t-128.5 15.5t-110 41.5t-69 74.5t-5.5 114q20 80 76.5 146t139.5 119.5t187 95.5t218.5 74.5t235 56.5t235.5 41q28 5 54.5 3.5t54.5 -20.5 q38 -26 49 -42t-1 -27t-45 -21l-81 -24t-73.5 -14.5t-44 5t-38 12t-53.5 7.5q-64 1 -148 -16.5t-174 -48.5t-178.5 -73.5t-162.5 -91t-125.5 -101t-67.5 -103.5q-17 -54 4 -90t64.5 -57.5t102 -31t117.5 -10t111 6.5t82 18q65 23 84.5 13.5t11.5 -52.5q-4 -21 -7 -35 t-13.5 -25t-33 -22t-65.5 -26q-24 -9 -88 -29t-151 -56.5t-190.5 -91t-206.5 -131.5q-81 -60 -143.5 -127t-105 -135.5t-66 -135t-28 -126t10 -108.5t47.5 -82zM1880 1823q31 0 67 -25.5t68.5 -61t58 -72t36.5 -58.5q6 -12 2.5 -24t-12.5 -18.5t-20.5 -6.5t-21.5 12l-23 26 l-36.5 40l-38.5 41l-29 30q-31 31 -60.5 29.5t-55.5 -29.5l-29 -32.5l-32.5 -37t-33 -35t-30.5 -26.5q-15 -11 -27 -12t-19 5t-8 18.5t7 27.5q7 14 21.5 35t34 44.5t42.5 46.5t47 41.5t47.5 30t44.5 11.5z"/>
    <glyph glyph-name="uni1EBC" unicode="Ẽ" horiz-adv-x="1729" d="M166 -358q36 -36 113 -54t187 -6t249.5 59t300.5 140q95 54 172.5 110t137.5 108.5t103.5 99.5t71.5 85q6 9 7.5 22t3 29.5t6 35.5t16.5 38q29 47 57 55t43 -30q6 -16 -10 -46.5t-47 -70.5q-38 -51 -87.5 -109t-114 -119.5t-147.5 -124.5t-188 -122q-173 -98 -320.5 -149 t-265.5 -63.5t-204 11t-137 74.5q-34 35 -56 88t-26 118t12 139.5t57.5 152t110 155.5t170.5 150q109 78 221.5 135.5t211.5 98.5t177.5 67l120.5 41q8 2 11 5.5t1.5 6.5t-6.5 4.5t-12 -0.5q-39 -12 -93 -19.5t-112 -5t-113 15.5t-94 41.5t-56.5 74.5t-0.5 114 q20 80 78.5 148.5t143 125t190.5 101.5t220.5 77.5t232.5 52.5t227 28q27 1 53.5 1.5t54.5 -18.5q38 -26 49 -42t-1 -27t-45 -21l-81 -24t-73.5 -14.5t-44 5t-38 12t-53.5 7.5q-64 1 -148 -16.5t-173.5 -48.5t-178.5 -73.5t-162.5 -91t-125.5 -101t-68 -103.5 q-17 -54 -1 -90t52.5 -57.5t87 -31t102 -10t98.5 6.5t77 18q65 23 84.5 13.5t11.5 -52.5q-4 -21 -7 -35t-13.5 -25t-33 -22t-65.5 -26q-24 -9 -88 -29t-151 -56.5t-190.5 -91t-206.5 -131.5q-81 -60 -143.5 -127t-105 -135.5t-66 -135t-28 -126t10 -108.5t47.5 -82z M2032 1730q-2 -3 -13 -18t-31 -31t-49 -27.5t-65 -7.5q-39 4 -73.5 14t-64.5 21l-56 20t-47 12q-18 2 -33 -1.5t-28.5 -10.5t-26.5 -15.5t-25 -15.5q-17 -9 -24 0.5t6 26.5q5 7 18 22t32.5 29t44.5 23.5t54 7.5q36 -3 62 -10.5t50 -16.5l49 -18.5t60 -16.5q35 -8 72 -2 t63 35q6 6 12.5 6.5t11.5 -2.5t6 -9.5t-5 -14.5z"/>
    <glyph glyph-name="Edieresis" unicode="Ë" horiz-adv-x="1729" d="M166 -358q36 -36 113 -54t187 -6t249.5 59t300.5 140q95 54 172.5 110t137.5 108.5t103.5 99.5t71.5 85q6 9 7.5 22t3 29.5t6 35.5t16.5 38q29 47 57 55t43 -30q6 -16 -10 -46.5t-47 -70.5q-38 -51 -87.5 -109t-114 -119.5t-147.5 -124.5t-188 -122q-173 -98 -320.5 -149 t-265.5 -63.5t-204 11t-137 74.5q-34 35 -56 88t-26 118t12 139.5t57.5 152t110 155.5t170.5 150q109 78 221.5 135.5t211.5 98.5t177.5 67l120.5 41q8 2 11 5.5t1.5 6.5t-6.5 4.5t-12 -0.5q-39 -12 -98 -19.5t-124 -5t-128.5 15.5t-110 41.5t-69 74.5t-5.5 114 q20 80 76.5 146t139.5 119.5t187 95.5t218.5 74.5t235 56.5t235.5 41q28 5 54.5 3.5t54.5 -20.5q38 -26 49 -42t-1 -27t-45 -21l-81 -24t-73.5 -14.5t-44 5t-38 12t-53.5 7.5q-64 1 -148 -16.5t-174 -48.5t-178.5 -73.5t-162.5 -91t-125.5 -101t-67.5 -103.5q-17 -54 4 -90 t64.5 -57.5t102 -31t117.5 -10t111 6.5t82 18q65 23 84.5 13.5t11.5 -52.5q-4 -21 -7 -35t-13.5 -25t-33 -22t-65.5 -26q-24 -9 -88 -29t-151 -56.5t-190.5 -91t-206.5 -131.5q-81 -60 -143.5 -127t-105 -135.5t-66 -135t-28 -126t10 -108.5t47.5 -82zM1501 1753 q17 -3 30 -12t20.5 -21t9.5 -25.5t-2 -25.5q-16 -45 -43.5 -60t-59.5 5q-20 12 -25 20.5t-0.5 18t15.5 23.5t22 36q3 7 2.5 15t1 14.5t7.5 10t22 1.5zM1708 1753q17 -3 30 -12t20.5 -21t9.5 -25.5t-3 -25.5q-15 -45 -42.5 -60t-59.5 5q-20 12 -25 20.5t-0.5 18t15.5 23.5 t22 36q3 7 2.5 15t1 14.5t7.5 10t22 1.5z"/>
    <glyph glyph-name="uni1EBA" unicode="Ẻ" horiz-adv-x="1729" d="M166 -358q-33 33 -47.5 82t-10 108.5t28 126t66 135t105 135.5t143.5 127q103 77 206.5 131.5t190.5 91t151 56.5t88 29q43 15 65.5 26t33 22t13.5 25t7 35q8 43 -11.5 52.5t-84.5 -13.5q-30 -11 -77 -18t-98.5 -6.5t-102 10t-87 31t-52.5 57.5t1 90q16 51 68 103.5 t125.5 101t162.5 91t178.5 73.5t173.5 48.5t148 16.5q34 -1 53.5 -7.5t38 -12t44 -5t73.5 14.5l81 24t45 21t1 27t-49 42q-28 19 -54.5 18.5t-53.5 -1.5q-109 -8 -227 -28t-232.5 -52.5t-220.5 -77.5t-190.5 -101.5t-143 -125t-78.5 -148.5q-17 -68 0.5 -114t56.5 -74.5 t94 -41.5t113 -15.5t112 5t93 19.5q7 2 12 0.5t6.5 -4.5t-1.5 -6.5t-11 -5.5l-120.5 -41t-177.5 -67t-211.5 -98.5t-221.5 -135.5q-102 -72 -170.5 -150t-110 -155.5t-57.5 -152t-12 -139.5t26 -118t56 -88q51 -51 137 -74.5t204 -11t265.5 63.5t320.5 149q105 59 188 122 t147.5 124.5t114 119.5t87.5 109q31 40 47 70.5t10 46.5q-15 38 -43 30t-57 -55q-12 -19 -16.5 -38t-6 -35.5t-3 -29.5t-7.5 -22q-28 -38 -71.5 -85t-103.5 -99.5t-137.5 -108.5t-172.5 -110q-161 -93 -300.5 -140t-249.5 -59t-187 6t-113 54zM1244 1500q4 -20 -5 -22 t-16 14q-12 35 -0.5 76t97 72t91.5 93t-66 86q-56 18 -66 -14q-2 -6 24 -19.5t8 -37.5q-15 -20 -42 -11q-56 18 -40 66q15 45 58.5 66.5t93.5 5.5q137 -46 92 -183q-18 -55 -125 -81.5t-104 -110.5z"/>
    <glyph glyph-name="uni1EB8" unicode="Ẹ" horiz-adv-x="1729" d="M166 -358q36 -36 113 -54t187 -6t249.5 59t300.5 140q95 54 172.5 110t137.5 108.5t103.5 99.5t71.5 85q6 9 7.5 22t3 29.5t6 35.5t16.5 38q29 47 57 55t43 -30q6 -16 -10 -46.5t-47 -70.5q-38 -51 -87.5 -109t-114 -119.5t-147.5 -124.5t-188 -122q-173 -98 -320.5 -149 t-265.5 -63.5t-204 11t-137 74.5q-34 35 -56 88t-26 118t12 139.5t57.5 152t110 155.5t170.5 150q109 78 221.5 135.5t211.5 98.5t177.5 67l120.5 41q8 2 11 5.5t1.5 6.5t-6.5 4.5t-12 -0.5q-39 -12 -93 -19.5t-112 -5t-113 15.5t-94 41.5t-56.5 74.5t-0.5 114 q20 80 78.5 148.5t143 125t190.5 101.5t220.5 77.5t232.5 52.5t227 28q27 1 53.5 1.5t54.5 -18.5q38 -26 49 -42t-1 -27t-45 -21l-81 -24t-73.5 -14.5t-44 5t-38 12t-53.5 7.5q-64 1 -148 -16.5t-173.5 -48.5t-178.5 -73.5t-162.5 -91t-125.5 -101t-68 -103.5 q-17 -54 -1 -90t52.5 -57.5t87 -31t102 -10t98.5 6.5t77 18q65 23 84.5 13.5t11.5 -52.5q-4 -21 -7 -35t-13.5 -25t-33 -22t-65.5 -26q-24 -9 -88 -29t-151 -56.5t-190.5 -91t-206.5 -131.5q-81 -60 -143.5 -127t-105 -135.5t-66 -135t-28 -126t10 -108.5t47.5 -82z M-132 -142q17 -3 30 -12t20.5 -21t9.5 -25.5t-2 -25.5q-16 -45 -43.5 -60.5t-59.5 4.5q-20 12 -25 20.5t-1 19t15 24t23 35.5q3 7 2.5 15t1 14.5t7.5 10t22 1.5z"/>
    <glyph glyph-name="Igrave" unicode="Ì" horiz-adv-x="1532" d="M813 -12q-5 -12 -13.5 -16t-18 -1t-19.5 12t-17 21q-44 -6 -89 -16t-95.5 -26t-106.5 -39.5t-120 -55.5q-21 -10 -32.5 -20t-20 -20l-16.5 -19.5t-20 -19t-31.5 -18.5t-51.5 -18l-82 -22t-49.5 -5.5t-15.5 23t20 62.5q14 29 35 42.5t49 24.5q103 41 190.5 68t162.5 44 t139.5 26.5t123.5 15.5q-7 26 4 49q28 66 72 147.5t99.5 171.5t121 186.5t137.5 192.5l121 156l123.5 148.5l121 135l112.5 115.5l-162.5 -50t-184.5 -47t-208 -33t-234 -9q-29 0 -54 6t-48 29q-33 34 -41 51.5t6 26.5t48 12t85 8q33 3 54.5 2t36.5 -5t26 -9.5t22.5 -12 t26 -13t37.5 -11.5q85 -18 166 -11t161.5 28t163 50.5t170.5 55.5q24 20 42 33.5t32.5 19t25.5 1t21 -20.5l207 52.5t176 38t149 18.5t126 -7q40 -8 62.5 -27.5t32.5 -44.5t10.5 -52.5t-4.5 -51.5t-11.5 -41.5t-10.5 -22.5q-11 -14 -21 -10.5t-7 19.5q11 51 -16 84.5 t-83 52.5q-59 20 -125.5 23.5t-141.5 -5t-159.5 -27t-179.5 -42.5q-3 -23 -21.5 -53.5t-44.5 -58t-55.5 -46.5t-54.5 -19q-35 0 -83.5 -35t-107 -96.5t-125 -144.5l-137.5 -180q-62 -86 -118.5 -181t-105 -189.5t-89 -184t-70.5 -164.5q100 7 177.5 3.5t136 -11.5 t99.5 -17.5l69 -15.5q51 -12 85.5 -25t37.5 -28q5 -16 -10 -20t-44 7q-11 4 -17 9t-10.5 10t-10 9.5t-15.5 6.5q-32 9 -80 19.5t-112.5 18t-143.5 10.5t-172 -3zM1696 1671q8 17 21 34.5t26 27.5q9 8 21.5 1.5t17.5 -22.5q7 -24 18.5 -47t25.5 -44t30.5 -38t33.5 -29 q5 -3 5 -9.5t-4 -12.5t-12.5 -9.5t-20.5 -0.5q-10 2 -30 12.5t-42.5 25.5t-44 33t-33.5 35q-6 9 -11.5 21.5t-0.5 21.5z"/>
    <glyph glyph-name="Iacute" unicode="Í" horiz-adv-x="1532" d="M813 -12q-5 -12 -13.5 -16t-18 -1t-19.5 12t-17 21q-44 -6 -89 -16t-95.5 -26t-106.5 -39.5t-120 -55.5q-21 -10 -32.5 -20t-20 -20l-16.5 -19.5t-20 -19t-31.5 -18.5t-51.5 -18l-82 -22t-49.5 -5.5t-15.5 23t20 62.5q14 29 35 42.5t49 24.5q103 41 190.5 68t162.5 44 t139.5 26.5t123.5 15.5q-7 26 4 49q28 66 72 147.5t99.5 171.5t121 186.5t137.5 192.5l121 156l123.5 148.5l121 135l112.5 115.5l-162.5 -50t-184.5 -47t-208 -33t-234 -9q-29 0 -54 6t-48 29q-33 34 -41 51.5t6 26.5t48 12t85 8q33 3 54.5 2t36.5 -5t26 -9.5t22.5 -12 t26 -13t37.5 -11.5q85 -18 166 -11t161.5 28t163 50.5t170.5 55.5q24 20 42 33.5t32.5 19t25.5 1t21 -20.5l207 52.5t176 38t149 18.5t126 -7q40 -8 62.5 -27.5t32.5 -44.5t10.5 -52.5t-4.5 -51.5t-11.5 -41.5t-10.5 -22.5q-11 -14 -21 -10.5t-7 19.5q11 51 -16 84.5 t-83 52.5q-59 20 -125.5 23.5t-141.5 -5t-159.5 -27t-179.5 -42.5q-3 -23 -21.5 -53.5t-44.5 -58t-55.5 -46.5t-54.5 -19q-35 0 -83.5 -35t-107 -96.5t-125 -144.5l-137.5 -180q-62 -86 -118.5 -181t-105 -189.5t-89 -184t-70.5 -164.5q100 7 177.5 3.5t136 -11.5 t99.5 -17.5l69 -15.5q51 -12 85.5 -25t37.5 -28q5 -16 -10 -20t-44 7q-11 4 -17 9t-10.5 10t-10 9.5t-15.5 6.5q-32 9 -80 19.5t-112.5 18t-143.5 10.5t-172 -3zM1825 1663q5 -9 -0.5 -21.5t-12.5 -21.5q-12 -17 -33 -35t-43.5 -33t-42.5 -25.5t-30 -13.5q-12 -3 -20.5 0.5 t-13 10t-4.5 13t5 9.5q34 23 64.5 66.5t44.5 91.5q5 15 17 21.5t22 -1.5q12 -9 25.5 -26.5t21.5 -34.5z"/>
    <glyph glyph-name="Icircumflex" unicode="Î" horiz-adv-x="1532" d="M813 -12q-5 -12 -13.5 -16t-18 -1t-19.5 12t-17 21q-44 -6 -89 -16t-95.5 -26t-106.5 -39.5t-120 -55.5q-21 -10 -32.5 -20t-20 -20l-16.5 -19.5t-20 -19t-31.5 -18.5t-51.5 -18l-82 -22t-49.5 -5.5t-15.5 23t20 62.5q14 29 35 42.5t49 24.5q103 41 190.5 68t162.5 44 t139.5 26.5t123.5 15.5q-7 26 4 49q28 66 72 147.5t99.5 171.5t121 186.5t137.5 192.5l121 156l123.5 148.5l121 135l112.5 115.5l-162.5 -50t-184.5 -47t-208 -33t-234 -9q-29 0 -54 6t-48 29q-33 34 -41 51.5t6 26.5t48 12t85 8q33 3 54.5 2t36.5 -5t26 -9.5t22.5 -12 t26 -13t37.5 -11.5q85 -18 166 -11t161.5 28t163 50.5t170.5 55.5q24 20 42 33.5t32.5 19t25.5 1t21 -20.5l207 52.5t176 38t149 18.5t126 -7q40 -8 62.5 -27.5t32.5 -44.5t10.5 -52.5t-4.5 -51.5t-11.5 -41.5t-10.5 -22.5q-11 -14 -21 -10.5t-7 19.5q11 51 -16 84.5 t-83 52.5q-59 20 -125.5 23.5t-141.5 -5t-159.5 -27t-179.5 -42.5q-3 -23 -21.5 -53.5t-44.5 -58t-55.5 -46.5t-54.5 -19q-35 0 -83.5 -35t-107 -96.5t-125 -144.5l-137.5 -180q-62 -86 -118.5 -181t-105 -189.5t-89 -184t-70.5 -164.5q100 7 177.5 3.5t136 -11.5 t99.5 -17.5l69 -15.5q51 -12 85.5 -25t37.5 -28q5 -16 -10 -20t-44 7q-11 4 -17 9t-10.5 10t-10 9.5t-15.5 6.5q-32 9 -80 19.5t-112.5 18t-143.5 10.5t-172 -3zM1776 1776q31 0 67 -25.5t68 -61t57.5 -72t36.5 -58.5q6 -12 2.5 -24t-12 -18.5t-20 -6.5t-21.5 12l-23 26 l-37 40l-38.5 41l-28.5 30q-31 31 -61 29.5t-56 -29.5l-29 -32.5l-32.5 -37t-33 -35t-30.5 -26.5q-15 -11 -27 -12t-19 5t-8 18.5t7 27.5q11 21 38 56.5t61 69.5t71 58.5t68 24.5z"/>
    <glyph glyph-name="Itilde" unicode="Ĩ" horiz-adv-x="1532" d="M813 -12q-5 -12 -13.5 -16t-18 -1t-19.5 12t-17 21q-44 -6 -89 -16t-95.5 -26t-106.5 -39.5t-120 -55.5q-21 -10 -32.5 -20t-20 -20l-16.5 -19.5t-20 -19t-31.5 -18.5t-51.5 -18l-82 -22t-49.5 -5.5t-15.5 23t20 62.5q14 29 35 42.5t49 24.5q103 41 190.5 68t162.5 44 t139.5 26.5t123.5 15.5q-7 26 4 49q28 66 72 147.5t99.5 171.5t121 186.5t137.5 192.5l121 156l123.5 148.5l121 135l112.5 115.5l-162.5 -50t-184.5 -47t-208 -33t-234 -9q-29 0 -54 6t-48 29q-33 34 -41 51.5t6 26.5t48 12t85 8q33 3 54.5 2t36.5 -5t26 -9.5t22.5 -12 t26 -13t37.5 -11.5q85 -18 166 -11t161.5 28t163 50.5t170.5 55.5q24 20 42 33.5t32.5 19t25.5 1t21 -20.5l207 52.5t176 38t149 18.5t126 -7q40 -8 62.5 -27.5t32.5 -44.5t10.5 -52.5t-4.5 -51.5t-11.5 -41.5t-10.5 -22.5q-11 -14 -21 -10.5t-7 19.5q11 51 -16 84.5 t-83 52.5q-59 20 -125.5 23.5t-141.5 -5t-159.5 -27t-179.5 -42.5q-3 -23 -21.5 -53.5t-44.5 -58t-55.5 -46.5t-54.5 -19q-35 0 -83.5 -35t-107 -96.5t-125 -144.5l-137.5 -180q-62 -86 -118.5 -181t-105 -189.5t-89 -184t-70.5 -164.5q85 5 160.5 2t137.5 -9.5t109 -15 t75 -14.5q51 -12 85.5 -27t37.5 -30q5 -16 -10 -20t-44 7q-11 4 -17.5 10l-12 11.5t-11.5 10.5t-16 7q-32 9 -79.5 19t-111 16.5t-142 9t-171.5 -3.5zM2235 1866q-2 -3 -13 -18t-31 -31t-49 -27.5t-65 -7.5q-39 4 -73.5 14t-64.5 21l-56 20t-47 12q-18 2 -33 -1.5 t-28.5 -10.5t-26.5 -15.5t-25 -15.5q-17 -9 -24 0.5t6 26.5q5 7 18 22t32.5 29t44.5 23.5t54 7.5q36 -3 62 -10.5t50 -16.5l49 -18.5t60 -16.5q35 -8 72 -2t63 35q6 6 12.5 6.5t11.5 -2.5t6 -9.5t-5 -14.5z"/>
    <glyph glyph-name="Idieresis" unicode="Ï" horiz-adv-x="1532" d="M813 -12q-5 -12 -13.5 -16t-18 -1t-19.5 12t-17 21q-44 -6 -89 -16t-95.5 -26t-106.5 -39.5t-120 -55.5q-21 -10 -32.5 -20t-20 -20l-16.5 -19.5t-20 -19t-31.5 -18.5t-51.5 -18l-82 -22t-49.5 -5.5t-15.5 23t20 62.5q14 29 35 42.5t49 24.5q103 41 190.5 68t162.5 44 t139.5 26.5t123.5 15.5q-7 26 4 49q28 66 72 147.5t99.5 171.5t121 186.5t137.5 192.5l121 156l123.5 148.5l121 135l112.5 115.5l-162.5 -50t-184.5 -47t-208 -33t-234 -9q-29 0 -54 6t-48 29q-33 34 -41 51.5t6 26.5t48 12t85 8q33 3 54.5 2t36.5 -5t26 -9.5t22.5 -12 t26 -13t37.5 -11.5q85 -18 166 -11t161.5 28t163 50.5t170.5 55.5q24 20 42 33.5t32.5 19t25.5 1t21 -20.5l207 52.5t176 38t149 18.5t126 -7q40 -8 62.5 -27.5t32.5 -44.5t10.5 -52.5t-4.5 -51.5t-11.5 -41.5t-10.5 -22.5q-11 -14 -21 -10.5t-7 19.5q11 51 -16 84.5 t-83 52.5q-59 20 -125.5 23.5t-141.5 -5t-159.5 -27t-179.5 -42.5q-3 -23 -21.5 -53.5t-44.5 -58t-55.5 -46.5t-54.5 -19q-35 0 -83.5 -35t-107 -96.5t-125 -144.5l-137.5 -180q-62 -86 -118.5 -181t-105 -189.5t-89 -184t-70.5 -164.5q100 7 177.5 3.5t136 -11.5 t99.5 -17.5l69 -15.5q51 -12 85.5 -25t37.5 -28q5 -16 -10 -20t-44 7q-11 4 -17 9t-10.5 10t-10 9.5t-15.5 6.5q-32 9 -80 19.5t-112.5 18t-143.5 10.5t-172 -3zM1679 1675q17 -3 30 -12t20.5 -21t9.5 -25.5t-2 -25.5q-16 -45 -43.5 -60t-59.5 5q-20 12 -25 20.5t-0.5 18 t15.5 23.5t23 36q3 7 2.5 15t0.5 14.5t7 10t22 1.5zM1886 1675q17 -3 30 -12t20.5 -21t9.5 -25.5t-2 -25.5q-16 -45 -43.5 -60t-59.5 5q-20 12 -25 20.5t-0.5 18t15.5 23.5t22 36q3 7 2.5 15t1 14.5t7.5 10t22 1.5z"/>
    <glyph glyph-name="uni1EC8" unicode="Ỉ" horiz-adv-x="1532" d="M821 12q93 6 171.5 3.5t142 -9t111 -16.5t79.5 -19q10 -2 16 -7t11.5 -10.5l12 -11.5t17.5 -10q29 -11 44 -7t10 20q-3 15 -37.5 30t-85.5 27q-28 6 -75 14.5t-109 15t-137.5 9.5t-160.5 -2q30 75 70.5 164.5t89 184t105 189.5t118.5 181l137.5 180t125 144.5t107 96.5 t83.5 35q25 0 54.5 19t55.5 46.5t44.5 58t21.5 53.5q95 24 179.5 42.5t159.5 27t141.5 5t125.5 -23.5q56 -19 83 -52.5t16 -84.5q-3 -16 7 -19.5t21 10.5q4 5 10.5 22.5t11.5 41.5t4.5 51.5t-10.5 52.5t-32.5 44.5t-62.5 27.5q-58 11 -126 7t-149 -18.5t-176 -38l-207 -52.5 q-10 16 -21 20.5t-25.5 -1t-32.5 -19t-42 -33.5q-88 -26 -170.5 -55.5t-163 -50.5t-161.5 -28t-166 11q-23 5 -37.5 11.5t-26 13t-22.5 12t-26 9.5t-36.5 5t-54.5 -2q-51 -5 -85 -8t-48 -12t-6 -26.5t41 -51.5q23 -23 48 -29t54 -6q124 -3 234 9t208 33t184.5 47l162.5 50 l-112.5 -115.5l-121 -135l-123.5 -148.5l-121 -156q-72 -96 -137.5 -192.5t-121 -186.5t-99.5 -171.5t-72 -147.5q-11 -23 -4 -49q-59 -6 -123.5 -15.5t-139.5 -26.5t-162.5 -44t-190.5 -68q-28 -11 -49 -24.5t-35 -42.5q-19 -43 -20 -62.5t15.5 -23t49.5 5.5l82 22 q32 9 51.5 18t31.5 18.5t20 19l16.5 19.5t20 20t32.5 20q64 32 120 55.5t106.5 39.5t95.5 26t89 16q7 -12 17 -21t19.5 -12t18 1t13.5 16zM1827 1500q4 -20 -5 -22t-16 14q-12 35 -0.5 76t97 72t91.5 93t-66 86q-56 18 -66 -14q-2 -6 24 -19.5t8 -37.5q-15 -20 -42 -11 q-56 18 -40 66q15 45 58.5 66.5t93.5 5.5q137 -46 92 -183q-18 -55 -125 -81.5t-104 -110.5z"/>
    <glyph glyph-name="uni1ECA" unicode="Ị" horiz-adv-x="1532" d="M813 -12q-5 -12 -13.5 -16t-18 -1t-19.5 12t-17 21q-44 -6 -89 -16t-95.5 -26t-106.5 -39.5t-120 -55.5q-21 -10 -32.5 -20t-20 -20l-16.5 -19.5t-20 -19t-31.5 -18.5t-51.5 -18l-82 -22t-49.5 -5.5t-15.5 23t20 62.5q14 29 35 42.5t49 24.5q103 41 190.5 68t162.5 44 t139.5 26.5t123.5 15.5q-7 26 4 49q28 66 72 147.5t99.5 171.5t121 186.5t137.5 192.5l121 156l123.5 148.5l121 135l112.5 115.5l-162.5 -50t-184.5 -47t-208 -33t-234 -9q-29 0 -54 6t-48 29q-33 34 -41 51.5t6 26.5t48 12t85 8q33 3 54.5 2t36.5 -5t26 -9.5t22.5 -12 t26 -13t37.5 -11.5q85 -18 166 -11t161.5 28t163 50.5t170.5 55.5q24 20 42 33.5t32.5 19t25.5 1t21 -20.5l207 52.5t176 38t149 18.5t126 -7q40 -8 62.5 -27.5t32.5 -44.5t10.5 -52.5t-4.5 -51.5t-11.5 -41.5t-10.5 -22.5q-11 -14 -21 -10.5t-7 19.5q11 51 -16 84.5 t-83 52.5q-59 20 -125.5 23.5t-141.5 -5t-159.5 -27t-179.5 -42.5q-3 -23 -21.5 -53.5t-44.5 -58t-55.5 -46.5t-54.5 -19q-35 0 -83.5 -35t-107 -96.5t-125 -144.5l-137.5 -180q-62 -86 -118.5 -181t-105 -189.5t-89 -184t-70.5 -164.5q85 5 160.5 2t137.5 -9.5t109 -15 t75 -14.5q51 -12 85.5 -27t37.5 -30q5 -16 -10 -20t-44 7q-11 4 -17.5 10l-12 11.5t-11.5 10.5t-16 7q-32 9 -79.5 19t-111 16.5t-142 9t-171.5 -3.5zM563 -142q17 -3 30 -12t20.5 -21t9.5 -25.5t-2 -25.5q-16 -45 -43.5 -60.5t-59.5 4.5q-20 12 -25 20.5t-1 19t15 24 t23 35.5q3 7 2.5 15t1 14.5t7.5 10t22 1.5z"/>
    <glyph glyph-name="IJ" unicode="Ĳ" horiz-adv-x="1532" d="M813 -12q-5 -12 -13.5 -16t-18 -1t-19.5 12t-17 21q-44 -6 -89 -16t-95.5 -26t-106.5 -39.5t-120 -55.5q-21 -10 -32.5 -20t-20 -20l-16.5 -19.5t-20 -19t-31.5 -18.5t-51.5 -18l-82 -22t-49.5 -5.5t-15.5 23t20 62.5q14 29 35 42.5t49 24.5q103 41 190.5 68t162.5 44 t139.5 26.5t123.5 15.5q-7 26 4 49q28 66 72 147.5t99.5 171.5t121 186.5t137.5 192.5l121 156l123.5 148.5l121 135l112.5 115.5l-162.5 -50t-184.5 -47t-208 -33t-234 -9q-29 0 -54 6t-48 29q-33 34 -41 51.5t6 26.5t48 12t85 8q33 3 54.5 2t36.5 -5t26 -9.5t22.5 -12 t26 -13t37.5 -11.5q85 -18 166 -11t161.5 28t163 50.5t170.5 55.5q24 20 42 33.5t32.5 19t25.5 1t21 -20.5l207 52.5t176 38t149 18.5t126 -7q40 -8 62.5 -27.5t32.5 -44.5t10.5 -52.5t-4.5 -51.5t-11.5 -41.5t-10.5 -22.5q-11 -14 -21 -10.5t-7 19.5q11 51 -16 84.5 t-83 52.5q-59 20 -125.5 23.5t-141.5 -5t-159.5 -27t-179.5 -42.5q-3 -23 -21.5 -53.5t-44.5 -58t-55.5 -46.5t-54.5 -19q-35 0 -83.5 -35t-107 -96.5t-125 -144.5l-137.5 -180q-62 -86 -118.5 -181t-105 -189.5t-89 -184t-70.5 -164.5q85 5 160.5 2t137.5 -9.5t109 -15 t75 -14.5q51 -12 85.5 -27t37.5 -30q5 -16 -10 -20t-44 7q-11 4 -17.5 10l-12 11.5t-11.5 10.5t-16 7q-32 9 -79.5 19t-111 16.5t-142 9t-171.5 -3.5zM2312 635l139 222t94.5 165.5t58.5 120t30.5 86.5t10.5 65t-1 56l-170 -54t-195.5 -53t-223.5 -38.5t-253 -10.5 q-29 0 -54.5 6t-48.5 29q-33 34 -40.5 51.5t6.5 26.5t48 12t85 8q49 4 74 0t42.5 -12.5t35 -19t51.5 -17.5q84 -18 164.5 -11.5t161 27.5t162.5 50.5t171 56.5q12 22 31.5 44.5t41 41t43.5 31t40 14.5q30 4 49 2.5t27 -9.5t4.5 -24.5t-19.5 -42.5q94 23 174.5 40.5t149.5 27 t128.5 10.5t110.5 -8q40 -8 63 -27.5t33 -44.5t10 -52.5t-4.5 -51.5t-11.5 -41.5t-10 -22.5q-11 -14 -21.5 -10.5t-7.5 18.5q11 51 -15.5 85t-82.5 53q-54 18 -114.5 23.5t-128 1t-143 -18t-159.5 -33.5l-64.5 -122.5l-95.5 -174.5l-129 -224l-165 -272l-158 -238.5 t-186 -243.5t-214 -226.5t-242 -188.5t-270.5 -128.5t-299.5 -47.5q-108 0 -205 35t-165.5 102t-101 165.5t-12.5 226.5q18 118 80.5 216.5t153 175.5t201 133t225.5 89q130 37 249.5 41.5t216.5 -8.5t165.5 -36.5t97.5 -41.5q49 -31 70 -57t18 -41q-2 -16 -16 -12t-37 24 q-9 7 -12.5 14t-5.5 13t-5.5 12t-11.5 12q-39 28 -111 51t-167.5 34t-208 5.5t-232.5 -35.5q-113 -28 -220.5 -84.5t-194.5 -134.5t-146 -173t-74 -201q-17 -115 16 -204.5t99 -151t156.5 -94t189.5 -32.5q137 0 266.5 49t249 131t228 189t204.5 224t178.5 235t149.5 223z "/>
    <glyph glyph-name="Ntilde" unicode="Ñ" horiz-adv-x="1860" d="M1440 1145l-117 -119.5l-88.5 -90l-68.5 -70l-57 -58.5l-54 -57.5l-60 -65.5q-78 -87 -148 -179.5t-129 -183.5t-107 -177.5t-83 -159.5q-10 -21 -25 -18t-26.5 19.5t-15 42.5t11.5 52l43.5 80l46 81.5l53.5 90.5l67.5 108l87.5 134.5l114 168.5q79 116 130.5 227.5 t77 205t25 162t-25.5 100.5q-19 23 -65.5 33.5t-108.5 7.5t-132 -20.5t-135 -51.5l-166.5 -88.5t-117 -71.5t-74 -63t-37.5 -62q-10 -30 -15.5 -48.5t-15 -36.5t-27 -39.5t-51.5 -57.5q-25 -27 -46 -47t-38 -24.5t-29.5 11t-21.5 60.5q-3 15 -0.5 32t9.5 33.5t16 31t20 24.5 q20 20 69.5 61.5t124.5 94t173.5 110.5t218.5 111q81 35 157 57t141 28.5t116.5 -2.5t83.5 -36q60 -51 72 -127.5t-15 -175.5t-89.5 -218t-152.5 -253q-6 -8 -3.5 -13t12.5 4l105 105.5l98.5 104.5l109 116l135.5 139q93 94 184 163.5t172.5 109.5t149.5 47t115 -23 q65 -42 76.5 -118t-19.5 -182.5t-99 -241t-161 -293.5l-112 -198t-94.5 -187.5t-68.5 -171.5t-33 -150.5t12 -125.5t67 -95q32 -26 70.5 -37.5t71.5 -15.5q39 -4 77 -2q2 8 9 17q6 8 16.5 15.5t29.5 14.5q37 12 58 12t30.5 -7t8.5 -17.5t-9 -18.5q-31 -28 -63 -43.5 t-80 -15.5q-24 0 -55 2t-64 9.5t-66.5 21.5t-62.5 38q-59 46 -86.5 110t-29.5 141.5t18.5 166t58.5 184.5t90.5 197t114.5 203q82 139 141 258t90 211t31 155t-35 91q-35 27 -90 25t-123.5 -33t-148 -91t-164.5 -147zM2185 1657q-2 -2 -13 -17t-31 -31t-48.5 -28t-64.5 -8 q-39 4 -74 14t-65 21l-56 20t-47 12q-18 3 -33 -1t-28.5 -11t-26.5 -15.5t-25 -15.5q-17 -9 -24 0.5t6 26.5q5 8 18 22.5t32.5 28.5t44.5 23.5t54 7.5q36 -3 62.5 -10.5t50 -16.5l48.5 -18t60 -16q36 -8 73 -2.5t63 34.5q5 6 12 7t11.5 -2.5t5.5 -10t-5 -14.5z"/>
    <glyph glyph-name="Ograve" unicode="Ò" horiz-adv-x="1221" d="M1325 1296q-47 31 -102 29.5t-105.5 -21t-90 -51t-54.5 -61.5q-16 -32 -20 -50.5t-10 -35.5t-20.5 -37.5t-50.5 -54.5l-60 -57t-41 -27.5t-24.5 12.5t-11.5 64q-3 32 7.5 54.5t27.5 47.5q25 33 66 69.5t91 69.5t107 59t114.5 38.5t111.5 8.5t100 -32q48 -29 66 -84 t13.5 -126t-30 -154t-65 -169t-91 -170t-108.5 -157q-58 -73 -127 -146.5t-146.5 -138t-161.5 -114.5t-170 -75.5t-173.5 -23t-171.5 44.5t-127 111.5t-52 156.5t11.5 186.5t62.5 200.5t101 198.5t128 180.5q103 125 215 217t221 152.5t207.5 91t174.5 33.5t130 -11 t89.5 -33.5t54 -38.5t21.5 -26t3.5 -14t-2.5 -10.5t-9.5 -3t-16.5 9.5t-29 21t-51.5 21.5t-79.5 14t-114 -1.5t-154.5 -42t-183.5 -100t-195.5 -154.5t-189.5 -204.5q-61 -77 -117 -166.5t-99 -182t-69.5 -183t-27.5 -168t28 -138t96 -92.5t145.5 -29t161 31.5t166 78.5 t161 111.5t145 129.5t118.5 134q55 72 101.5 153.5t80.5 163.5t55 160.5t25.5 144t-8.5 114t-47 71.5zM1120 1724q8 17 21.5 35t25.5 27q10 8 22 1.5t17 -22.5q14 -48 44.5 -91t64.5 -66q4 -3 4.5 -10t-4 -13t-13 -9.5t-20.5 -0.5q-10 2 -30 12.5t-42.5 25.5t-43.5 33 t-33 35q-7 10 -12.5 22t-0.5 21z"/>
    <glyph glyph-name="Oacute" unicode="Ó" horiz-adv-x="1221" d="M1325 1296q-47 31 -102 29.5t-105.5 -21t-90 -51t-54.5 -61.5q-16 -32 -20 -50.5t-10 -35.5t-20.5 -37.5t-50.5 -54.5l-60 -57t-41 -27.5t-24.5 12.5t-11.5 64q-3 32 7.5 54.5t27.5 47.5q25 33 66 69.5t91 69.5t107 59t114.5 38.5t111.5 8.5t100 -32q48 -29 66 -84 t13.5 -126t-30 -154t-65 -169t-91 -170t-108.5 -157q-58 -73 -127 -146.5t-146.5 -138t-161.5 -114.5t-170 -75.5t-173.5 -23t-171.5 44.5t-127 111.5t-52 156.5t11.5 186.5t62.5 200.5t101 198.5t128 180.5q103 125 215 217t221 152.5t207.5 91t174.5 33.5t130 -11 t89.5 -33.5t54 -38.5t21.5 -26t3.5 -14t-2.5 -10.5t-9.5 -3t-16.5 9.5t-29 21t-51.5 21.5t-79.5 14t-114 -1.5t-154.5 -42t-183.5 -100t-195.5 -154.5t-189.5 -204.5q-61 -77 -117 -166.5t-99 -182t-69.5 -183t-27.5 -168t28 -138t96 -92.5t145.5 -29t161 31.5t166 78.5 t161 111.5t145 129.5t118.5 134q55 72 101.5 153.5t80.5 163.5t55 160.5t25.5 144t-8.5 114t-47 71.5zM1329 1753q5 -9 -0.5 -21.5t-11.5 -21.5q-12 -17 -33.5 -35t-44 -33t-42.5 -25.5t-30 -12.5q-12 -3 -20.5 0.5t-12.5 9.5t-4 12.5t5 9.5q17 12 33.5 29t30.5 38t25.5 44 t18.5 47q5 16 17.5 22.5t21.5 -1.5q12 -10 25.5 -27.5t21.5 -34.5z"/>
    <glyph glyph-name="Ocircumflex" unicode="Ô" horiz-adv-x="1221" d="M1325 1296q-47 31 -102 29.5t-105.5 -21t-90 -51t-54.5 -61.5q-16 -32 -20 -50.5t-10 -35.5t-20.5 -37.5t-50.5 -54.5l-60 -57t-41 -27.5t-24.5 12.5t-11.5 64q-3 32 7.5 54.5t27.5 47.5q25 33 66 69.5t91 69.5t107 59t114.5 38.5t111.5 8.5t100 -32q47 -29 65.5 -84 t14 -126t-30 -154t-65 -169t-91 -170t-108.5 -157q-58 -73 -127 -146.5t-146.5 -138t-161.5 -114.5t-170 -75.5t-173.5 -23t-171.5 44.5q-85 41 -127.5 111t-51.5 157t11.5 186.5t62.5 200.5t101.5 198.5t127.5 180.5q103 125 215 217t221 152.5t207.5 91t174.5 33.5 t130 -11t89.5 -33.5t54 -38.5t21.5 -26t3.5 -14t-2.5 -10.5t-9.5 -3t-16.5 9.5t-29 21t-51.5 21.5t-79.5 14t-114 -1.5t-154.5 -42t-183.5 -100t-195.5 -154.5t-189.5 -204.5q-61 -77 -117 -166.5t-99 -182t-69.5 -183t-27.5 -168t28 -138t96 -92.5t145.5 -29t161 32 t166 78.5t161 111t145 130t118.5 133.5q55 72 101.5 153.5t80.5 163.5t55 160.5t25.5 144t-8.5 114t-47 71.5zM1186 1841q31 0 67 -25.5t68 -61t57.5 -72t36.5 -58.5q6 -12 3 -24t-12 -18.5t-20.5 -6.5t-21.5 12q-6 8 -23 26.5l-36.5 40l-38.5 41l-29 29.5q-31 31 -61 29.5 t-56 -29.5l-29 -32l-32.5 -37t-33 -35.5t-30.5 -26.5q-15 -11 -27 -11.5t-19 5.5t-8 18t7 27q11 22 38 57t61 69t71 58.5t68 24.5z"/>
    <glyph glyph-name="uni1ED2" unicode="Ồ" horiz-adv-x="1221" d="M1325 1296q-47 31 -102 29.5t-105.5 -21t-90 -51t-54.5 -61.5q-16 -32 -20 -50.5t-10 -35.5t-20.5 -37.5t-50.5 -54.5l-60 -57t-41 -27.5t-24.5 12.5t-11.5 64q-3 32 7.5 54.5t27.5 47.5q25 33 66 69.5t91 69.5t107 59t114.5 38.5t111.5 8.5t100 -32q47 -29 65.5 -84 t14 -126t-30 -154t-65 -169t-91 -170t-108.5 -157q-58 -73 -127 -146.5t-146.5 -138t-161.5 -114.5t-170 -75.5t-173.5 -23t-171.5 44.5q-85 41 -127.5 111t-51.5 157t11.5 186.5t62.5 200.5t101.5 198.5t127.5 180.5q103 125 215 217t221 152.5t207.5 91t174.5 33.5 t130 -11t89.5 -33.5t54 -38.5t21.5 -26t3.5 -14t-2.5 -10.5t-9.5 -3t-16.5 9.5t-29 21t-51.5 21.5t-79.5 14t-114 -1.5t-154.5 -42t-183.5 -100t-195.5 -154.5t-189.5 -204.5q-61 -77 -117 -166.5t-99 -182t-69.5 -183t-27.5 -168t28 -138t96 -92.5t145.5 -29t161 32 t166 78.5t161 111t145 130t118.5 133.5q55 72 101.5 153.5t80.5 163.5t55 160.5t25.5 144t-8.5 114t-47 71.5zM1186 1841q31 0 67 -25.5t68 -61t57.5 -72t36.5 -58.5q6 -12 3 -24t-12 -18.5t-20.5 -6.5t-21.5 12q-6 8 -23 26.5l-36.5 40l-38.5 41l-29 29.5q-31 31 -61 29.5 t-56 -29.5l-29 -32l-32.5 -37t-33 -35.5t-30.5 -26.5q-15 -11 -27 -11.5t-19 5.5t-8 18t7 27q11 22 38 57t61 69t71 58.5t68 24.5zM1219 2040q8 17 21 34.5t26 27.5q9 8 21.5 1.5t17.5 -22.5q7 -24 18.5 -47t25.5 -44t30.5 -38t33.5 -29q5 -3 5 -9.5t-4.5 -12.5t-13 -9.5 t-20.5 -0.5q-10 2 -29.5 12.5t-42 25.5t-44 33t-33.5 35q-6 9 -11.5 21.5t-0.5 21.5z"/>
    <glyph glyph-name="uni1ED0" unicode="Ố" horiz-adv-x="1221" d="M1325 1296q-47 31 -102 29.5t-105.5 -21t-90 -51t-54.5 -61.5q-16 -32 -20 -50.5t-10 -35.5t-20.5 -37.5t-50.5 -54.5l-60 -57t-41 -27.5t-24.5 12.5t-11.5 64q-3 32 7.5 54.5t27.5 47.5q25 33 66 69.5t91 69.5t107 59t114.5 38.5t111.5 8.5t100 -32q47 -29 65.5 -84 t14 -126t-30 -154t-65 -169t-91 -170t-108.5 -157q-58 -73 -127 -146.5t-146.5 -138t-161.5 -114.5t-170 -75.5t-173.5 -23t-171.5 44.5q-85 41 -127.5 111t-51.5 157t11.5 186.5t62.5 200.5t101.5 198.5t127.5 180.5q103 125 215 217t221 152.5t207.5 91t174.5 33.5 t130 -11t89.5 -33.5t54 -38.5t21.5 -26t3.5 -14t-2.5 -10.5t-9.5 -3t-16.5 9.5t-29 21t-51.5 21.5t-79.5 14t-114 -1.5t-154.5 -42t-183.5 -100t-195.5 -154.5t-189.5 -204.5q-61 -77 -117 -166.5t-99 -182t-69.5 -183t-27.5 -168t28 -138t96 -92.5t145.5 -29t161 32 t166 78.5t161 111t145 130t118.5 133.5q55 72 101.5 153.5t80.5 163.5t55 160.5t25.5 144t-8.5 114t-47 71.5zM1186 1841q31 0 67 -25.5t68 -61t57.5 -72t36.5 -58.5q6 -12 3 -24t-12 -18.5t-20.5 -6.5t-21.5 12q-6 8 -23 26.5l-36.5 40l-38.5 41l-29 29.5q-31 31 -61 29.5 t-56 -29.5l-29 -32l-32.5 -37t-33 -35.5t-30.5 -26.5q-15 -11 -27 -11.5t-19 5.5t-8 18t7 27q11 22 38 57t61 69t71 58.5t68 24.5zM1531 2006q5 -9 -0.5 -21.5t-11.5 -21.5q-12 -17 -33.5 -35t-44 -33t-42 -25.5t-29.5 -12.5q-12 -3 -20.5 0.5t-13 9.5t-4.5 12.5t5 9.5 q17 12 33.5 29t30.5 38t25.5 44t18.5 47q5 16 17.5 22.5t21.5 -1.5q13 -10 26 -27.5t21 -34.5z"/>
    <glyph glyph-name="uni1ED6" unicode="Ỗ" horiz-adv-x="1221" d="M1325 1296q-47 31 -102 29.5t-105.5 -21t-90 -51t-54.5 -61.5q-16 -32 -20 -50.5t-10 -35.5t-20.5 -37.5t-50.5 -54.5l-60 -57t-41 -27.5t-24.5 12.5t-11.5 64q-3 32 7.5 54.5t27.5 47.5q25 33 66 69.5t91 69.5t107 59t114.5 38.5t111.5 8.5t100 -32q47 -29 65.5 -84 t14 -126t-30 -154t-65 -169t-91 -170t-108.5 -157q-58 -73 -127 -146.5t-146.5 -138t-161.5 -114.5t-170 -75.5t-173.5 -23t-171.5 44.5q-85 41 -127.5 111t-51.5 157t11.5 186.5t62.5 200.5t101.5 198.5t127.5 180.5q103 125 215 217t221 152.5t207.5 91t174.5 33.5 t130 -11t89.5 -33.5t54 -38.5t21.5 -26t3.5 -14t-2.5 -10.5t-9.5 -3t-16.5 9.5t-29 21t-51.5 21.5t-79.5 14t-114 -1.5t-154.5 -42t-183.5 -100t-195.5 -154.5t-189.5 -204.5q-61 -77 -117 -166.5t-99 -182t-69.5 -183t-27.5 -168t28 -138t96 -92.5t145.5 -29t161 32 t166 78.5t161 111t145 130t118.5 133.5q55 72 101.5 153.5t80.5 163.5t55 160.5t25.5 144t-8.5 114t-47 71.5zM1186 1841q31 0 67 -25.5t68 -61t57.5 -72t36.5 -58.5q6 -12 3 -24t-12 -18.5t-20.5 -6.5t-21.5 12q-6 8 -23 26.5l-36.5 40l-38.5 41l-29 29.5q-31 31 -61 29.5 t-56 -29.5l-29 -32l-32.5 -37t-33 -35.5t-30.5 -26.5q-15 -11 -27 -11.5t-19 5.5t-8 18t7 27q11 22 38 57t61 69t71 58.5t68 24.5zM1567 1954q-2 -3 -13 -18t-31 -31t-49 -27.5t-65 -7.5q-39 4 -73.5 14t-64.5 21l-56 20t-47 12q-18 2 -33 -1.5t-28.5 -10.5t-26.5 -15.5 t-25 -15.5q-17 -9 -24 0.5t6 26.5q5 7 18 22t32.5 29t44.5 23.5t54 7.5q36 -3 62 -10.5t50 -16.5l49 -18.5t60 -16.5q35 -8 72 -2t63 35q6 6 12.5 6.5t11.5 -2.5t6 -9.5t-5 -14.5z"/>
    <glyph glyph-name="uni1ED4" unicode="Ổ" horiz-adv-x="1221" d="M1325 1296q-47 31 -102 29.5t-105.5 -21t-90 -51t-54.5 -61.5q-16 -32 -20 -50.5t-10 -35.5t-20.5 -37.5t-50.5 -54.5l-60 -57t-41 -27.5t-24.5 12.5t-11.5 64q-3 32 7.5 54.5t27.5 47.5q25 33 66 69.5t91 69.5t107 59t114.5 38.5t111.5 8.5t100 -32q47 -29 65.5 -84 t14 -126t-30 -154t-65 -169t-91 -170t-108.5 -157q-58 -73 -127 -146.5t-146.5 -138t-161.5 -114.5t-170 -75.5t-173.5 -23t-171.5 44.5q-85 41 -127.5 111t-51.5 157t11.5 186.5t62.5 200.5t101.5 198.5t127.5 180.5q103 125 215 217t221 152.5t207.5 91t174.5 33.5 t130 -11t89.5 -33.5t54 -38.5t21.5 -26t3.5 -14t-2.5 -10.5t-9.5 -3t-16.5 9.5t-29 21t-51.5 21.5t-79.5 14t-114 -1.5t-154.5 -42t-183.5 -100t-195.5 -154.5t-189.5 -204.5q-61 -77 -117 -166.5t-99 -182t-69.5 -183t-27.5 -168t28 -138t96 -92.5t145.5 -29t161 32 t166 78.5t161 111t145 130t118.5 133.5q55 72 101.5 153.5t80.5 163.5t55 160.5t25.5 144t-8.5 114t-47 71.5zM1186 1841q-31 0 -68 -24.5t-71 -58.5t-61 -69t-38 -57q-8 -15 -7 -27t8 -18t19 -5.5t27 11.5q14 10 30.5 26.5t33 35.5l32.5 37l29 32q26 28 56 29.5t61 -29.5 l29 -29.5l38.5 -41l36.5 -40t23 -26.5q10 -12 21.5 -12t20.5 6.5t12 18.5t-3 24q-11 22 -36.5 58.5t-57.5 72t-68 61t-67 25.5zM1442 1683q4 -20 -5 -22t-16 14q-12 35 -0.5 76t97 72t91.5 93t-66 86q-56 18 -66 -14q-2 -6 24 -19.5t8 -37.5q-15 -20 -42 -11q-56 18 -40 66 q15 45 58.5 66.5t93.5 5.5q137 -46 92 -183q-18 -55 -125 -81.5t-104 -110.5z"/>
    <glyph glyph-name="uni1ED8" unicode="Ộ" horiz-adv-x="1221" d="M1325 1296q-47 31 -102 29.5t-105.5 -21t-90 -51t-54.5 -61.5q-16 -32 -20 -50.5t-10 -35.5t-20.5 -37.5t-50.5 -54.5l-60 -57t-41 -27.5t-24.5 12.5t-11.5 64q-3 32 7.5 54.5t27.5 47.5q25 33 66 69.5t91 69.5t107 59t114.5 38.5t111.5 8.5t100 -32q47 -29 65.5 -84 t14 -126t-30 -154t-65 -169t-91 -170t-108.5 -157q-58 -73 -127 -146.5t-146.5 -138t-161.5 -114.5t-170 -75.5t-173.5 -23t-171.5 44.5q-85 41 -127.5 111t-51.5 157t11.5 186.5t62.5 200.5t101.5 198.5t127.5 180.5q103 125 215 217t221 152.5t207.5 91t174.5 33.5 t130 -11t89.5 -33.5t54 -38.5t21.5 -26t3.5 -14t-2.5 -10.5t-9.5 -3t-16.5 9.5t-29 21t-51.5 21.5t-79.5 14t-114 -1.5t-154.5 -42t-183.5 -100t-195.5 -154.5t-189.5 -204.5q-61 -77 -117 -166.5t-99 -182t-69.5 -183t-27.5 -168t28 -138t96 -92.5t145.5 -29t161 32 t166 78.5t161 111t145 130t118.5 133.5q55 72 101.5 153.5t80.5 163.5t55 160.5t25.5 144t-8.5 114t-47 71.5zM1186 1841q31 0 67 -25.5t68 -61t57.5 -72t36.5 -58.5q6 -12 3 -24t-12 -18.5t-20.5 -6.5t-21.5 12q-6 8 -23 26.5l-36.5 40l-38.5 41l-29 29.5q-31 31 -61 29.5 t-56 -29.5l-29 -32l-32.5 -37t-33 -35.5t-30.5 -26.5q-15 -11 -27 -11.5t-19 5.5t-8 18t7 27q11 22 38 57t61 69t71 58.5t68 24.5zM172 -142q17 -3 30 -12t20.5 -21t9.5 -25.5t-2 -25.5q-16 -45 -43.5 -60.5t-59.5 4.5q-20 12 -25 20.5t-1 19t15 24t23 35.5q3 7 2.5 15 t1 14.5t7.5 10t22 1.5z"/>
    <glyph glyph-name="Otilde" unicode="Õ" horiz-adv-x="1221" d="M1325 1296q-47 31 -102 29.5t-105.5 -21t-90 -51t-54.5 -61.5q-16 -32 -20 -50.5t-10 -35.5t-20.5 -37.5t-50.5 -54.5l-60 -57t-41 -27.5t-24.5 12.5t-11.5 64q-3 32 7.5 54.5t27.5 47.5q25 33 66 69.5t91 69.5t107 59t114.5 38.5t111.5 8.5t100 -32q47 -29 65.5 -84 t14 -126t-30 -154t-65 -169t-91 -170t-108.5 -157q-58 -73 -127 -146.5t-146.5 -138t-161.5 -114.5t-170 -75.5t-173.5 -23t-171.5 44.5q-85 41 -127.5 111t-51.5 157t11.5 186.5t62.5 200.5t101.5 198.5t127.5 180.5q103 125 215 217t221 152.5t207.5 91t174.5 33.5 t130 -11t89.5 -33.5t54 -38.5t21.5 -26t3.5 -14t-2.5 -10.5t-9.5 -3t-16.5 9.5t-29 21t-51.5 21.5t-79.5 14t-114 -1.5t-154.5 -42t-183.5 -100t-195.5 -154.5t-189.5 -204.5q-61 -77 -117 -166.5t-99 -182t-69.5 -183t-27.5 -168t28 -138t96 -92.5t145.5 -29t161 32 t166 78.5t161 111t145 130t118.5 133.5q55 72 101.5 153.5t80.5 163.5t55 160.5t25.5 144t-8.5 114t-47 71.5zM1569 1667q-2 -2 -13 -17t-31.5 -31t-49 -28t-64.5 -8q-39 4 -73.5 14t-64.5 21l-56 20.5t-48 12.5q-18 2 -33 -2t-28.5 -10.5t-26 -15t-24.5 -15.5 q-17 -10 -24 -0.5t5 26.5q6 8 19 22.5t32.5 28.5t44.5 23.5t54 7.5q36 -3 62 -10.5t50 -16.5l49 -18t60 -16q35 -8 72 -2t63 35q6 6 12.5 6.5t11.5 -2.5t6 -9.5t-5 -15.5z"/>
    <glyph glyph-name="Odieresis" unicode="Ö" horiz-adv-x="1221" d="M1325 1296q-47 31 -102 29.5t-105.5 -21t-90 -51t-54.5 -61.5q-16 -32 -20 -50.5t-10 -35.5t-20.5 -37.5t-50.5 -54.5l-60 -57t-41 -27.5t-24.5 12.5t-11.5 64q-3 32 7.5 54.5t27.5 47.5q25 33 66 69.5t91 69.5t107 59t114.5 38.5t111.5 8.5t100 -32q48 -29 66 -84 t13.5 -126t-30 -154t-65 -169t-91 -170t-108.5 -157q-58 -73 -127 -146.5t-146.5 -138t-161.5 -114.5t-170 -75.5t-173.5 -23t-171.5 44.5t-127 111.5t-52 156.5t11.5 186.5t62.5 200.5t101 198.5t128 180.5q103 125 215 217t221 152.5t207.5 91t174.5 33.5t130 -11 t89.5 -33.5t54 -38.5t21.5 -26t3.5 -14t-2.5 -10.5t-9.5 -3t-16.5 9.5t-29 21t-51.5 21.5t-79.5 14t-114 -1.5t-154.5 -42t-183.5 -100t-195.5 -154.5t-189.5 -204.5q-61 -77 -117 -166.5t-99 -182t-69.5 -183t-27.5 -168t28 -138t96 -92.5t145.5 -29t161 31.5t166 78.5 t161 111.5t145 129.5t118.5 134q55 72 101.5 153.5t80.5 163.5t55 160.5t25.5 144t-8.5 114t-47 71.5zM1118 1769q17 -3 30 -12t20.5 -20.5t9.5 -25t-2 -25.5q-16 -45 -43.5 -60.5t-59.5 4.5q-20 12 -25 20.5t-0.5 18.5t15.5 23.5t22 36.5q3 7 2.5 15t1 14.5t7.5 10t22 0.5z M1325 1769q17 -3 30 -12t20.5 -20.5t9.5 -25t-3 -25.5q-15 -45 -42.5 -60.5t-59.5 4.5q-20 12 -25 20.5t-0.5 18.5t15.5 23.5t22 36.5q3 7 2.5 15t1 14.5t7.5 10t22 0.5z"/>
    <glyph glyph-name="uni1ECE" unicode="Ỏ" horiz-adv-x="1221" d="M1325 1296q34 -23 47 -71.5t8.5 -114t-25.5 -144t-55 -160.5t-80.5 -163.5t-101.5 -153.5q-51 -66 -118.5 -134t-145 -129.5t-161 -111.5t-166 -78.5t-161 -31.5t-145.5 29t-96 92.5t-28 138t27.5 168t69.5 183t99 182t117 166.5q90 114 189.5 204.5t195.5 154.5 t183.5 100t154.5 42t114 1.5t79.5 -14t51.5 -21.5t29 -21t16.5 -9.5t9.5 3t2.5 10.5t-3.5 14t-21.5 26t-54 38.5t-89.5 33.5t-130 11t-174.5 -33.5t-207.5 -91t-221 -152.5t-215 -217q-69 -83 -128 -180.5t-101 -198.5t-62.5 -200.5t-11.5 -186.5t52 -156.5t127 -111.5 t171.5 -44.5t173.5 23t170 75.5t161.5 114.5t146.5 138t127 146.5q57 73 108.5 157t91 170t65 169t30 154t-13.5 126t-66 84q-46 28 -100 32t-111.5 -8.5t-114.5 -38.5t-107 -59t-91 -69.5t-66 -69.5q-17 -25 -27.5 -47.5t-7.5 -54.5q3 -47 11.5 -64t24.5 -12.5t41 27.5 l60 57q36 34 50.5 54.5t20.5 37.5t10 35.5t20 50.5q15 30 54.5 61.5t90 51t105.5 21t102 -29.5zM1468 1500q4 -20 -5 -22t-16 14q-12 35 -0.5 76t97 72t91.5 93t-66 86q-56 18 -66 -14q-2 -6 24 -19.5t8 -37.5q-15 -20 -42 -11q-56 18 -40 66q15 45 58.5 66.5t93.5 5.5 q137 -46 92 -183q-18 -55 -125 -81.5t-104 -110.5z"/>
    <glyph glyph-name="uni1ECC" unicode="Ọ" horiz-adv-x="1221" d="M1325 1296q-47 31 -102 29.5t-105.5 -21t-90 -51t-54.5 -61.5q-16 -32 -20 -50.5t-10 -35.5t-20.5 -37.5t-50.5 -54.5l-60 -57t-41 -27.5t-24.5 12.5t-11.5 64q-3 32 7.5 54.5t27.5 47.5q25 33 66 69.5t91 69.5t107 59t114.5 38.5t111.5 8.5t100 -32q48 -29 66 -84 t13.5 -126t-30 -154t-65 -169t-91 -170t-108.5 -157q-58 -73 -127 -146.5t-146.5 -138t-161.5 -114.5t-170 -75.5t-173.5 -23t-171.5 44.5t-127 111.5t-52 156.5t11.5 186.5t62.5 200.5t101 198.5t128 180.5q103 125 215 217t221 152.5t207.5 91t174.5 33.5t130 -11 t89.5 -33.5t54 -38.5t21.5 -26t3.5 -14t-2.5 -10.5t-9.5 -3t-16.5 9.5t-29 21t-51.5 21.5t-79.5 14t-114 -1.5t-154.5 -42t-183.5 -100t-195.5 -154.5t-189.5 -204.5q-61 -77 -117 -166.5t-99 -182t-69.5 -183t-27.5 -168t28 -138t96 -92.5t145.5 -29t161 31.5t166 78.5 t161 111.5t145 129.5t118.5 134q55 72 101.5 153.5t80.5 163.5t55 160.5t25.5 144t-8.5 114t-47 71.5zM172 -142q17 -3 30 -12t20.5 -21t9.5 -25.5t-2 -25.5q-16 -45 -43.5 -60.5t-59.5 4.5q-20 12 -25 20.5t-1 19t15 24t23 35.5q3 7 2.5 15t1 14.5t7.5 10t22 1.5z"/>
    <glyph glyph-name="Ohorn" unicode="Ơ" horiz-adv-x="1374" d="M1538 1800q127 -6 212 -25.5t136 -48.5t71 -64.5t17 -74.5q-3 -18 -30 -48t-65 -62.5t-82 -63t-81 -49.5q-80 -41 -131.5 -57.5t-79.5 -26.5q-53 -18 -82 -18q22 -43 24 -101t-12 -125.5t-41.5 -141.5t-64.5 -148.5t-82.5 -147t-95.5 -135.5q-57 -73 -126.5 -146.5 t-146.5 -138t-161 -114.5t-170.5 -75.5t-174 -23t-171.5 44.5q-84 41 -127 111t-52 157t11.5 186.5t62.5 200.5t101.5 198.5t128.5 180.5q103 125 215 217t220.5 152.5t207 91t174.5 33.5t130.5 -11t90 -33.5t53.5 -38t21 -25.5t3.5 -14t-2.5 -11t-9.5 -3t-16.5 9 q-10 9 -29 21t-51.5 21.5t-79.5 14t-114 -1.5t-154.5 -42t-183.5 -100t-195.5 -154.5t-189.5 -204.5q-61 -77 -117 -166.5t-99 -182t-69.5 -183t-27.5 -168t28 -138t96 -92.5t145.5 -29t161.5 32t166.5 78.5t161 111t144.5 130t118 134.5q55 72 101.5 153t81 163t55 160.5 t25 144t-8.5 114t-47 71.5q-47 31 -102 29.5t-105.5 -21t-90 -51t-54.5 -61.5q-16 -32 -20 -50.5t-10 -35.5t-20 -37.5t-50 -54.5l-60.5 -57t-40.5 -27.5t-25 12.5t-12 64q-3 32 7.5 54.5t27.5 47.5q25 33 66 69.5t91.5 69.5t107 59t114 38.5t111.5 8.5t100 -32 q26 -16 41 -37l41.5 4t40.5 10q29 4 85.5 24.5t125.5 57.5q35 19 65 41.5t52.5 44t38 40.5t22.5 32q22 40 10.5 70.5t-37.5 51t-58 31t-50 11.5q-19 1 -41.5 3.5t-42.5 4t-36.5 1t-23.5 -4.5q-11 -8 -21.5 -11.5t-21.5 -3.5t-23 2t-26 5q-21 4 -35.5 17.5t-22.5 29.5 t-11.5 31t-3.5 22q1 13 14.5 15t31.5 -1t34.5 -8t23.5 -6z"/>
    <glyph glyph-name="uni1EDC" unicode="Ờ" horiz-adv-x="1374" d="M1538 1800q127 -6 212 -25.5t136 -48.5t71 -64.5t17 -74.5q-3 -18 -30 -48t-65 -62.5t-82 -63t-81 -49.5q-80 -41 -131.5 -57.5t-79.5 -26.5q-53 -18 -82 -18q22 -43 24 -101t-12 -125.5t-41.5 -141.5t-64.5 -148.5t-82.5 -147t-95.5 -135.5q-57 -73 -126.5 -146.5 t-146.5 -138t-161 -114.5t-170.5 -75.5t-174 -23t-171.5 44.5q-84 41 -127 111t-52 157t11.5 186.5t62.5 200.5t101.5 198.5t128.5 180.5q103 125 215 217t220.5 152.5t207 91t174.5 33.5t130.5 -11t90 -33.5t53.5 -38t21 -25.5t3.5 -14t-2.5 -11t-9.5 -3t-16.5 9 q-10 9 -29 21t-51.5 21.5t-79.5 14t-114 -1.5t-154.5 -42t-183.5 -100t-195.5 -154.5t-189.5 -204.5q-61 -77 -117 -166.5t-99 -182t-69.5 -183t-27.5 -168t28 -138t96 -92.5t145.5 -29t161.5 32t166.5 78.5t161 111t144.5 130t118 134.5q55 72 101.5 153t81 163t55 160.5 t25 144t-8.5 114t-47 71.5q-47 31 -102 29.5t-105.5 -21t-90 -51t-54.5 -61.5q-16 -32 -20 -50.5t-10 -35.5t-20 -37.5t-50 -54.5l-60.5 -57t-40.5 -27.5t-25 12.5t-12 64q-3 32 7.5 54.5t27.5 47.5q25 33 66 69.5t91.5 69.5t107 59t114 38.5t111.5 8.5t100 -32 q26 -16 41 -37l41.5 4t40.5 10q29 4 85.5 24.5t125.5 57.5q35 19 65 41.5t52.5 44t38 40.5t22.5 32q22 40 10.5 70.5t-37.5 51t-58 31t-50 11.5q-19 1 -41.5 3.5t-42.5 4t-36.5 1t-23.5 -4.5q-11 -8 -21.5 -11.5t-21.5 -3.5t-23 2t-26 5q-21 4 -35.5 17.5t-22.5 29.5 t-11.5 31t-3.5 22q1 13 14.5 15t31.5 -1t34.5 -8t23.5 -6zM1782 1887q8 17 21 34.5t26 27.5q9 8 21.5 1.5t17.5 -22.5q7 -24 18.5 -47t25.5 -44t30.5 -38t33.5 -29q5 -3 5 -9.5t-4.5 -12.5t-13 -9.5t-20.5 -0.5q-10 2 -29.5 12.5t-42 25.5t-44 33t-33.5 35q-6 9 -11.5 21.5 t-0.5 21.5z"/>
    <glyph glyph-name="uni1EDA" unicode="Ớ" horiz-adv-x="1374" d="M1538 1800q127 -6 212 -25.5t136 -48.5t71 -64.5t17 -74.5q-3 -18 -30 -48t-65 -62.5t-82 -63t-81 -49.5q-80 -41 -131.5 -57.5t-79.5 -26.5q-53 -18 -82 -18q22 -43 24 -101t-12 -125.5t-41.5 -141.5t-64.5 -148.5t-82.5 -147t-95.5 -135.5q-57 -73 -126.5 -146.5 t-146.5 -138t-161 -114.5t-170.5 -75.5t-174 -23t-171.5 44.5q-84 41 -127 111t-52 157t11.5 186.5t62.5 200.5t101.5 198.5t128.5 180.5q103 125 215 217t220.5 152.5t207 91t174.5 33.5t130.5 -11t90 -33.5t53.5 -38t21 -25.5t3.5 -14t-2.5 -11t-9.5 -3t-16.5 9 q-10 9 -29 21t-51.5 21.5t-79.5 14t-114 -1.5t-154.5 -42t-183.5 -100t-195.5 -154.5t-189.5 -204.5q-61 -77 -117 -166.5t-99 -182t-69.5 -183t-27.5 -168t28 -138t96 -92.5t145.5 -29t161.5 32t166.5 78.5t161 111t144.5 130t118 134.5q55 72 101.5 153t81 163t55 160.5 t25 144t-8.5 114t-47 71.5q-47 31 -102 29.5t-105.5 -21t-90 -51t-54.5 -61.5q-16 -32 -20 -50.5t-10 -35.5t-20 -37.5t-50 -54.5l-60.5 -57t-40.5 -27.5t-25 12.5t-12 64q-3 32 7.5 54.5t27.5 47.5q25 33 66 69.5t91.5 69.5t107 59t114 38.5t111.5 8.5t100 -32 q26 -16 41 -37l41.5 4t40.5 10q29 4 85.5 24.5t125.5 57.5q35 19 65 41.5t52.5 44t38 40.5t22.5 32q22 40 10.5 70.5t-37.5 51t-58 31t-50 11.5q-19 1 -41.5 3.5t-42.5 4t-36.5 1t-23.5 -4.5q-11 -8 -21.5 -11.5t-21.5 -3.5t-23 2t-26 5q-21 4 -35.5 17.5t-22.5 29.5 t-11.5 31t-3.5 22q1 13 14.5 15t31.5 -1t34.5 -8t23.5 -6zM2160 1846q5 -9 -0.5 -21.5t-11.5 -21.5q-12 -17 -33.5 -35t-44 -33t-42 -25.5t-29.5 -12.5q-12 -3 -20.5 0.5t-13 9.5t-4.5 12.5t5 9.5q17 12 33.5 29t30.5 38t25.5 44t18.5 47q5 16 17.5 22.5t21.5 -1.5 q13 -10 26 -27.5t21 -34.5z"/>
    <glyph glyph-name="uni1EE0" unicode="Ỡ" horiz-adv-x="1374" d="M1538 1800q127 -6 212 -25.5t136 -48.5t71 -64.5t17 -74.5q-3 -18 -30 -48t-65 -62.5t-82 -63t-81 -49.5q-80 -41 -131.5 -57.5t-79.5 -26.5q-53 -18 -82 -18q22 -43 24 -101t-12 -125.5t-41.5 -141.5t-64.5 -148.5t-82.5 -147t-95.5 -135.5q-57 -73 -126.5 -146.5 t-146.5 -138t-161 -114.5t-170.5 -75.5t-174 -23t-171.5 44.5q-84 41 -127 111t-52 157t11.5 186.5t62.5 200.5t101.5 198.5t128.5 180.5q103 125 215 217t220.5 152.5t207 91t174.5 33.5t130.5 -11t90 -33.5t53.5 -38t21 -25.5t3.5 -14t-2.5 -11t-9.5 -3t-16.5 9 q-10 9 -29 21t-51.5 21.5t-79.5 14t-114 -1.5t-154.5 -42t-183.5 -100t-195.5 -154.5t-189.5 -204.5q-61 -77 -117 -166.5t-99 -182t-69.5 -183t-27.5 -168t28 -138t96 -92.5t145.5 -29t161.5 32t166.5 78.5t161 111t144.5 130t118 134.5q55 72 101.5 153t81 163t55 160.5 t25 144t-8.5 114t-47 71.5q-47 31 -102 29.5t-105.5 -21t-90 -51t-54.5 -61.5q-16 -32 -20 -50.5t-10 -35.5t-20 -37.5t-50 -54.5l-60.5 -57t-40.5 -27.5t-25 12.5t-12 64q-3 32 7.5 54.5t27.5 47.5q25 33 66 69.5t91.5 69.5t107 59t114 38.5t111.5 8.5t100 -32 q26 -16 41 -37l41.5 4t40.5 10q29 4 85.5 24.5t125.5 57.5q35 19 65 41.5t52.5 44t38 40.5t22.5 32q22 40 10.5 70.5t-37.5 51t-58 31t-50 11.5q-19 1 -41.5 3.5t-42.5 4t-36.5 1t-23.5 -4.5q-11 -8 -21.5 -11.5t-21.5 -3.5t-23 2t-26 5q-21 4 -35.5 17.5t-22.5 29.5 t-11.5 31t-3.5 22q1 13 14.5 15t31.5 -1t34.5 -8t23.5 -6zM2202 1866q-2 -3 -13 -18t-31 -31t-49 -27.5t-65 -7.5q-39 4 -73.5 14t-64.5 21l-56 20t-47 12q-18 2 -33 -1.5t-28.5 -10.5t-26.5 -15.5t-25 -15.5q-17 -9 -24 0.5t6 26.5q5 7 18 22t32.5 29t44.5 23.5t54 7.5 q36 -3 62 -10.5t50 -16.5l49 -18.5t60 -16.5q35 -8 72 -2t63 35q6 6 12.5 6.5t11.5 -2.5t6 -9.5t-5 -14.5z"/>
    <glyph glyph-name="uni1EDE" unicode="Ở" horiz-adv-x="1374" d="M1538 1800q-7 1 -23.5 6t-34.5 8t-31.5 1t-14.5 -15q0 -7 3.5 -22t11.5 -31t22.5 -29.5t35.5 -17.5q14 -3 26 -5t23 -2t21.5 3.5t21.5 11.5q7 4 23.5 4.5t36.5 -1t42.5 -4t41.5 -3.5q18 -1 50 -11.5t58 -31t37.5 -51t-10.5 -70.5q-7 -13 -22.5 -32t-38 -40.5t-52.5 -44 t-65 -41.5q-69 -37 -125.5 -57.5t-85.5 -24.5q-19 -8 -40.5 -10l-41.5 -4q-15 21 -41 37q-46 28 -100 32t-111.5 -8.5t-114 -38.5t-107 -59t-91.5 -69.5t-66 -69.5q-17 -25 -27.5 -47.5t-7.5 -54.5q3 -47 12 -64t25 -12.5t40.5 27.5l60.5 57t50 54.5t20 37.5t10 35.5 t20 50.5q15 30 54.5 61.5t90 51t105.5 21t102 -29.5q34 -23 47 -71.5t8.5 -114t-25 -144t-55 -160.5t-81 -163t-101.5 -153q-51 -66 -118 -134.5t-144.5 -130t-161 -111t-166.5 -78.5t-161.5 -32t-145.5 29t-96 92.5t-28 138t27.5 168t69.5 183t99 182t117 166.5 q90 114 189.5 204.5t195.5 154.5t183.5 100t154.5 42t114 1.5t79.5 -14t51.5 -21.5t29 -21q10 -8 16.5 -9t9.5 3t2.5 11t-3.5 14t-21 25.5t-53.5 38t-90 33.5t-130.5 11t-174.5 -33.5t-207 -91t-220.5 -152.5t-215 -217q-69 -83 -128.5 -180.5t-101.5 -198.5t-62.5 -200.5 t-11.5 -186.5t52 -157t127 -111q84 -42 171.5 -44.5t174 23t170.5 75.5t161 114.5t146.5 138t126.5 146.5q50 63 95.5 135.5t82.5 147t64.5 148.5t41.5 141.5t12 125.5t-24 101q29 0 82 18q28 10 79.5 26.5t131.5 57.5q37 19 81 49.5t82 63t65 62.5t30 48q3 39 -17 74.5 t-71 64.5t-136 48.5t-212 25.5zM2032 1500q4 -20 -5 -22t-16 14q-12 35 -0.5 76t97 72t91.5 93t-66 86q-56 18 -66 -14q-2 -6 24 -19.5t8 -37.5q-15 -20 -42 -11q-56 18 -40 66q15 45 58.5 66.5t93.5 5.5q137 -46 92 -183q-18 -55 -125 -81.5t-104 -110.5z"/>
    <glyph glyph-name="uni1EE2" unicode="Ợ" horiz-adv-x="1374" d="M1538 1800q127 -6 212 -25.5t136 -48.5t71 -64.5t17 -74.5q-3 -18 -30 -48t-65 -62.5t-82 -63t-81 -49.5q-80 -41 -131.5 -57.5t-79.5 -26.5q-53 -18 -82 -18q22 -43 24 -101t-12 -125.5t-41.5 -141.5t-64.5 -148.5t-82.5 -147t-95.5 -135.5q-57 -73 -126.5 -146.5 t-146.5 -138t-161 -114.5t-170.5 -75.5t-174 -23t-171.5 44.5q-84 41 -127 111t-52 157t11.5 186.5t62.5 200.5t101.5 198.5t128.5 180.5q103 125 215 217t220.5 152.5t207 91t174.5 33.5t130.5 -11t90 -33.5t53.5 -38t21 -25.5t3.5 -14t-2.5 -11t-9.5 -3t-16.5 9 q-10 9 -29 21t-51.5 21.5t-79.5 14t-114 -1.5t-154.5 -42t-183.5 -100t-195.5 -154.5t-189.5 -204.5q-61 -77 -117 -166.5t-99 -182t-69.5 -183t-27.5 -168t28 -138t96 -92.5t145.5 -29t161.5 32t166.5 78.5t161 111t144.5 130t118 134.5q55 72 101.5 153t81 163t55 160.5 t25 144t-8.5 114t-47 71.5q-47 31 -102 29.5t-105.5 -21t-90 -51t-54.5 -61.5q-16 -32 -20 -50.5t-10 -35.5t-20 -37.5t-50 -54.5l-60.5 -57t-40.5 -27.5t-25 12.5t-12 64q-3 32 7.5 54.5t27.5 47.5q25 33 66 69.5t91.5 69.5t107 59t114 38.5t111.5 8.5t100 -32 q26 -16 41 -37l41.5 4t40.5 10q29 4 85.5 24.5t125.5 57.5q35 19 65 41.5t52.5 44t38 40.5t22.5 32q22 40 10.5 70.5t-37.5 51t-58 31t-50 11.5q-19 1 -41.5 3.5t-42.5 4t-36.5 1t-23.5 -4.5q-11 -8 -21.5 -11.5t-21.5 -3.5t-23 2t-26 5q-21 4 -35.5 17.5t-22.5 29.5 t-11.5 31t-3.5 22q1 13 14.5 15t31.5 -1t34.5 -8t23.5 -6zM172 -142q17 -3 30 -12t20.5 -21t9.5 -25.5t-2 -25.5q-16 -45 -43.5 -60.5t-59.5 4.5q-20 12 -25 20.5t-1 19t15 24t23 35.5q3 7 2.5 15t1 14.5t7.5 10t22 1.5z"/>
    <glyph glyph-name="Oslash" unicode="Ø" horiz-adv-x="1221" d="M1415 1448q12 -12 16 -22.5t0.5 -16t-13.5 -4t-25 13.5l-66 -84q61 -25 87.5 -78t26 -125t-24.5 -157.5t-64.5 -174.5t-94 -176.5t-112.5 -162.5q-55 -71 -121.5 -141.5t-140.5 -133t-154 -112t-163 -78t-167 -32t-166 27.5l-75 -96q-10 -13 -25 -12.5t-27 9.5t-16.5 23 t6.5 29l66 82q-73 45 -108 115.5t-39.5 156.5t17.5 182.5t63.5 194t99 191.5t124.5 175q103 125 215 217t221 152.5t207.5 91t174.5 33.5q75 3 129.5 -11t89.5 -34l78 98q10 13 24 13t25 -8.5t15 -22t-7 -27.5zM410 963q-58 -73 -112 -157.5t-96.5 -173t-70.5 -175.5 t-34 -163.5t14 -139t73 -101.5l128 155.5l165.5 202l188 230l196.5 241l190.5 234l170.5 209.5q-40 1 -80 -11.5t-73.5 -32t-59 -43.5t-37.5 -46q-16 -32 -20 -50.5t-10 -35.5t-20.5 -37.5t-50.5 -54.5l-60 -57t-41 -27.5t-24.5 12.5t-11.5 64q-3 32 7.5 54.5t27.5 47.5 q31 41 84 85.5t118 81.5t136 59.5t137 19.5l80 96q-32 9 -79 15t-113 -1q-67 -6 -154.5 -42t-183.5 -100t-195.5 -154.5t-189.5 -204.5zM1305 1307l-168 -207.5l-190.5 -234.5l-198.5 -243.5l-191 -234.5l-169 -207l-132 -162q67 -21 144 -12t156.5 40.5t159 81t153 109 t137 124.5t112.5 128q55 72 101 153.5t80 164t53.5 161.5t22 146t-14 117.5t-55.5 75.5z"/>
    <glyph glyph-name="OE" unicode="Œ" horiz-adv-x="2384" d="M872 -342q36 -36 113 -53.5t187 -6t249.5 58.5t300.5 140q95 55 172.5 110.5t138 108t104 100t71.5 85.5q6 8 7.5 21.5t3 30t6 35t16.5 38.5q29 46 56.5 54t43.5 -30q6 -15 -10.5 -45.5t-46.5 -71.5q-39 -51 -88 -109t-113.5 -119.5t-147.5 -124.5t-188 -122 q-174 -98 -321.5 -149t-265.5 -63.5t-204 11t-137 74.5q-35 36 -56.5 90.5t-23.5 120.5t17.5 141.5t66.5 153.5q-74 -54 -152 -95.5t-158 -61.5t-160.5 -15t-157.5 43q-84 42 -127 111.5t-52 156.5t11.5 186.5t62.5 200.5t101 198.5t128 180.5q103 125 215 217t221 152.5 t207.5 91t174.5 33.5t130 -11t89.5 -33.5t54 -38.5t21.5 -26t3.5 -14t-2.5 -10.5t-9.5 -3t-16.5 9.5t-29 21t-51.5 21.5t-79.5 14t-114 -1.5t-154.5 -42t-183.5 -100t-195.5 -154.5t-189.5 -204.5q-61 -77 -117 -166.5t-99 -182t-69.5 -183t-27.5 -168t28 -138t96 -92.5 t145.5 -29t161 31.5t166 78.5t161 111.5t145 129.5t118.5 134q55 72 101.5 153.5t80.5 163.5t55 160.5t25.5 144t-8.5 114t-47 71.5q-47 31 -102 29.5t-105.5 -21t-90 -51t-54.5 -61.5q-16 -32 -20 -50.5t-10 -35.5t-20.5 -37.5t-50.5 -54.5l-60 -57t-41 -27.5t-24.5 12.5 t-11.5 64q-3 32 7.5 54.5t27.5 47.5q25 33 66 69.5t91 69.5t107 59t114.5 38.5t111.5 8.5t100 -32q42 -26 61 -70.5t19 -103.5q62 87 163.5 157t226 120.5t263.5 81t277 40.5q27 2 53.5 2t54.5 -18q38 -26 49 -42t-1 -27.5t-45 -21.5l-81 -24q-32 -9 -53 -12t-36.5 -2 t-27.5 4.5l-24.5 7.5t-28.5 7.5t-39 4.5q-64 1 -142.5 -16t-160 -48t-160 -74.5t-144 -94t-111 -107t-60.5 -114.5q-12 -48 5 -80.5t52.5 -52t83 -28t96.5 -8.5t93.5 7t73.5 18q32 12 52.5 15.5t31.5 -1.5t13.5 -18t-1.5 -35q-4 -21 -7 -35t-13.5 -25t-33 -22t-65.5 -26 q-24 -9 -88 -29t-151 -56t-190.5 -90.5t-207.5 -131.5q-82 -60 -144 -127.5t-104.5 -136t-66 -135t-28 -126t10 -108.5t47.5 -82zM1145 461q101 66 204 118.5t194 91.5t163.5 65l112.5 40q7 2 10 6t2 7t-6 4.5t-13 -0.5q-46 -15 -110 -23t-128 -2.5t-117.5 29t-78.5 71.5 q-40 -105 -101 -210.5t-132 -196.5z"/>
    <glyph glyph-name="Ugrave" unicode="Ù" d="M1538 1544q8 17 21.5 34.5t25.5 27.5q9 8 21.5 1.5t17.5 -22.5q7 -24 18.5 -47t26 -44t31 -38t33.5 -29q4 -3 4.5 -9.5t-4 -12.5t-13 -9.5t-20.5 -0.5q-10 2 -30 12.5t-42.5 25.5t-44 33t-33.5 35q-6 9 -11.5 21.5t-0.5 21.5zM817 713q-89 -146 -137 -254t-63 -185 t0.5 -126t54.5 -76q38 -28 86 -26.5t109.5 28t137 76.5t169.5 120l103 81.5l116.5 98.5l119 107l111 106t92.5 96t64 77l136 196.5l124 183l111.5 159.5t99.5 126q7 8 15 16t17 12.5t18 4.5t17 -8q19 -20 22 -48.5t-20 -76.5q-11 -24 -27 -48.5t-33.5 -44t-35 -31 t-31.5 -9.5q-23 4 -58.5 -33.5t-81 -105.5t-100.5 -160.5l-116 -198.5q-56 -97 -98 -199t-73 -201.5t-52.5 -192t-36.5 -169.5q-4 -21 -18.5 -20t-29 16t-24 40t-2.5 52q32 133 90.5 296t159.5 345q3 5 0 6t-6 -2q-32 -35 -72.5 -75l-86 -82.5l-95 -86.5l-99 -86.5 l-98.5 -82.5l-94 -74q-100 -76 -186 -133t-159 -88.5t-133.5 -35.5t-109.5 26q-63 38 -84 100.5t-4.5 151t69.5 205t138 263.5q92 159 166.5 276.5t122.5 202t65 139t-6 87.5q-21 29 -68.5 39t-110 3.5t-132.5 -28t-135 -55.5l-166 -88.5t-115.5 -71.5t-73 -63t-36.5 -62 q-10 -30 -15.5 -48.5t-15 -36.5t-27 -39.5t-51.5 -57.5q-25 -27 -46 -47t-38 -24.5t-29.5 11t-21.5 60.5q-3 15 -0.5 32t9 33.5t16 31t20.5 24.5q20 20 69 61.5t124 94t174 110.5t219 111q81 35 163 60.5t153 35.5t125.5 1.5t80.5 -40.5q40 -51 31.5 -116t-55.5 -156 t-127.5 -215.5z"/>
    <glyph glyph-name="Uacute" unicode="Ú" d="M1815 1608q5 -10 -1 -22t-12 -21q-12 -17 -33.5 -35t-44 -33t-42 -26t-29.5 -13q-12 -3 -20.5 0.5t-13 10t-4.5 13t5 9.5q34 23 64.5 66.5t44.5 91.5q5 15 17 21.5t21 -1.5q13 -9 26.5 -26.5t21.5 -34.5zM817 713q-89 -146 -137 -254t-63 -185t0.5 -126t54.5 -76 q38 -28 86 -26.5t109.5 28t137 76.5t169.5 120l103 81.5l116.5 98.5l119 107l111 106t92.5 96t64 77l136 196.5l124 183l111.5 159.5t99.5 126q7 8 15 16t17 12.5t18 4.5t17 -8q19 -20 22 -48.5t-20 -76.5q-11 -24 -27 -48.5t-33.5 -44t-35 -31t-31.5 -9.5 q-23 4 -58.5 -33.5t-81 -105.5t-100.5 -160.5l-116 -198.5q-56 -97 -98 -199t-73 -201.5t-52.5 -192t-36.5 -169.5q-4 -21 -18.5 -20t-29 16t-24 40t-2.5 52q32 133 90.5 296t159.5 345q3 5 0 6t-6 -2q-32 -35 -72.5 -75l-86 -82.5l-95 -86.5l-99 -86.5l-98.5 -82.5l-94 -74 q-100 -76 -186 -133t-159 -88.5t-133.5 -35.5t-109.5 26q-63 38 -84 100.5t-4.5 151t69.5 205t138 263.5q92 159 166.5 276.5t122.5 202t65 139t-6 87.5q-21 29 -68.5 39t-110 3.5t-132.5 -28t-135 -55.5l-166 -88.5t-115.5 -71.5t-73 -63t-36.5 -62q-10 -30 -15.5 -48.5 t-15 -36.5t-27 -39.5t-51.5 -57.5q-25 -27 -46 -47t-38 -24.5t-29.5 11t-21.5 60.5q-3 15 -0.5 32t9 33.5t16 31t20.5 24.5q20 20 69 61.5t124 94t174 110.5t219 111q81 35 163 60.5t153 35.5t125.5 1.5t80.5 -40.5q40 -51 31.5 -116t-55.5 -156t-127.5 -215.5z"/>
    <glyph glyph-name="Ucircumflex" unicode="Û" d="M1686 1710q31 0 66.5 -25.5t68 -61t58 -72t36.5 -58.5q6 -12 2.5 -24t-12 -18.5t-20 -6.5t-21.5 12q-6 8 -23 26.5l-37 40l-38.5 41l-28.5 29.5q-31 31 -61 29.5t-56 -29.5l-29 -32.5l-32.5 -37t-33 -35t-30.5 -26.5q-15 -11 -27 -11.5t-19 5.5t-8 18t7 27q11 22 38 57 t61 69t71 58.5t68 24.5zM817 713q-89 -146 -137 -254t-63 -185t0.5 -126t54.5 -76q38 -28 86 -26.5t109.5 28t137 76.5t169.5 120l103 81.5l116.5 98.5l119 107l111 106t92.5 96t64 77l136 196.5l124 183l111.5 159.5t99.5 126q7 8 15 16t17 12.5t18 4.5t17 -8 q19 -20 22 -48.5t-20 -76.5q-11 -24 -27 -48.5t-33.5 -44t-35 -31t-31.5 -9.5q-23 4 -58.5 -33.5t-81 -105.5t-100.5 -160.5l-116 -198.5q-56 -97 -98 -199t-73 -201.5t-52.5 -192t-36.5 -169.5q-4 -21 -18.5 -20t-29 16t-24 40t-2.5 52q32 133 90.5 296t159.5 345q3 5 0 6 t-6 -2q-32 -35 -72.5 -75l-86 -82.5l-95 -86.5l-99 -86.5l-98.5 -82.5l-94 -74q-100 -76 -186 -133t-159 -88.5t-133.5 -35.5t-109.5 26q-63 38 -84 100.5t-4.5 151t69.5 205t138 263.5q92 159 166.5 276.5t122.5 202t65 139t-6 87.5q-21 29 -68.5 39t-110 3.5t-132.5 -28 t-135 -55.5l-166 -88.5t-115.5 -71.5t-73 -63t-36.5 -62q-10 -30 -15.5 -48.5t-15 -36.5t-27 -39.5t-51.5 -57.5q-25 -27 -46 -47t-38 -24.5t-29.5 11t-21.5 60.5q-3 15 -0.5 32t9 33.5t16 31t20.5 24.5q20 20 69 61.5t124 94t174 110.5t219 111q81 35 163 60.5t153 35.5 t125.5 1.5t80.5 -40.5q40 -51 31.5 -116t-55.5 -156t-127.5 -215.5z"/>
    <glyph glyph-name="Utilde" unicode="Ũ" d="M817 713q-89 -146 -137 -254t-63 -185t0.5 -126t54.5 -76q38 -28 86 -26.5t109.5 28t137 76.5t169.5 120l103 81.5l116.5 98.5l119 107l111 106t92.5 96t64 77l136 196.5l124 183l111.5 159.5t99.5 126q7 8 15 16t17 12.5t18 4.5t17 -8q19 -20 22 -48.5t-20 -76.5 q-11 -24 -27 -48.5t-33.5 -44t-35 -31t-31.5 -9.5q-23 4 -58.5 -33.5t-81 -105.5t-100.5 -160.5l-116 -198.5q-56 -97 -98 -199t-73 -201.5t-52.5 -192t-36.5 -169.5q-4 -21 -18.5 -20t-29 16t-24 40t-2.5 52q32 133 90.5 296t159.5 345q3 5 0 6t-6 -2q-32 -35 -72.5 -75 l-86 -82.5l-95 -86.5l-99 -86.5l-98.5 -82.5l-94 -74q-100 -76 -186 -133t-159 -88.5t-133.5 -35.5t-109.5 26q-63 38 -84 100.5t-4.5 151t69.5 205t138 263.5q92 159 166.5 276.5t122.5 202t65 139t-6 87.5q-21 29 -68.5 39t-110 3.5t-132.5 -28t-135 -55.5l-166 -88.5 t-115.5 -71.5t-73 -63t-36.5 -62q-10 -30 -15.5 -48.5t-15 -36.5t-27 -39.5t-51.5 -57.5q-25 -27 -46 -47t-38 -24.5t-29.5 11t-21.5 60.5q-3 15 -0.5 32t9 33.5t16 31t20.5 24.5q20 20 69 61.5t124 94t174 110.5t219 111q81 35 163 60.5t153 35.5t125.5 1.5t80.5 -40.5 q40 -51 31.5 -116t-55.5 -156t-127.5 -215.5zM2140 1866q-2 -3 -13 -18t-31 -31t-49 -27.5t-65 -7.5q-39 4 -73.5 14t-64.5 21l-56 20t-47 12q-18 2 -33 -1.5t-28.5 -10.5t-26.5 -15.5t-25 -15.5q-17 -9 -24 0.5t6 26.5q5 7 18 22t32.5 29t44.5 23.5t54 7.5q36 -3 62 -10.5 t50 -16.5l49 -18.5t60 -16.5q35 -8 72 -2t63 35q6 6 12.5 6.5t11.5 -2.5t6 -9.5t-5 -14.5z"/>
    <glyph glyph-name="Udieresis" unicode="Ü" d="M1606 1638q17 -3 29.5 -12t20 -21t9.5 -25.5t-2 -25.5q-15 -45 -42.5 -60t-59.5 5q-20 12 -25 20.5t-0.5 18t15 23.5t22.5 36q3 7 2.5 15.5t1 15t7.5 10t22 0.5zM1813 1638q17 -3 29.5 -12t20 -21t9.5 -25.5t-2 -25.5q-16 -45 -43.5 -60t-59.5 5q-20 12 -25 20.5t-0.5 18 t15.5 23.5t23 36q3 7 2.5 15.5t0.5 15t7 10t23 0.5zM817 713q-89 -146 -137 -254t-63 -185t0.5 -126t54.5 -76q38 -28 86 -26.5t109.5 28t137 76.5t169.5 120l103 81.5l116.5 98.5l119 107l111 106t92.5 96t64 77l136 196.5l124 183l111.5 159.5t99.5 126q7 8 15 16t17 12.5 t18 4.5t17 -8q19 -20 22 -48.5t-20 -76.5q-11 -24 -27 -48.5t-33.5 -44t-35 -31t-31.5 -9.5q-23 4 -58.5 -33.5t-81 -105.5t-100.5 -160.5l-116 -198.5q-56 -97 -98 -199t-73 -201.5t-52.5 -192t-36.5 -169.5q-4 -21 -18.5 -20t-29 16t-24 40t-2.5 52q32 133 90.5 296 t159.5 345q3 5 0 6t-6 -2q-32 -35 -72.5 -75l-86 -82.5l-95 -86.5l-99 -86.5l-98.5 -82.5l-94 -74q-100 -76 -186 -133t-159 -88.5t-133.5 -35.5t-109.5 26q-63 38 -84 100.5t-4.5 151t69.5 205t138 263.5q92 159 166.5 276.5t122.5 202t65 139t-6 87.5q-21 29 -68.5 39 t-110 3.5t-132.5 -28t-135 -55.5l-166 -88.5t-115.5 -71.5t-73 -63t-36.5 -62q-10 -30 -15.5 -48.5t-15 -36.5t-27 -39.5t-51.5 -57.5q-25 -27 -46 -47t-38 -24.5t-29.5 11t-21.5 60.5q-3 15 -0.5 32t9 33.5t16 31t20.5 24.5q20 20 69 61.5t124 94t174 110.5t219 111 q81 35 163 60.5t153 35.5t125.5 1.5t80.5 -40.5q40 -51 31.5 -116t-55.5 -156t-127.5 -215.5z"/>
    <glyph glyph-name="uni1EE6" unicode="Ủ" d="M817 713l184.5 294.5t127.5 215.5t55.5 156t-31.5 116q-26 32 -80.5 40.5t-125.5 -1.5t-153 -35.5t-163 -60.5q-120 -53 -219 -111t-174 -110.5t-124 -94t-69 -61.5q-11 -10 -20.5 -24.5t-16 -31t-9 -33.5t0.5 -32q9 -45 21.5 -60.5t29.5 -11t38 24.5t46 47 q34 36 51.5 57.5t27 39.5t15 36.5t15.5 48.5q10 32 36.5 62t73 63t115.5 71.5l166 88.5q65 34 135 55.5t132.5 28t110 -3.5t68.5 -39q23 -33 6 -87.5t-65 -139t-122.5 -202t-166.5 -276.5q-85 -147 -138 -263.5t-69.5 -205t4.5 -151t84 -100.5q49 -30 109.5 -26t133.5 35.5 t159 88.5t186 133l94 74l98.5 82.5l99 86.5l95 86.5l86 82.5t72.5 75q3 3 6 2t0 -6q-101 -182 -159.5 -345t-90.5 -296q-7 -27 2.5 -52t24 -40t29 -16t18.5 20q15 77 36.5 169.5t52.5 192t73 201.5t98 199l116 198.5t100.5 160.5t81 105.5t58.5 33.5q14 -2 31.5 9.5t35 31 t33.5 44t27 48.5q23 48 20 76.5t-22 48.5q-8 8 -17 8t-18 -4.5t-17 -12.5t-15 -16q-47 -53 -99.5 -126l-111.5 -159.5l-124 -183l-136 -196.5q-23 -32 -64 -77t-92.5 -96l-111 -106l-119 -107l-116.5 -98.5l-103 -81.5q-94 -70 -169.5 -120t-137 -76.5t-109.5 -28t-86 26.5 q-39 27 -54.5 76t-0.5 126t63 185t137 254zM1786 1500q4 -20 -5 -22t-16 14q-12 35 -0.5 76t97 72t91.5 93t-66 86q-56 18 -66 -14q-2 -6 24 -19.5t8 -37.5q-15 -20 -42 -11q-56 18 -40 66q15 45 58.5 66.5t93.5 5.5q137 -46 92 -183q-18 -55 -125 -81.5t-104 -110.5z"/>
    <glyph glyph-name="uni1EE4" unicode="Ụ" d="M817 713q-89 -146 -137 -254t-63 -185t0.5 -126t54.5 -76q38 -28 86 -26.5t109.5 28t137 76.5t169.5 120l103 81.5l116.5 98.5l119 107l111 106t92.5 96t64 77l136 196.5l124 183l111.5 159.5t99.5 126q7 8 15 16t17 12.5t18 4.5t17 -8q19 -20 22 -48.5t-20 -76.5 q-11 -24 -27 -48.5t-33.5 -44t-35 -31t-31.5 -9.5q-23 4 -58.5 -33.5t-81 -105.5t-100.5 -160.5l-116 -198.5q-56 -97 -98 -199t-73 -201.5t-52.5 -192t-36.5 -169.5q-4 -21 -18.5 -20t-29 16t-24 40t-2.5 52q32 133 90.5 296t159.5 345q3 5 0 6t-6 -2q-32 -35 -72.5 -75 l-86 -82.5l-95 -86.5l-99 -86.5l-98.5 -82.5l-94 -74q-100 -76 -186 -133t-159 -88.5t-133.5 -35.5t-109.5 26q-63 38 -84 100.5t-4.5 151t69.5 205t138 263.5q92 159 166.5 276.5t122.5 202t65 139t-6 87.5q-21 29 -68.5 39t-110 3.5t-132.5 -28t-135 -55.5l-166 -88.5 t-115.5 -71.5t-73 -63t-36.5 -62q-10 -30 -15.5 -48.5t-15 -36.5t-27 -39.5t-51.5 -57.5q-25 -27 -46 -47t-38 -24.5t-29.5 11t-21.5 60.5q-3 15 -0.5 32t9 33.5t16 31t20.5 24.5q20 20 69 61.5t124 94t174 110.5t219 111q81 35 163 60.5t153 35.5t125.5 1.5t80.5 -40.5 q40 -51 31.5 -116t-55.5 -156t-127.5 -215.5zM527 -142q17 -3 30 -12t20.5 -21t9.5 -25.5t-2 -25.5q-16 -45 -43.5 -60.5t-59.5 4.5q-20 12 -25 20.5t-1 19t15 24t23 35.5q3 7 2.5 15t1 14.5t7.5 10t22 1.5z"/>
    <glyph glyph-name="Uhorn" unicode="Ư" horiz-adv-x="1825" d="M2255 1800q127 -6 212 -25.5t136 -48.5t71 -64.5t17 -74.5q-3 -18 -30 -48t-65.5 -62.5t-82 -63t-80.5 -49.5q-80 -41 -131.5 -57.5t-79.5 -26.5q-68 -21 -98 -18q-26 -16 -60.5 -60t-76.5 -109t-90 -147l-101 -174q-56 -97 -98 -199t-73 -201.5t-52.5 -192t-36.5 -169.5 q-4 -21 -18.5 -20t-29 16t-24 40t-2.5 52q32 133 90.5 296t159.5 345q3 5 0 6.5t-6 -2.5q-32 -35 -72.5 -75l-86 -82.5l-95 -86.5l-99 -86.5l-98.5 -82.5l-94 -74q-100 -76 -185.5 -133t-158.5 -88.5t-134 -35.5t-110 26q-63 38 -84 100.5t-4.5 151t69.5 205t138 263.5 q92 159 166.5 276.5t122.5 202t65 139t-6 87.5q-21 29 -68.5 39t-110 3.5t-132.5 -28t-135 -55.5l-166 -88.5t-115.5 -71.5t-73 -63t-36.5 -62q-10 -30 -15.5 -48.5t-15 -36.5t-27 -39.5t-51.5 -57.5q-25 -27 -46 -47t-38 -24.5t-29.5 11t-21.5 60.5q-3 15 -0.5 32t9 33.5 t16 31t20.5 24.5q20 20 69 61.5t124 94t174 110.5t219 111q81 35 163 60.5t153 35.5t125.5 1.5t80.5 -40.5q40 -51 31.5 -116t-55.5 -156t-127.5 -215.5l-184.5 -294.5q-89 -146 -137 -254t-63 -185t0.5 -126t54.5 -76q38 -28 86 -26.5t109.5 28t137 76.5t169.5 120 l103 81.5l116.5 98.5l118.5 107l111 106t93 96t64 77l136 196.5l124 183l111.5 159.5t99.5 126q7 8 15 16t17 12.5t18 4.5t17 -8q19 -20 22 -48.5t-20 -76.5q-12 -26 -30.5 -54.5t-38.5 -48.5q29 5 84 26t123 56q35 19 64.5 41.5t52.5 44t38.5 40.5t22.5 32q22 40 10.5 70.5 t-37.5 51t-58 31t-50 11.5q-20 1 -42 3.5t-42.5 4t-36.5 1t-23 -4.5q-11 -8 -21.5 -11.5t-21.5 -3.5t-23 2t-26 5q-21 4 -35.5 17.5t-23 29.5t-12 31t-3.5 22q1 13 14.5 15t31.5 -1t35 -8t24 -6z"/>
    <glyph glyph-name="uni1EEA" unicode="Ừ" horiz-adv-x="1825" d="M2255 1800q127 -6 212 -25.5t136 -48.5t71 -64.5t17 -74.5q-3 -18 -30 -48t-65.5 -62.5t-82 -63t-80.5 -49.5q-80 -41 -131.5 -57.5t-79.5 -26.5q-68 -21 -98 -18q-26 -16 -60.5 -60t-76.5 -109t-90 -147l-101 -174q-56 -97 -98 -199t-73 -201.5t-52.5 -192t-36.5 -169.5 q-4 -21 -18.5 -20t-29 16t-24 40t-2.5 52q32 133 90.5 296t159.5 345q3 5 0 6.5t-6 -2.5q-32 -35 -72.5 -75l-86 -82.5l-95 -86.5l-99 -86.5l-98.5 -82.5l-94 -74q-100 -76 -185.5 -133t-158.5 -88.5t-134 -35.5t-110 26q-63 38 -84 100.5t-4.5 151t69.5 205t138 263.5 q92 159 166.5 276.5t122.5 202t65 139t-6 87.5q-21 29 -68.5 39t-110 3.5t-132.5 -28t-135 -55.5l-166 -88.5t-115.5 -71.5t-73 -63t-36.5 -62q-10 -30 -15.5 -48.5t-15 -36.5t-27 -39.5t-51.5 -57.5q-25 -27 -46 -47t-38 -24.5t-29.5 11t-21.5 60.5q-3 15 -0.5 32t9 33.5 t16 31t20.5 24.5q20 20 69 61.5t124 94t174 110.5t219 111q81 35 163 60.5t153 35.5t125.5 1.5t80.5 -40.5q40 -51 31.5 -116t-55.5 -156t-127.5 -215.5l-184.5 -294.5q-89 -146 -137 -254t-63 -185t0.5 -126t54.5 -76q38 -28 86 -26.5t109.5 28t137 76.5t169.5 120 l103 81.5l116.5 98.5l118.5 107l111 106t93 96t64 77l136 196.5l124 183l111.5 159.5t99.5 126q7 8 15 16t17 12.5t18 4.5t17 -8q19 -20 22 -48.5t-20 -76.5q-12 -26 -30.5 -54.5t-38.5 -48.5q29 5 84 26t123 56q35 19 64.5 41.5t52.5 44t38.5 40.5t22.5 32q22 40 10.5 70.5 t-37.5 51t-58 31t-50 11.5q-20 1 -42 3.5t-42.5 4t-36.5 1t-23 -4.5q-11 -8 -21.5 -11.5t-21.5 -3.5t-23 2t-26 5q-21 4 -35.5 17.5t-23 29.5t-12 31t-3.5 22q1 13 14.5 15t31.5 -1t35 -8t24 -6zM1485 1886q8 17 21 34.5t26 27.5q9 8 21.5 1.5t17.5 -22.5q7 -24 18.5 -47 t25.5 -44t30.5 -38t33.5 -29q5 -3 5 -9.5t-4.5 -12.5t-13 -9.5t-20.5 -0.5q-10 2 -29.5 12.5t-42 25.5t-44 33t-33.5 35q-6 9 -11.5 21.5t-0.5 21.5z"/>
    <glyph glyph-name="uni1EE8" unicode="Ứ" horiz-adv-x="1825" d="M2255 1800q127 -6 212 -25.5t136 -48.5t71 -64.5t17 -74.5q-3 -18 -30 -48t-65.5 -62.5t-82 -63t-80.5 -49.5q-80 -41 -131.5 -57.5t-79.5 -26.5q-68 -21 -98 -18q-26 -16 -60.5 -60t-76.5 -109t-90 -147l-101 -174q-56 -97 -98 -199t-73 -201.5t-52.5 -192t-36.5 -169.5 q-4 -21 -18.5 -20t-29 16t-24 40t-2.5 52q32 133 90.5 296t159.5 345q3 5 0 6.5t-6 -2.5q-32 -35 -72.5 -75l-86 -82.5l-95 -86.5l-99 -86.5l-98.5 -82.5l-94 -74q-100 -76 -185.5 -133t-158.5 -88.5t-134 -35.5t-110 26q-63 38 -84 100.5t-4.5 151t69.5 205t138 263.5 q92 159 166.5 276.5t122.5 202t65 139t-6 87.5q-21 29 -68.5 39t-110 3.5t-132.5 -28t-135 -55.5l-166 -88.5t-115.5 -71.5t-73 -63t-36.5 -62q-10 -30 -15.5 -48.5t-15 -36.5t-27 -39.5t-51.5 -57.5q-25 -27 -46 -47t-38 -24.5t-29.5 11t-21.5 60.5q-3 15 -0.5 32t9 33.5 t16 31t20.5 24.5q20 20 69 61.5t124 94t174 110.5t219 111q81 35 163 60.5t153 35.5t125.5 1.5t80.5 -40.5q40 -51 31.5 -116t-55.5 -156t-127.5 -215.5l-184.5 -294.5q-89 -146 -137 -254t-63 -185t0.5 -126t54.5 -76q38 -28 86 -26.5t109.5 28t137 76.5t169.5 120 l103 81.5l116.5 98.5l118.5 107l111 106t93 96t64 77l136 196.5l124 183l111.5 159.5t99.5 126q7 8 15 16t17 12.5t18 4.5t17 -8q19 -20 22 -48.5t-20 -76.5q-12 -26 -30.5 -54.5t-38.5 -48.5q29 5 84 26t123 56q35 19 64.5 41.5t52.5 44t38.5 40.5t22.5 32q22 40 10.5 70.5 t-37.5 51t-58 31t-50 11.5q-20 1 -42 3.5t-42.5 4t-36.5 1t-23 -4.5q-11 -8 -21.5 -11.5t-21.5 -3.5t-23 2t-26 5q-21 4 -35.5 17.5t-23 29.5t-12 31t-3.5 22q1 13 14.5 15t31.5 -1t35 -8t24 -6zM1863 1852q5 -9 -0.5 -21.5t-11.5 -21.5q-12 -17 -33.5 -35t-44 -33 t-42 -25.5t-29.5 -12.5q-12 -3 -20.5 0.5t-13 9.5t-4.5 12.5t5 9.5q17 12 33.5 29t30.5 38t25.5 44t18.5 47q5 16 17.5 22.5t21.5 -1.5q13 -10 26 -27.5t21 -34.5z"/>
    <glyph glyph-name="uni1EEE" unicode="Ữ" horiz-adv-x="1825" d="M2255 1800q127 -6 212 -25.5t136 -48.5t71 -64.5t17 -74.5q-3 -18 -30 -48t-65.5 -62.5t-82 -63t-80.5 -49.5q-80 -41 -131.5 -57.5t-79.5 -26.5q-68 -21 -98 -18q-26 -16 -60.5 -60t-76.5 -109t-90 -147l-101 -174q-56 -97 -98 -199t-73 -201.5t-52.5 -192t-36.5 -169.5 q-4 -21 -18.5 -20t-29 16t-24 40t-2.5 52q32 133 90.5 296t159.5 345q3 5 0 6.5t-6 -2.5q-32 -35 -72.5 -75l-86 -82.5l-95 -86.5l-99 -86.5l-98.5 -82.5l-94 -74q-100 -76 -185.5 -133t-158.5 -88.5t-134 -35.5t-110 26q-63 38 -84 100.5t-4.5 151t69.5 205t138 263.5 q92 159 166.5 276.5t122.5 202t65 139t-6 87.5q-21 29 -68.5 39t-110 3.5t-132.5 -28t-135 -55.5l-166 -88.5t-115.5 -71.5t-73 -63t-36.5 -62q-10 -30 -15.5 -48.5t-15 -36.5t-27 -39.5t-51.5 -57.5q-25 -27 -46 -47t-38 -24.5t-29.5 11t-21.5 60.5q-3 15 -0.5 32t9 33.5 t16 31t20.5 24.5q20 20 69 61.5t124 94t174 110.5t219 111q81 35 163 60.5t153 35.5t125.5 1.5t80.5 -40.5q40 -51 31.5 -116t-55.5 -156t-127.5 -215.5l-184.5 -294.5q-89 -146 -137 -254t-63 -185t0.5 -126t54.5 -76q38 -28 86 -26.5t109.5 28t137 76.5t169.5 120 l103 81.5l116.5 98.5l118.5 107l111 106t93 96t64 77l136 196.5l124 183l111.5 159.5t99.5 126q7 8 15 16t17 12.5t18 4.5t17 -8q19 -20 22 -48.5t-20 -76.5q-12 -26 -30.5 -54.5t-38.5 -48.5q29 5 84 26t123 56q35 19 64.5 41.5t52.5 44t38.5 40.5t22.5 32q22 40 10.5 70.5 t-37.5 51t-58 31t-50 11.5q-20 1 -42 3.5t-42.5 4t-36.5 1t-23 -4.5q-11 -8 -21.5 -11.5t-21.5 -3.5t-23 2t-26 5q-21 4 -35.5 17.5t-23 29.5t-12 31t-3.5 22q1 13 14.5 15t31.5 -1t35 -8t24 -6zM1994 1866q-2 -3 -13 -18t-31 -31t-49 -27.5t-65 -7.5q-39 4 -73.5 14 t-64.5 21l-56 20t-47 12q-18 2 -33 -1.5t-28.5 -10.5t-26.5 -15.5t-25 -15.5q-17 -9 -24 0.5t6 26.5q5 7 18 22t32.5 29t44.5 23.5t54 7.5q36 -3 62 -10.5t50 -16.5l49 -18.5t60 -16.5q35 -8 72 -2t63 35q6 6 12.5 6.5t11.5 -2.5t6 -9.5t-5 -14.5z"/>
    <glyph glyph-name="uni1EEC" unicode="Ử" horiz-adv-x="1825" d="M2255 1800q-7 1 -24 6t-35 8t-31.5 1t-14.5 -15q0 -7 3.5 -22t12 -31t23 -29.5t35.5 -17.5q14 -3 26 -5t23 -2t21.5 3.5t21.5 11.5q7 4 23 4.5t36.5 -1t42.5 -4t42 -3.5q18 -1 50 -11.5t58 -31t37.5 -51t-10.5 -70.5q-7 -13 -22.5 -32t-38.5 -40.5t-52.5 -44t-64.5 -41.5 q-68 -35 -123 -56t-84 -26q20 20 38.5 48.5t30.5 54.5q23 48 20 76.5t-22 48.5q-8 8 -17 8t-18 -4.5t-17 -12.5t-15 -16q-47 -53 -99.5 -126l-111.5 -159.5l-124 -183l-136 -196.5q-23 -32 -64 -77t-93 -96l-111 -106l-118.5 -107l-116.5 -98.5l-103 -81.5 q-94 -70 -169.5 -120t-137 -76.5t-109.5 -28t-86 26.5q-39 27 -54.5 76t-0.5 126t63 185t137 254l184.5 294.5t127.5 215.5t55.5 156t-31.5 116q-26 32 -80.5 40.5t-125.5 -1.5t-153 -35.5t-163 -60.5q-120 -53 -219 -111t-174 -110.5t-124 -94t-69 -61.5 q-11 -10 -20.5 -24.5t-16 -31t-9 -33.5t0.5 -32q9 -45 21.5 -60.5t29.5 -11t38 24.5t46 47q34 36 51.5 57.5t27 39.5t15 36.5t15.5 48.5q10 32 36.5 62t73 63t115.5 71.5l166 88.5q65 34 135 55.5t132.5 28t110 -3.5t68.5 -39q23 -33 6 -87.5t-65 -139t-122.5 -202 t-166.5 -276.5q-85 -147 -138 -263.5t-69.5 -205t4.5 -151t84 -100.5q49 -30 110 -26t134 35.5t158.5 88.5t185.5 133l94 74l98.5 82.5l99 86.5l95 86.5l86 82.5t72.5 75q3 4 6 2.5t0 -6.5q-101 -182 -159.5 -345t-90.5 -296q-7 -27 2.5 -52t24 -40t29 -16t18.5 20 q15 77 36.5 169.5t52.5 192t73 201.5t98 199l101 174t90 147t76.5 109t60.5 60q30 -3 98 18q28 10 79.5 26.5t131.5 57.5q37 19 80.5 49.5t82 63t65.5 62.5t30 48q3 39 -17 74.5t-71 64.5t-136 48.5t-212 25.5zM1643 1500q4 -20 -5 -22t-16 14q-12 35 -0.5 76t97 72t91.5 93 t-66 86q-56 18 -66 -14q-2 -6 24 -19.5t8 -37.5q-15 -20 -42 -11q-56 18 -40 66q15 45 58.5 66.5t93.5 5.5q137 -46 92 -183q-18 -55 -125 -81.5t-104 -110.5z"/>
    <glyph glyph-name="uni1EF0" unicode="Ự" horiz-adv-x="1825" d="M2255 1800q127 -6 212 -25.5t136 -48.5t71 -64.5t17 -74.5q-3 -18 -30 -48t-65.5 -62.5t-82 -63t-80.5 -49.5q-80 -41 -131.5 -57.5t-79.5 -26.5q-68 -21 -98 -18q-26 -16 -60.5 -60t-76.5 -109t-90 -147l-101 -174q-56 -97 -98 -199t-73 -201.5t-52.5 -192t-36.5 -169.5 q-4 -21 -18.5 -20t-29 16t-24 40t-2.5 52q32 133 90.5 296t159.5 345q3 5 0 6.5t-6 -2.5q-32 -35 -72.5 -75l-86 -82.5l-95 -86.5l-99 -86.5l-98.5 -82.5l-94 -74q-100 -76 -185.5 -133t-158.5 -88.5t-134 -35.5t-110 26q-63 38 -84 100.5t-4.5 151t69.5 205t138 263.5 q92 159 166.5 276.5t122.5 202t65 139t-6 87.5q-21 29 -68.5 39t-110 3.5t-132.5 -28t-135 -55.5l-166 -88.5t-115.5 -71.5t-73 -63t-36.5 -62q-10 -30 -15.5 -48.5t-15 -36.5t-27 -39.5t-51.5 -57.5q-25 -27 -46 -47t-38 -24.5t-29.5 11t-21.5 60.5q-3 15 -0.5 32t9 33.5 t16 31t20.5 24.5q20 20 69 61.5t124 94t174 110.5t219 111q81 35 163 60.5t153 35.5t125.5 1.5t80.5 -40.5q40 -51 31.5 -116t-55.5 -156t-127.5 -215.5l-184.5 -294.5q-89 -146 -137 -254t-63 -185t0.5 -126t54.5 -76q38 -28 86 -26.5t109.5 28t137 76.5t169.5 120 l103 81.5l116.5 98.5l118.5 107l111 106t93 96t64 77l136 196.5l124 183l111.5 159.5t99.5 126q7 8 15 16t17 12.5t18 4.5t17 -8q19 -20 22 -48.5t-20 -76.5q-12 -26 -30.5 -54.5t-38.5 -48.5q29 5 84 26t123 56q35 19 64.5 41.5t52.5 44t38.5 40.5t22.5 32q22 40 10.5 70.5 t-37.5 51t-58 31t-50 11.5q-20 1 -42 3.5t-42.5 4t-36.5 1t-23 -4.5q-11 -8 -21.5 -11.5t-21.5 -3.5t-23 2t-26 5q-21 4 -35.5 17.5t-23 29.5t-12 31t-3.5 22q1 13 14.5 15t31.5 -1t35 -8t24 -6zM483 -142q17 -3 30 -12t20.5 -21t9.5 -25.5t-2 -25.5q-16 -45 -43.5 -60.5 t-59.5 4.5q-20 12 -25 20.5t-1 19t15 24t23 35.5q3 7 2.5 15t1 14.5t7.5 10t22 1.5z"/>
    <glyph glyph-name="Ygrave" unicode="Ỳ" horiz-adv-x="1706" d="M1958 868l-74.5 -131l-91.5 -161.5l-107.5 -180.5t-123 -188t-138.5 -184t-153 -168q-75 -74 -166 -140t-196.5 -111t-226.5 -62.5t-257 5.5q-94 16 -175 59.5t-137 110.5t-79.5 156t-1.5 197q13 67 44.5 121t72 96t87 73.5t90.5 53.5t81 35.5t59 19.5q57 15 90.5 14.5 t42.5 -12.5q11 -12 -2.5 -23.5t-42.5 -11.5q-12 0 -19 2.5l-13 4.5t-12.5 3.5t-16.5 -0.5q-31 -6 -71.5 -20t-84 -37.5t-87.5 -55t-81 -72t-64 -89.5t-38 -106q-12 -64 -3.5 -121.5t32.5 -107.5t61 -91t81.5 -72.5t94 -52t98.5 -29.5q114 -20 223 0.5t211 68.5t194.5 117.5 t172.5 147.5q66 65 130 143.5t122.5 162t111.5 169l99 164l83 146.5l64 118q3 7 0 8t-8 -6q-89 -104 -184 -199.5t-207 -189.5q-97 -80 -178.5 -137t-151.5 -89t-130.5 -37t-115.5 20q-48 21 -82 59.5t-41.5 102.5t17.5 157.5t96 224.5l73 132l76.5 140.5l70 137.5t53 123 t26 98.5t-11.5 63.5q-18 23 -63 34.5t-105 9.5t-128.5 -18.5t-133.5 -50.5l-168.5 -89.5t-120.5 -73.5t-77.5 -65t-39.5 -63q-10 -30 -15.5 -48.5t-14.5 -36.5t-26.5 -39.5t-51.5 -57.5l-47 -47t-38 -24.5t-29.5 11t-21.5 60.5q-3 15 -0.5 32t9.5 33.5t16.5 31t20.5 24.5 q20 20 69 61.5t124 94t173.5 110.5t218.5 111q81 35 159 59t144.5 32t117.5 -2t77 -42q26 -31 38 -62.5t8.5 -72t-22.5 -94t-55.5 -129t-91 -177l-129.5 -237.5q-45 -82 -68.5 -148t-32 -117t-5 -88t13.5 -62t22.5 -38.5t22.5 -17.5q49 -21 104.5 -15.5t120.5 35.5t141.5 83 t167.5 126q38 30 84 73l94.5 92.5l97 103l92 103.5l79.5 94.5t59 76.5l83 116.5l63 89.5l50.5 70l45 60l47 58l55.5 65q7 7 21 19.5t30 22.5t30.5 14.5t23.5 -3.5q18 -20 21.5 -48.5t-19.5 -76.5q-12 -24 -28 -47t-33.5 -41.5t-34.5 -30.5t-31 -14q-35 -6 -68 -39.5t-69 -87 t-75.5 -124zM1606 1799q8 17 21 34.5t26 27.5q9 8 21.5 1.5t17.5 -22.5q7 -24 18.5 -47t25.5 -44t30.5 -38t33.5 -29q5 -3 5 -9.5t-4.5 -12.5t-13 -9.5t-20.5 -0.5q-10 2 -29.5 12.5t-42 25.5t-44 33t-33.5 35q-6 9 -11.5 21.5t-0.5 21.5z"/>
    <glyph glyph-name="Yacute" unicode="Ý" horiz-adv-x="1706" d="M1875 1761q5 -9 -0.5 -21.5t-11.5 -21.5q-12 -17 -33.5 -35t-44 -33t-42.5 -25.5t-30 -13.5q-12 -3 -20.5 0.5t-13 10t-4.5 13t5 9.5q34 23 64.5 66.5t44.5 91.5q5 15 17.5 21.5t21.5 -1.5q12 -9 25.5 -26.5t21.5 -34.5zM1958 868l-74.5 -131l-91.5 -161.5l-107.5 -180.5 t-123 -188t-138.5 -184t-153 -168q-75 -74 -166 -140t-196.5 -111t-226.5 -62.5t-257 5.5q-94 16 -175 59.5t-137 110.5t-79.5 156t-1.5 197q13 67 44.5 121t72 96t87 73.5t90.5 53.5t81 35.5t59 19.5q57 15 90.5 14.5t42.5 -12.5q11 -12 -2.5 -23.5t-42.5 -11.5 q-12 0 -19 2.5l-13 4.5t-12.5 3.5t-16.5 -0.5q-31 -6 -71.5 -20t-84 -37.5t-87.5 -55t-81 -72t-64 -89.5t-38 -106q-12 -64 -3.5 -121.5t32.5 -107.5t61 -91t81.5 -72.5t94 -52t98.5 -29.5q114 -20 223 0.5t211 68.5t194.5 117.5t172.5 147.5q66 65 130 143.5t122.5 162 t111.5 169l99 164l83 146.5l64 118q3 7 0 8t-8 -6q-89 -104 -184 -199.5t-207 -189.5q-97 -80 -178.5 -137t-151.5 -89t-130.5 -37t-115.5 20q-48 21 -82 59.5t-41.5 102.5t17.5 157.5t96 224.5l73 132l76.5 140.5l70 137.5t53 123t26 98.5t-11.5 63.5q-18 23 -63 34.5 t-105 9.5t-128.5 -18.5t-133.5 -50.5l-168.5 -89.5t-120.5 -73.5t-77.5 -65t-39.5 -63q-10 -30 -15.5 -48.5t-14.5 -36.5t-26.5 -39.5t-51.5 -57.5l-47 -47t-38 -24.5t-29.5 11t-21.5 60.5q-3 15 -0.5 32t9.5 33.5t16.5 31t20.5 24.5q20 20 69 61.5t124 94t173.5 110.5 t218.5 111q81 35 159 59t144.5 32t117.5 -2t77 -42q26 -31 38 -62.5t8.5 -72t-22.5 -94t-55.5 -129t-91 -177l-129.5 -237.5q-45 -82 -68.5 -148t-32 -117t-5 -88t13.5 -62t22.5 -38.5t22.5 -17.5q49 -21 104.5 -15.5t120.5 35.5t141.5 83t167.5 126q38 30 84 73l94.5 92.5 l97 103l92 103.5l79.5 94.5t59 76.5l83 116.5l63 89.5l50.5 70l45 60l47 58l55.5 65q7 7 21 19.5t30 22.5t30.5 14.5t23.5 -3.5q18 -20 21.5 -48.5t-19.5 -76.5q-12 -24 -28 -47t-33.5 -41.5t-34.5 -30.5t-31 -14q-35 -6 -68 -39.5t-69 -87t-75.5 -124z"/>
    <glyph glyph-name="uni1EF8" unicode="Ỹ" horiz-adv-x="1706" d="M1958 868l-74.5 -131l-91.5 -161.5l-107.5 -180.5t-123 -188t-138.5 -184t-153 -168q-75 -74 -166 -140t-196.5 -111t-226.5 -62.5t-257 5.5q-94 16 -175 59.5t-137 110.5t-79.5 156t-1.5 197q13 67 44.5 121t72 96t87 73.5t90.5 53.5t81 35.5t59 19.5q57 15 90.5 14.5 t42.5 -12.5q11 -12 -2.5 -23.5t-42.5 -11.5q-12 0 -19 2.5l-13 4.5t-12.5 3.5t-16.5 -0.5q-31 -6 -71.5 -20t-84 -37.5t-87.5 -55t-81 -72t-64 -89.5t-38 -106q-12 -64 -3.5 -121.5t32.5 -107.5t61 -91t81.5 -72.5t94 -52t98.5 -29.5q114 -20 223 0.5t211 68.5t194.5 117.5 t172.5 147.5q66 65 130 143.5t122.5 162t111.5 169l99 164l83 146.5l64 118q3 7 0 8t-8 -6q-89 -104 -184 -199.5t-207 -189.5q-97 -80 -178.5 -137t-151.5 -89t-130.5 -37t-115.5 20q-48 21 -82 59.5t-41.5 102.5t17.5 157.5t96 224.5l73 132l76.5 140.5l70 137.5t53 123 t26 98.5t-11.5 63.5q-18 23 -63 34.5t-105 9.5t-128.5 -18.5t-133.5 -50.5l-168.5 -89.5t-120.5 -73.5t-77.5 -65t-39.5 -63q-10 -30 -15.5 -48.5t-14.5 -36.5t-26.5 -39.5t-51.5 -57.5l-47 -47t-38 -24.5t-29.5 11t-21.5 60.5q-3 15 -0.5 32t9.5 33.5t16.5 31t20.5 24.5 q20 20 69 61.5t124 94t173.5 110.5t218.5 111q81 35 159 59t144.5 32t117.5 -2t77 -42q26 -31 38 -62.5t8.5 -72t-22.5 -94t-55.5 -129t-91 -177l-129.5 -237.5q-45 -82 -68.5 -148t-32 -117t-5 -88t13.5 -62t22.5 -38.5t22.5 -17.5q49 -21 104.5 -15.5t120.5 35.5t141.5 83 t167.5 126q38 30 84 73l94.5 92.5l97 103l92 103.5l79.5 94.5t59 76.5l83 116.5l63 89.5l50.5 70l45 60l47 58l55.5 65q7 7 21 19.5t30 22.5t30.5 14.5t23.5 -3.5q18 -20 21.5 -48.5t-19.5 -76.5q-12 -24 -28 -47t-33.5 -41.5t-34.5 -30.5t-31 -14q-35 -6 -68 -39.5t-69 -87 t-75.5 -124zM2201 1866q-2 -3 -13 -18t-31 -31t-49 -27.5t-65 -7.5q-39 4 -73.5 14t-64.5 21l-56 20t-47 12q-18 2 -33 -1.5t-28.5 -10.5t-26.5 -15.5t-25 -15.5q-17 -9 -24 0.5t6 26.5q5 7 18 22t32.5 29t44.5 23.5t54 7.5q36 -3 62 -10.5t50 -16.5l49 -18.5t60 -16.5 q35 -8 72 -2t63 35q6 6 12.5 6.5t11.5 -2.5t6 -9.5t-5 -14.5z"/>
    <glyph glyph-name="Ydieresis" unicode="Ÿ" horiz-adv-x="1706" d="M1599 1530q17 -3 30 -12t20.5 -21t9.5 -25.5t-2 -25.5q-16 -45 -43.5 -60t-59.5 5q-20 11 -25 19.5t-0.5 18.5t15.5 24t23 36q3 7 2.5 15t0.5 14.5t7 10t22 1.5zM1806 1530q17 -3 30 -12t20.5 -21t9.5 -25.5t-2 -25.5q-16 -45 -43.5 -60t-59.5 5q-20 11 -25 19.5 t-0.5 18.5t15.5 24t23 36q3 7 2.5 15t0.5 14.5t7 10t22 1.5zM1958 868l-74.5 -131l-91.5 -161.5l-107.5 -180.5t-123 -188t-138.5 -184t-153 -168q-75 -74 -166 -140t-196.5 -111t-226.5 -62.5t-257 5.5q-94 16 -175 59.5t-137 110.5t-79.5 156t-1.5 197q13 67 44.5 121 t72 96t87 73.5t90.5 53.5t81 35.5t59 19.5q57 15 90.5 14.5t42.5 -12.5q11 -12 -2.5 -23.5t-42.5 -11.5q-12 0 -19 2.5l-13 4.5t-12.5 3.5t-16.5 -0.5q-31 -6 -71.5 -20t-84 -37.5t-87.5 -55t-81 -72t-64 -89.5t-38 -106q-12 -64 -3.5 -121.5t32.5 -107.5t61 -91t81.5 -72.5 t94 -52t98.5 -29.5q114 -20 223 0.5t211 68.5t194.5 117.5t172.5 147.5q66 65 130 143.5t122.5 162t111.5 169l99 164l83 146.5l64 118q3 7 0 8t-8 -6q-89 -104 -184 -199.5t-207 -189.5q-97 -80 -178.5 -137t-151.5 -89t-130.5 -37t-115.5 20q-48 21 -82 59.5t-41.5 102.5 t17.5 157.5t96 224.5l73 132l76.5 140.5l70 137.5t53 123t26 98.5t-11.5 63.5q-18 23 -63 34.5t-105 9.5t-128.5 -18.5t-133.5 -50.5l-168.5 -89.5t-120.5 -73.5t-77.5 -65t-39.5 -63q-10 -30 -15.5 -48.5t-14.5 -36.5t-26.5 -39.5t-51.5 -57.5l-47 -47t-38 -24.5t-29.5 11 t-21.5 60.5q-3 15 -0.5 32t9.5 33.5t16.5 31t20.5 24.5q20 20 69 61.5t124 94t173.5 110.5t218.5 111q81 35 159 59t144.5 32t117.5 -2t77 -42q26 -31 38 -62.5t8.5 -72t-22.5 -94t-55.5 -129t-91 -177l-129.5 -237.5q-45 -82 -68.5 -148t-32 -117t-5 -88t13.5 -62 t22.5 -38.5t22.5 -17.5q49 -21 104.5 -15.5t120.5 35.5t141.5 83t167.5 126q38 30 84 73l94.5 92.5l97 103l92 103.5l79.5 94.5t59 76.5l83 116.5l63 89.5l50.5 70l45 60l47 58l55.5 65q7 7 21 19.5t30 22.5t30.5 14.5t23.5 -3.5q18 -20 21.5 -48.5t-19.5 -76.5 q-12 -24 -28 -47t-33.5 -41.5t-34.5 -30.5t-31 -14q-35 -6 -68 -39.5t-69 -87t-75.5 -124z"/>
    <glyph glyph-name="uni1EF6" unicode="Ỷ" horiz-adv-x="1706" d="M1958 868l86.5 149.5t75.5 124t69 87t68 39.5q14 2 31 14t34.5 30.5t33.5 41.5t28 47q23 48 19.5 76.5t-21.5 48.5q-9 8 -23.5 3.5t-30.5 -14.5t-30 -22.5t-21 -19.5l-55.5 -65l-47 -58l-45 -60l-50.5 -70l-63 -89.5l-83 -116.5q-23 -32 -59 -76.5l-79.5 -94.5 l-92 -103.5l-97 -103l-94.5 -92.5t-84 -73q-91 -73 -167.5 -126t-141.5 -83t-120.5 -35.5t-104.5 15.5q-10 4 -22.5 17.5t-22.5 38.5t-13.5 62t5 88t32 117t68.5 148l129.5 237.5t91 177t55.5 129t22.5 94t-8.5 72t-38 62.5q-26 32 -77 42t-117.5 2t-144.5 -32t-159 -59 q-120 -53 -218.5 -111t-173.5 -110.5t-124 -94t-69 -61.5q-11 -10 -20.5 -24.5t-16.5 -31t-9.5 -33.5t0.5 -32q9 -45 21.5 -60.5t29.5 -11t38 24.5l47 47q34 36 51.5 57.5t26.5 39.5t14.5 36.5t15.5 48.5q11 32 39.5 63t77.5 65t120.5 73.5l168.5 89.5q65 34 133.5 50.5 t128.5 18.5t105 -9.5t63 -34.5q17 -21 11.5 -63.5t-26 -98.5t-53 -123l-70 -137.5l-76.5 -140.5l-73 -132q-71 -131 -96 -224.5t-17.5 -157.5t41.5 -102.5t82 -59.5q55 -25 115.5 -20t130.5 37t151.5 89t178.5 137q112 94 207 189.5t184 199.5q5 7 8 6t0 -8l-64 -118 l-83 -146.5l-99 -164t-111.5 -169t-122.5 -162t-130 -143.5q-80 -78 -172.5 -147.5t-194.5 -117.5t-211 -68.5t-223 -0.5q-49 9 -98.5 29.5t-94 52t-81.5 72.5t-61 91t-32.5 107.5t3.5 121.5q11 57 38 106t64 89.5t81 72t87.5 55t84 37.5t71.5 20q10 2 16.5 0.5t12.5 -3.5 l13 -4.5t19 -2.5q29 0 42.5 11.5t2.5 23.5q-9 12 -42.5 12.5t-90.5 -14.5q-22 -6 -59 -19.5t-81 -35.5t-90.5 -53.5t-87 -73.5t-72 -96t-44.5 -121q-22 -108 1.5 -197t79.5 -156t137 -110.5t175 -59.5q136 -23 257 -5.5t226.5 62.5t196.5 111t166 140q80 78 153 168 t138.5 184t123 188l107.5 180.5l91.5 161.5zM1870 1500q4 -20 -5 -22t-16 14q-12 35 -0.5 76t97 72t91.5 93t-66 86q-56 18 -66 -14q-2 -6 24 -19.5t8 -37.5q-15 -20 -42 -11q-56 18 -40 66q15 45 58.5 66.5t93.5 5.5q137 -46 92 -183q-18 -55 -125 -81.5t-104 -110.5z"/>
    <glyph glyph-name="uni1EF4" unicode="Ỵ" horiz-adv-x="1706" d="M1958 868l-74.5 -131l-91.5 -161.5l-107.5 -180.5t-123 -188t-138.5 -184t-153 -168q-75 -74 -166 -140t-196.5 -111t-226.5 -62.5t-257 5.5q-94 16 -175 59.5t-137 110.5t-79.5 156t-1.5 197q13 67 44.5 121t72 96t87 73.5t90.5 53.5t81 35.5t59 19.5q57 15 90.5 14.5 t42.5 -12.5q11 -12 -2.5 -23.5t-42.5 -11.5q-12 0 -19 2.5l-13 4.5t-12.5 3.5t-16.5 -0.5q-31 -6 -71.5 -20t-84 -37.5t-87.5 -55t-81 -72t-64 -89.5t-38 -106q-12 -64 -3.5 -121.5t32.5 -107.5t61 -91t81.5 -72.5t94 -52t98.5 -29.5q114 -20 223 0.5t211 68.5t194.5 117.5 t172.5 147.5q66 65 130 143.5t122.5 162t111.5 169l99 164l83 146.5l64 118q3 7 0 8t-8 -6q-89 -104 -184 -199.5t-207 -189.5q-97 -80 -178.5 -137t-151.5 -89t-130.5 -37t-115.5 20q-48 21 -82 59.5t-41.5 102.5t17.5 157.5t96 224.5l73 132l76.5 140.5l70 137.5t53 123 t26 98.5t-11.5 63.5q-18 23 -63 34.5t-105 9.5t-128.5 -18.5t-133.5 -50.5l-168.5 -89.5t-120.5 -73.5t-77.5 -65t-39.5 -63q-10 -30 -15.5 -48.5t-14.5 -36.5t-26.5 -39.5t-51.5 -57.5l-47 -47t-38 -24.5t-29.5 11t-21.5 60.5q-3 15 -0.5 32t9.5 33.5t16.5 31t20.5 24.5 q20 20 69 61.5t124 94t173.5 110.5t218.5 111q81 35 159 59t144.5 32t117.5 -2t77 -42q26 -31 38 -62.5t8.5 -72t-22.5 -94t-55.5 -129t-91 -177l-129.5 -237.5q-45 -82 -68.5 -148t-32 -117t-5 -88t13.5 -62t22.5 -38.5t22.5 -17.5q49 -21 104.5 -15.5t120.5 35.5t141.5 83 t167.5 126q38 30 84 73l94.5 92.5l97 103l92 103.5l79.5 94.5t59 76.5l83 116.5l63 89.5l50.5 70l45 60l47 58l55.5 65q7 7 21 19.5t30 22.5t30.5 14.5t23.5 -3.5q18 -20 21.5 -48.5t-19.5 -76.5q-12 -24 -28 -47t-33.5 -41.5t-34.5 -30.5t-31 -14q-35 -6 -68 -39.5t-69 -87 t-75.5 -124zM1381 -142q17 -3 30 -12t20.5 -21t9.5 -25.5t-2 -25.5q-16 -45 -43.5 -60.5t-59.5 4.5q-20 12 -25 20.5t-1 19t15 24t23 35.5q3 7 2.5 15t1 14.5t7.5 10t22 1.5z"/>
    <glyph glyph-name="Eth" unicode="Ð" horiz-adv-x="2064" d="M1989 518q-63 -143 -147.5 -265t-183 -222.5t-206 -180t-216 -138t-214.5 -96t-200.5 -55t-174 -14t-135.5 26.5q-68 29 -99 72t-32 95t25.5 111t72.5 119.5t108 121t133.5 115t148.5 101t153 80.5q114 51 232.5 84t234 52.5t224.5 26t206 3.5q55 141 78.5 268.5t15 237 t-50 197t-118 147t-188.5 89t-261 22.5q-128 -6 -251 -22.5t-235 -39t-208.5 -48.5t-171.5 -51.5t-125 -47.5t-68 -37q-27 -23 -38.5 -39.5t-23.5 -31.5t-33.5 -29t-68.5 -31l-79 -28t-48.5 -9t-17 21t15.5 63q11 31 31.5 48t46.5 30q17 8 65.5 29t127.5 49t187 60t244 60 t298 50t350 30q244 11 406.5 -54.5t240 -195.5t69 -318.5t-105.5 -422.5q40 -5 81 -12t68 -15q50 -12 78 -23.5t33 -25.5t-11 -18t-48 4q-11 2 -16.5 6t-10 8.5t-10 9.5t-17.5 9q-13 4 -32 8.5t-40.5 7.5t-44.5 5t-44 3zM1030 358q-103 -48 -201 -114t-179 -139.5 t-138.5 -149.5t-79.5 -144t-2 -123t94 -87q52 -22 127 -23t164.5 19t189.5 59.5t203 98.5t204 137t192.5 174.5t169 210.5t133.5 245q-98 2 -207.5 -5t-223 -26t-227.5 -51.5t-219 -81.5zM1395 1450q15 -23 13.5 -51.5t-30.5 -71.5q-15 -22 -35 -42.5t-40 -36t-39 -25 t-33 -9.5q-35 0 -82 -33.5t-103.5 -92t-120.5 -138l-132 -172.5q60 -12 105.5 -20t88.5 -13q63 -6 119.5 -1.5t93.5 20.5q15 6 20 12t7 11.5t3 11t7 10.5q25 22 47 22q7 0 10.5 -5t4.5 -11t-1.5 -12.5t-7.5 -9.5q-18 -14 -38 -27t-42 -21q-44 -17 -95 -23.5t-128 -0.5 q-27 2 -46 4.5t-40.5 6l-50 8.5t-74.5 12h-2q-67 -93 -127 -196.5t-111 -205.5t-91.5 -195.5t-67.5 -166.5q-8 -21 -24.5 -19t-31 18.5t-22 41.5t3.5 51q28 64 70 143.5t95.5 167.5t117 181.5l133.5 187.5q-50 6 -87.5 9t-45.5 3q-26 0 -48 -7.5t-40 -29.5 q-20 -21 -54.5 -28t-68.5 -9q-34 -3 -37.5 9.5t8.5 46.5q9 23 38.5 35.5t65.5 18t72 5.5t58 -2l38 -3.5t35 -4t38.5 -6t47.5 -9.5l156 197.5l157 181l146.5 154t124.5 115.5q9 7 18.5 13.5t19 10t18.5 2t16 -11.5z"/>
    <glyph glyph-name="Thorn" unicode="Þ" horiz-adv-x="889" d="M436 877l-47 -78l-40.5 -67.5l-39.5 -65l-43 -70.5q-3 -5 -2 -7t6 3q32 32 75 70.5t91 75.5t97.5 70t95 54.5t84.5 28.5t65 -8q28 -16 36.5 -45t2.5 -65t-23.5 -75.5t-41.5 -76.5q42 -8 71.5 -19.5t57.5 -30.5q21 -13 36 -29.5t23 -32.5t10.5 -29.5t-0.5 -20.5 q-8 -14 -21.5 -0.5t-29.5 41.5q-5 9 -5 14v9t-1.5 8.5t-9.5 11.5q-32 24 -65.5 37.5t-80.5 21.5q-32 -45 -72 -85t-77 -71q-32 -25 -69.5 -44t-77 -30t-79.5 -14.5t-77 2.5q-29 5 -45 17.5t-20.5 29.5t1.5 37t21 39q34 43 83.5 72.5t105 47t114 24.5t112.5 6q27 35 48 70.5 t33 65.5t12.5 53t-13.5 34q-18 13 -54 3.5t-82 -34.5t-98.5 -63t-103 -81.5t-95 -89.5t-75.5 -87q-18 -26 -40.5 -55t-41.5 -64l-59 -111l-58 -114t-45.5 -95.5t-21.5 -56.5q-4 -18 -13.5 -17t-19.5 11.5t-17 25.5t-5 23q1 8 20 47.5l47.5 94.5l62.5 117l66 116l273 463 l54.5 95t30.5 58.5t11.5 37t-0.5 32.5t3.5 36t16 36t24 36l26.5 35q26 34 46 24t40 -50q8 -16 3.5 -31.5t-9.5 -23.5q-42 -73 -90.5 -146zM537 504q29 25 55 52.5t49 55.5q-43 3 -98.5 -5t-110 -27t-102 -48t-74.5 -67q-9 -13 -13 -26t0.5 -24t17.5 -18.5t38 -9.5 q29 -2 60 7t61.5 26t60 39t56.5 45z"/>
    <glyph glyph-name="a" unicode="a" horiz-adv-x="889" d="M424 0q-23 13 -33 31.5t-7 45.5t18 65t42 91q4 7 0 10t-10 -3q-25 -26 -62 -59t-79.5 -66t-88.5 -61.5t-89.5 -46t-81.5 -20.5t-66 17q-27 19 -35 49.5t-0.5 66t28 75t49 77t63.5 71.5t71 60q83 59 169 89t160.5 31.5t132 -25t83.5 -80.5q6 -11 2.5 -27t-18.5 -22 q-16 -7 -25 6t-18 35q-15 37 -51 58t-89.5 18t-122.5 -32.5t-151 -93.5q-58 -44 -105 -95t-76 -97.5t-37.5 -83.5t11.5 -53q17 -14 46.5 -10.5t66 19.5t77.5 41.5t80.5 55t75.5 61.5t62 60q35 37 56 65t33 47q14 22 21 38q7 13 15 19q7 5 15.5 5.5t16.5 -10.5 q17 -23 26.5 -52.5t0.5 -58.5q-3 -10 -8.5 -24.5t-12.5 -28t-16.5 -23t-19.5 -10.5q-10 0 -22 -13.5t-24 -34t-22.5 -44.5t-16.5 -46t-6 -38.5t9 -21.5q13 -9 37.5 -8.5t55.5 8t66.5 21t71.5 30.5q71 34 121 67.5t72 53.5q8 7 11 14t5 13t5 12.5t12 13.5q48 41 51 12 q2 -15 -20.5 -36.5t-59.5 -53.5q-23 -20 -68 -50.5t-125 -68.5q-38 -18 -79 -32.5t-78.5 -22.5t-67.5 -8.5t-47 8.5z"/>
    <glyph glyph-name="b" unicode="b" horiz-adv-x="709" d="M47 190l76.5 70l95.5 82t105 80.5t104.5 64.5t93.5 35t72 -8q28 -16 36.5 -45t2.5 -65t-23.5 -75.5t-42.5 -76.5q42 -8 71.5 -19.5t57.5 -29.5q22 -13 36.5 -29.5t23 -33t11 -30t-0.5 -20.5q-8 -14 -22 -0.5t-29 41.5q-6 9 -6 14.5t0.5 9.5t-1 8t-10.5 11 q-32 25 -65.5 38t-79.5 21q-32 -45 -72 -84.5t-78 -70.5q-32 -26 -69 -45t-77 -30t-80 -14t-77 3q-28 4 -44 16.5t-21 30t1 37t21 39.5q35 43 84 72t105 46.5t114.5 24.5t112.5 6q27 35 48 70.5t33 66t12.5 53t-13.5 33.5q-19 13 -55.5 2.5t-83.5 -38t-101 -67t-106.5 -83.5 t-100.5 -88.5t-83 -81.5q-17 -17 -30.5 -38t-24.5 -40q-12 -22 -23 -45q-8 -15 -18 -13.5t-19 11.5t-15 23.5t-4 21.5t14.5 34l30 60.5l37 72l35.5 67.5q7 13 30.5 52l57.5 93.5l75 120.5l82.5 133.5l81.5 131.5l71.5 115l52.5 84.5t24 39.5l16 29.5t11 24.5t5 25t-1 31 t3.5 36t16 36.5t24 36.5l26.5 35q25 34 45.5 23.5t40.5 -50.5q4 -8 4 -16t-1.5 -15.5t-4 -13.5t-4.5 -10l-21 -32.5l-34 -54l-40 -64l-39 -62.5l-98 -162.5l-106.5 -178l-103.5 -173.5l-89 -150l-63.5 -107.5t-26.5 -45.5q-3 -7 -1.5 -10t7.5 3zM352 135q29 25 55.5 53 t49.5 56q-43 3 -98.5 -5.5t-110.5 -27t-102 -47.5t-74 -68q-9 -13 -13 -26t0.5 -23.5t17.5 -18t38 -10.5q29 -2 60 7.5t61.5 26t59.5 38.5t56 45z"/>
    <glyph glyph-name="c" unicode="c" horiz-adv-x="680" d="M489 475q5 8 8.5 14.5t9.5 12t16 10t28 8.5q35 8 38 -5.5t-20 -47.5q-18 -28 -39 -52.5t-42 -43t-41 -29t-37 -8.5q-17 1 -13 6t17.5 16.5t31.5 32t29 53.5q4 16 -20.5 30.5t-67.5 10.5q-49 -5 -117.5 -42.5t-140.5 -112.5q-51 -53 -79.5 -102.5t-37.5 -89.5t0 -68.5 t33 -40.5q30 -15 76 -14t101.5 14.5t116.5 36t120 50.5t113 58.5t96 60.5q8 6 11.5 12t6.5 12l6.5 12.5t12.5 13.5q24 20 38.5 22.5t16.5 -12.5q1 -16 -27 -40t-69 -52q-41 -27 -94.5 -57t-112.5 -58t-121 -51.5t-120 -38t-109.5 -17.5t-88.5 11q-49 18 -71 57t-17 90 t36.5 109.5t88.5 115.5q44 44 88 73.5t86 47.5t81.5 25.5t74.5 7.5q38 0 66.5 -13.5t37.5 -27.5z"/>
    <glyph glyph-name="d" unicode="d" horiz-adv-x="877" d="M412 0q-29 15 -38.5 41t-4 60t23 73.5t41.5 81.5q2 2 0 3t-4 -1l-67.5 -64.5t-81.5 -70t-87.5 -64t-85.5 -47t-75.5 -19t-57.5 20.5q-36 34 -37.5 84.5t21 105t64 109t92.5 97.5q55 46 105 71.5t94 36t81 7.5t65.5 -14t47.5 -27.5t27 -34.5q45 76 91 146l93 142l96.5 150 l102.5 170q9 16 15 28.5t9 25t3.5 25.5t-1.5 31t3.5 36t16 36.5t24 36.5l26.5 35q26 34 46 23.5t40 -50.5q4 -8 4 -16t-1.5 -15.5t-4 -13.5t-4.5 -10q-6 -9 -20.5 -32.5l-33 -53.5l-38.5 -63.5l-37 -63.5l-88.5 -148.5l-96 -153l-100 -157.5l-98.5 -162 q-56 -95 -89.5 -161.5t-48.5 -110t-13.5 -66.5t15.5 -30q14 -8 38.5 -7.5t56 7.5t67.5 19.5t72 29.5q71 34 121 68.5t71 54.5q9 7 12 14t5 13t5 12.5t11 13.5q25 20 37 24t14 -12q2 -15 -19.5 -38t-59.5 -54q-23 -19 -67 -50t-124 -69q-38 -18 -79.5 -32t-79 -21.5t-68 -8 t-47.5 8.5zM8 35q18 -17 50 -10.5t70.5 27t80.5 51t80.5 62.5t69.5 61.5l49 47.5q15 16 32 36.5t32.5 41.5t28 40t19.5 32q-12 23 -41.5 37.5t-74.5 10.5t-103.5 -31.5t-126.5 -88.5q-48 -42 -87 -90t-63.5 -92t-30 -80.5t14.5 -54.5z"/>
    <glyph glyph-name="e" unicode="e" horiz-adv-x="657" d="M469 489q15 -22 9.5 -48.5t-26.5 -53t-54.5 -52t-73.5 -46.5q-39 -20 -80 -32t-78.5 -17.5t-68 -4.5t-48.5 7q-19 -25 -32 -55t-16.5 -58.5t2.5 -51.5t26 -34q29 -17 75 -20t100.5 5.5t115 27t119 43.5t112 56t94.5 64q9 7 13 14.5t7 15.5t7 15.5t12 14.5q25 20 39 22.5 t16 -12.5q1 -8 -6.5 -19.5t-21 -25t-31.5 -28.5t-39 -30q-41 -29 -93.5 -58.5t-110.5 -55.5t-118 -46.5t-117 -30t-108.5 -6.5t-91.5 23q-42 22 -60 64t-9.5 94.5t43.5 110.5t98 112q64 55 129 84t120 38t94 1t52 -27zM307 305q25 14 51 34t45.5 42t28.5 42.5t0 35.5 q-9 16 -34 19t-63 -10t-88 -43t-108 -81q-25 -22 -43.5 -41t-32.5 -39q19 -5 48 -5.5t62 4t67.5 15t66.5 27.5z"/>
    <glyph glyph-name="f" unicode="f" horiz-adv-x="598" d="M250 57q7 -30 -3 -87t-34 -128.5t-59.5 -152.5t-78.5 -159.5t-92 -149t-100 -121t-102 -75t-98 -11.5q-59 16 -80 68.5t-10.5 132.5t47.5 183.5t93 221.5t127.5 245.5l149.5 256.5l106 165.5l103.5 152.5l92 134.5t71.5 110.5q26 44 36 70t13 44t3 33t7 37q9 31 29 61.5 t43.5 56t47.5 42t42 18.5q56 8 66 -8t-21 -61l-64 -95.5l-125 -188.5l-176 -272l-218 -345q-79 -126 -147 -248t-121 -232.5t-88 -205t-48 -166.5t-2 -117.5t51 -57.5q33 -10 73.5 11.5t84 66t88 106.5t85 134t74.5 149.5t57 151.5t32 140.5t0 117.5q-7 38 -17.5 60.5 l-19.5 40.5t-13.5 36.5t1.5 50.5q5 30 15.5 36.5t24.5 -4.5t30.5 -37t33.5 -60q10 -21 10 -36.5t-2.5 -28t-4 -23t6.5 -21.5q25 -34 59.5 -52.5t76.5 -16.5q49 2 99 30t87 80q5 8 7.5 15.5l5 14.5t6.5 14.5t12 15.5q26 24 41.5 30t17.5 -10q1 -10 -1 -19t-10.5 -20.5 t-23.5 -27l-39 -39.5q-43 -44 -94.5 -74t-105.5 -35q-83 -6 -158 51z"/>
    <glyph glyph-name="g" unicode="g" horiz-adv-x="815" d="M461 233q5 10 1.5 12.5t-9.5 -3.5q-27 -26 -66 -58.5t-83.5 -64.5t-91.5 -60.5t-90.5 -46t-80 -21.5t-59.5 13q-27 20 -34.5 50t0.5 65.5t29 74.5t50.5 76.5t64.5 71t72 59.5q83 59 166 88t155.5 31t128.5 -22t84 -70q14 -22 9 -37.5t-21 -21.5q-15 -7 -24.5 6t-18.5 35 q-15 37 -51 58t-89 18t-122.5 -32.5t-151.5 -93.5q-57 -44 -104 -95t-76.5 -97.5t-37.5 -83.5t12 -53q15 -12 45.5 -6.5t68.5 23t81 44.5t84 56.5t76.5 59.5t59.5 54q35 36 56.5 62t34 44t17.5 29t7 17q4 11 9 15t11 3t15 -12q17 -23 23 -58.5t-5 -64.5q-3 -9 -8.5 -22 t-12.5 -25t-15.5 -20.5t-16.5 -6.5q-5 1 -18.5 -21t-34.5 -61l-48.5 -93l-60.5 -118q89 28 159 58t122.5 58.5t87.5 53l55 39.5q9 6 13 17.5t7.5 23.5t8 23t12.5 18l23 18.5t19.5 11.5t14.5 -0.5t9 -17.5q1 -8 -6 -22t-20 -31t-31 -34.5t-38 -32.5l-53 -37t-90 -54 t-131.5 -62t-177.5 -62l-116 -214.5t-134 -228.5q-57 -90 -126.5 -174.5t-145.5 -153.5t-154.5 -119t-153.5 -72.5t-143.5 -12.5t-124.5 61q-59 54 -68 128.5t22 155.5t95.5 161t151.5 145q88 67 171.5 114t178 83.5t209 67t264.5 65.5q54 105 92.5 188.5t67.5 140.5z M51 -522q72 111 130.5 210t103.5 187q-135 -32 -244 -63t-202 -67.5t-174.5 -82.5t-162.5 -106q-45 -34 -85.5 -78.5t-72 -92.5t-52.5 -97.5t-27 -94.5t3.5 -83.5t39.5 -63.5q47 -41 107 -45.5t126 19t136 70.5t137 108.5t127.5 133.5t109.5 146z"/>
    <glyph glyph-name="h" unicode="h" horiz-adv-x="842" d="M377 0q-32 18 -35 52t12.5 77t44 91t60.5 95q34 51 38 80t-10 41q-9 9 -32 6t-57 -17.5t-76 -40t-89 -62.5q-46 -36 -93 -80t-89 -87.5t-74.5 -82.5t-48.5 -64q-10 -15 -20.5 -13.5t-18.5 11.5t-13 23.5t-3 21.5q1 8 15 34.5l33.5 61l41 72l39.5 66.5l31.5 52l57 94 l73.5 121l81 133.5l80 131.5l69.5 115.5l51 85t23.5 39.5l16 29.5t11 24.5t5 25t-1 31t3.5 36t16 36.5t23.5 36.5l26 35q26 34 46 23.5t40 -50.5q8 -15 3.5 -31t-9.5 -24q-5 -9 -20 -32.5l-34 -54l-40 -64l-39 -62.5l-72.5 -120.5l-79.5 -133l-81.5 -137l-78 -132 l-69.5 -118.5l-56 -95.5l-38 -64.5t-14 -25q-3 -5 -2 -7t6 1l21 20l35 31l54 45l78 62l94 70t96 61.5t89.5 39t74.5 3.5q40 -12 44.5 -41.5t-10 -66.5t-40 -75.5l-45.5 -66.5l-53 -73t-47.5 -69t-24.5 -58t17 -39q13 -9 37.5 -8.5t55.5 7.5t66.5 20t71.5 30q71 34 121 68.5 t72 54.5q8 7 11 14t5 13t5 12.5t11 13.5q25 20 37.5 24t14.5 -12q2 -15 -20 -38t-60 -54q-23 -19 -67 -50t-124 -69q-38 -18 -79.5 -32.5t-79 -22t-68 -7.5t-47.5 9z"/>
    <glyph glyph-name="i" unicode="i" horiz-adv-x="432" d="M332 750l12 -20t14 -28t7.5 -31.5t-5.5 -31.5q-23 -43 -49 -53.5t-49 18.5q-12 15 -16.5 25.5t-2.5 22t10.5 25.5l22.5 36q11 15 11.5 19.5t3.5 15.5q3 12 16.5 14t24.5 -12zM33 293q15 23 24 39.5t2 38.5q-5 17 -1 32t13 30t23 31.5l29 35.5q9 11 17 18t17 5t19 -15 t23 -41q8 -16 7.5 -31.5t-5.5 -23.5q-4 -8 -16 -26l-26.5 -39l-29 -42l-23.5 -35q-6 -10 -19.5 -30t-28 -44t-28.5 -50.5t-22.5 -50t-9 -42.5t11.5 -28t35.5 -8.5t53.5 8t65.5 21t71.5 30.5q71 34 120.5 68.5t71.5 54.5q9 7 12 14t4.5 13t4.5 12.5t12 13.5q25 20 37 24 t14 -12q2 -15 -20 -38t-60 -54q-23 -19 -67 -50t-123 -69q-39 -18 -79.5 -32.5t-77 -22.5t-66 -8.5t-46.5 8.5q-26 15 -35.5 37.5t-2 57.5t31.5 84t66 116z"/>
    <glyph glyph-name="j" unicode="j" horiz-adv-x="383" d="M-958 -444q-46 -34 -85 -78.5t-69 -92.5t-48.5 -97.5t-23 -94.5t6 -83.5t40.5 -63.5q47 -41 107 -45.5t126.5 19t136.5 70.5t136.5 108.5t127.5 133.5t110 146q65 97 124 197.5l113 199.5q-136 -32 -248 -63t-208 -67.5t-180.5 -82.5t-165.5 -106zM47 248q12 23 19 48 t2 60q-3 18 2.5 36t16 36.5t24 36.5l26.5 35q26 34 46 23.5t40 -50.5q4 -8 4 -16t-1.5 -16t-4 -14.5t-4.5 -10.5l-68.5 -126l-66 -120l-65 -118l-66.5 -120q88 27 157 57t121 58t87 52.5l55 39.5q8 6 12.5 17.5t8 23.5t7.5 23t13 18l23 18.5t19.5 11.5t14.5 -0.5t8 -17.5 q1 -8 -6 -22t-20 -31t-30.5 -34.5t-37.5 -32.5l-53 -36.5t-89 -53t-130 -61.5t-177 -62l-114.5 -212.5t-138.5 -232.5q-58 -90 -127.5 -174.5t-145 -153.5t-154 -119t-153.5 -72.5t-143.5 -12.5t-124.5 61q-59 54 -70.5 128.5t16.5 155.5t89.5 161t148.5 145q88 67 174 114 t184 83.5t216 68t270 66.5l98.5 182zM322 750l12 -20t14 -28t7.5 -31.5t-5.5 -31.5q-23 -43 -49 -53.5t-49 18.5q-12 15 -16.5 25.5t-2.5 22t10 25.5t23 36q6 7 8 11.5t3 8t1.5 6.5t2.5 9q3 12 16.5 14t24.5 -12z"/>
    <glyph glyph-name="k" unicode="k" horiz-adv-x="846" d="M428 45q57 -15 115.5 -8.5t114 30t104 60.5t86.5 84q6 7 7.5 14.5t2.5 14.5t2.5 15t7.5 17q22 23 32.5 29t17.5 -8q4 -14 -17 -45.5t-55 -69.5q-38 -42 -88 -80t-108.5 -64t-122.5 -36.5t-130 2.5q-53 11 -91.5 44t-62 70.5t-32 70.5t-0.5 44q7 12 15.5 15.5t18.5 2.5 t22.5 -4.5t27.5 -6.5t39 2t49.5 16t49.5 26.5t40 32.5q18 19 27 39t11.5 37t-1 29.5t-10.5 17.5q-8 6 -28.5 4t-53 -14.5t-75 -36.5t-93.5 -63q-36 -28 -80 -66.5t-87.5 -81t-81 -87t-60.5 -83.5q-9 -16 -19.5 -14.5t-19 11.5t-14 24t-3.5 22q1 8 15 34l33.5 60.5l41 72 l37.5 67.5q7 13 30.5 52l56.5 93.5l72.5 120l80.5 132.5l80 131l70 115l51.5 84.5t23.5 39.5l16 29.5t11 24.5t5 25t-1 31t3.5 36t16 36.5t24 36.5l26.5 35q25 34 45.5 23.5t40.5 -50.5q8 -15 3 -31t-10 -24q-5 -9 -20 -32.5l-34 -54l-40 -64l-39 -62.5l-97.5 -162 l-105.5 -177l-102.5 -173l-89 -150.5l-64.5 -109.5t-28 -50q-3 -6 0 -7.5t8 1.5l23.5 21l42 37l58 48.5t71.5 55.5l90.5 66t93.5 59.5t87 38.5t73 4q29 -9 40.5 -27t10 -41t-14 -49t-30.5 -51t-39.5 -46t-40.5 -34q-54 -37 -104 -52.5t-91 -18.5q-9 -1 -7 -20.5t15.5 -45 t39.5 -50t65 -34.5z"/>
    <glyph glyph-name="l" unicode="l" horiz-adv-x="461" d="M-4 0q-32 18 -37 57.5t8.5 89.5t39.5 104.5t56 102.5l36 58l56 90l68.5 110l73 118.5l71 115.5l62 100l45 73.5t21.5 35.5l15.5 29.5t10.5 24.5t5 25t-1 31t3.5 36t16 36.5t24 36.5l26.5 35q26 34 46 23.5t40 -50.5q4 -8 4 -16t-1.5 -15.5t-4 -13.5t-4.5 -10 q-5 -9 -20 -32.5l-34 -54l-40 -64l-39 -62.5l-134.5 -219l-123.5 -200l-99.5 -162l-62.5 -105l-51 -92.5t-41 -89.5t-18 -74t20 -45q13 -9 37.5 -8.5t55.5 7.5t66.5 20t71.5 30q71 34 121 68.5t72 54.5q8 7 11 14t5 13t5 12.5t11 13.5q25 20 37.5 24t14.5 -12q2 -15 -20 -37 t-60 -53l-67 -50.5t-124 -70.5q-38 -18 -79.5 -32.5t-79 -22t-68 -7.5t-47.5 9z"/>
    <glyph glyph-name="m" unicode="m" horiz-adv-x="1274" d="M809 0q-32 18 -38 45.5t7.5 66t43.5 88.5l69 115q32 53 37.5 81t-8.5 40q-12 10 -35 7.5t-53.5 -17t-67 -40t-76.5 -60.5l-83 -76t-83 -81.5t-74.5 -82.5t-56.5 -78q-11 -18 -22.5 -16.5t-20 12t-13 25t-1.5 22.5q6 15 19 41l29.5 57.5l34 66.5l32.5 67q32 72 37 106.5 t-9 46.5q-18 16 -78.5 -11.5t-156.5 -105.5l-79 -66t-84.5 -78t-77.5 -84t-60 -83q-9 -15 -20.5 -13.5t-20.5 11.5t-15 23.5t-4 21.5q1 5 9.5 21t21 37l27 45l28 46l24 39l15.5 25l12 21t8 19t3 22t-2 30q-3 18 2.5 36t16 36.5t24 36.5l26.5 35q26 34 46 23.5t40 -50.5 q8 -15 3.5 -31t-9.5 -24q-4 -6 -14.5 -24l-25 -42l-30.5 -50.5l-30.5 -49.5l-25 -40l-13.5 -22t-1 -7t5 1q22 17 69 57l119 99l91 70.5t89.5 62t82.5 39.5t71 4q27 -8 35.5 -30t4 -51.5t-18 -63.5t-30 -66.5t-33.5 -60.5l-27 -45q-5 -8 -3 -12t7 1q10 11 25 24.5l36 32.5 l49.5 43.5l65.5 57.5q34 31 78.5 65t90.5 60.5t88.5 40t74.5 4.5q40 -12 45.5 -39.5t-8 -62.5t-39.5 -74.5l-50 -73.5l-67 -97.5t-43 -68.5t-15 -45.5t17 -27.5q13 -9 37.5 -8.5t55.5 7.5t66.5 20t71.5 30q71 34 121 68.5t72 54.5q8 7 11 14t5 13t5 12.5t12 13.5 q48 41 51 12q2 -15 -20 -38t-60 -54q-23 -19 -67 -50t-124 -69q-38 -18 -79.5 -32.5t-79 -22t-68 -7.5t-47.5 9z"/>
    <glyph glyph-name="n" unicode="n" horiz-adv-x="887" d="M422 0q-32 18 -33.5 54.5t16.5 82t48.5 96t62.5 97.5q34 51 39 79.5t-10 41.5q-11 8 -34.5 4.5t-57.5 -18t-76.5 -39t-91.5 -58.5t-98 -74t-93.5 -83.5t-81.5 -88t-63 -86.5q-10 -15 -20.5 -13.5t-19 11.5t-13 23.5t-2.5 21.5q1 5 9.5 22l20.5 39.5l27 48.5l28.5 49.5 l24.5 42l16 26.5q16 23 26.5 46.5t4.5 45.5q-5 17 -1 32t13 30t23 31.5l29 35.5q9 11 17 18t16.5 5t18.5 -15t23 -41q8 -16 3.5 -31.5t-9.5 -23.5l-15 -23.5l-26 -40l-31.5 -47.5l-31 -47.5l-25.5 -40t-14 -23.5t-1 -8.5t7 2.5q19 19 75 66t142 110q48 36 101.5 70t103 57 t90.5 31.5t64 -6.5q35 -23 39.5 -53t-8 -61.5t-34.5 -62l-40 -54.5l-56 -73t-52 -74.5t-28.5 -64.5t15.5 -42q13 -9 37.5 -8.5t55.5 7.5t66.5 20t71.5 30q71 34 121 68.5t72 54.5q8 7 11 14t5 13t5 12.5t11 13.5q25 20 37.5 24t14.5 -12q2 -15 -20 -38t-60 -54 q-23 -19 -67 -50t-124 -69q-38 -18 -79.5 -32.5t-79 -22t-68 -7.5t-47.5 9z"/>
    <glyph glyph-name="o" unicode="o" horiz-adv-x="649" d="M514 401q-17 -71 -62 -136t-110 -124q37 -17 78 -21.5t81 2t78.5 24t71.5 44.5q8 7 11 13t5 12t5.5 12t11.5 13q25 20 41 24.5t18 -10.5q2 -16 -25 -40.5t-69 -53.5q-69 -50 -152.5 -62.5t-174.5 27.5q-32 -29 -76.5 -62t-92.5 -55t-93.5 -26t-77.5 26q-23 22 -33.5 60.5 t-2.5 87t36.5 103.5t83.5 110q42 40 80 66.5t73 41.5q24 41 59.5 68t73 39t73 7.5t60 -26.5t34 -63t-4.5 -101zM414 481q12 -6 8.5 -14t-19.5 -8q-43 0 -91 -17.5t-107 -60.5q-4 -33 2.5 -65.5t21.5 -62t37 -54.5t49 -43q57 58 91.5 123.5t50.5 128.5q13 57 -3.5 94.5 t-49 50t-74.5 -2.5t-80 -63q52 16 94 11.5t70 -17.5zM20 33q25 -23 62.5 -18.5t77 24t76 48t61.5 52.5q-28 18 -49.5 43.5t-36 55.5t-21 63t-4.5 66q-37 -24 -66 -55.5t-51 -66t-36 -68t-20.5 -63t-4.5 -51t12 -30.5z"/>
    <glyph glyph-name="p" unicode="p" horiz-adv-x="705" d="M352 135q29 25 55.5 53t49.5 56q-44 3 -99.5 -5.5t-110 -27t-101.5 -47.5t-74 -68q-9 -13 -13 -26t0.5 -23.5t17.5 -18t38 -10.5q29 -2 60 7.5t61.5 26t59.5 38.5t56 45zM-10 141q-2 -3 1 -4.5t5 0.5q32 32 81 77l105.5 92.5t116.5 91.5t115 75t100.5 42.5t73.5 -5.5 q28 -18 38.5 -46.5t6 -63t-21.5 -73t-42 -75.5q18 -3 32.5 -7.5t27 -9.5t24.5 -11l27 -13q44 -22 70.5 -49.5t25.5 -42.5q-2 -16 -14 -12t-37 24q-9 7 -13 14t-7 13.5t-7.5 12.5t-13.5 11q-32 19 -60.5 31t-68.5 20q-32 -45 -71 -84.5t-76 -68.5q-32 -26 -70 -45t-78.5 -31 t-81.5 -15t-78 3q-28 4 -44 16.5t-21 30t1 37t21 39.5q35 43 84 72t105 46.5t114.5 24.5t112.5 6q27 35 47 70t30.5 64.5t10.5 51.5t-14 33q-19 14 -58 -0.5t-89.5 -46t-106 -74.5l-107.5 -86.5t-95 -83t-66 -63.5l-56 -59t-41 -50l-84.5 -140l-99 -171l-105.5 -189 l-105 -193.5l-96.5 -184l-80.5 -160.5q-11 -22 -19.5 -49.5t-18 -47.5t-20.5 -26.5t-26 13.5q-15 19 -23 32.5t-10 24.5t2 22t13 25l81 137l96 167.5l105.5 187.5l110 196.5l109 194.5l102.5 182l73 129.5t60 108.5q12 24 21.5 47t2.5 45q-5 17 -1 32t13 30t23 31.5l29 35.5 q9 11 17 18t17 5t19 -15t23 -41q8 -16 3.5 -31.5t-9.5 -23.5q-15 -31 -38.5 -71.5l-48 -79.5l-45 -72t-28.5 -48z"/>
    <glyph glyph-name="q" unicode="q" horiz-adv-x="719" d="M-76 -924q17 22 42.5 60.5l57.5 84.5t71 96.5t83 98.5q37 41 64 68t48 44.5t37 28.5t31 19q21 12 33 16t18.5 2t8.5 -10t4 -18q3 -22 -6 -41.5t-24.5 -36.5t-36.5 -30t-42 -21q-15 -6 -25.5 -5.5t-20.5 0.5t-22 -4.5t-30 -21.5q-49 -45 -96.5 -103.5t-88 -118t-71 -114 t-45.5 -90.5q-10 -23 -23.5 -21t-24.5 15.5t-18 31.5t-4 29l32 111.5t44.5 134t63.5 161t90 191.5q69 139 123.5 237t98 167t77.5 116l63 85q5 6 2 8.5t-8 -2.5q-25 -23 -62.5 -54.5t-81.5 -63.5t-91.5 -61.5t-91 -48.5t-80 -24t-58.5 12q-27 21 -34 51t1 65.5t29 74.5 t50.5 76t64.5 70.5t71 59.5q83 59 167.5 88.5t157 30.5t128.5 -25.5t82 -80.5q6 -11 4.5 -25t-16.5 -20q-16 -7 -25 6t-18 35q-15 37 -51 58t-89.5 18t-122.5 -32.5t-151 -93.5q-58 -44 -105 -95t-76 -97.5t-37.5 -83.5t11.5 -53q15 -12 45 -6.5t67 23t79 44.5t82 56.5 t75.5 59.5t59.5 54q34 34 57 61.5t37.5 47t22.5 32.5t12 19q3 5 6.5 10t7.5 7.5t9.5 0t11.5 -11.5q7 -11 13.5 -23t11 -27t4.5 -33.5t-7 -41.5q-11 -35 -28.5 -55t-34.5 -25q-53 -15 -153.5 -169.5t-254.5 -463.5q-43 -87 -76.5 -164.5t-58.5 -143t-42 -118z"/>
    <glyph glyph-name="r" unicode="r" horiz-adv-x="567" d="M274 383l-79.5 -78.5l-86.5 -88t-87 -98.5t-80 -110q-10 -15 -20.5 -13.5t-19 11.5t-13.5 23.5t-3 21.5q1 5 9 21t20 37.5l26.5 45.5l27.5 46.5t24 39.5l16 25l13.5 20.5t8.5 18.5t3 21.5t-2 29.5t3.5 36t16 36.5t23.5 36.5l26 35q26 34 46 23.5t40 -50.5q8 -15 3.5 -31 t-9.5 -24q-4 -6 -14.5 -23l-24.5 -40l-29.5 -48l-29.5 -47l-25 -39t-14 -22t0 -6.5t6 2.5q16 14 70 70t139 136q60 57 113.5 88t93.5 31t60 -25t18 -73q-1 -19 -10 -45t-21 -45t-25 -25t-22 15q-19 43 -18.5 65t14.5 41q11 16 8.5 30t-14.5 19q-12 4 -31 0.5t-43 -15 t-51.5 -31.5t-55.5 -48z"/>
    <glyph glyph-name="s" unicode="s" horiz-adv-x="653" d="M-43 119q-2 -11 0.5 -24.5t11.5 -26.5t27 -24t47 -15q37 -6 71.5 5.5t63.5 33t51 49t35 53.5q15 29 23 56.5t11 55.5t2.5 56t-1.5 59q-45 -52 -92 -96t-98 -72q1 -11 -6 -29t-21 -36.5t-32.5 -34t-39.5 -20.5q-12 -4 -23 4t-16 14t-8.5 5t-5.5 -13zM334 401 q9 -26 16.5 -60.5t9.5 -71t-2 -71.5t-18 -61q-26 -48 -59 -78t-58 -41q16 -1 40.5 2.5t55.5 10.5t66 18.5t72 26.5q36 15 66.5 32.5t55 34t42 31.5l28.5 25q9 7 12 14t4.5 13t4.5 12.5t12 13.5q25 20 37 24t14 -12q2 -15 -19.5 -39t-60.5 -55l-27 -22t-38.5 -28t-53.5 -32 t-71 -35q-48 -21 -104.5 -37t-115 -25t-114.5 -9t-102 10q-32 7 -51.5 23t-31 35.5t-15 40t-1.5 36.5q2 21 12 45t26 45.5t38 39t49 26.5q20 6 34 -1t19 -24q42 20 90.5 65.5t90.5 102.5q38 53 71 77.5t68 37.5q9 3 19 -4t16.5 -18.5t7.5 -25.5t-8 -26q-37 -48 -67.5 -64 t-59.5 -2z"/>
    <glyph glyph-name="t" unicode="t" horiz-adv-x="330" d="M653 831q28 -4 59 -5t61 1.5t55.5 8t41.5 14.5q12 7 15.5 13t4.5 11l2 10.5t7 10.5q12 11 23.5 17t23.5 6q4 0 7 -4.5t4 -11t0 -13t-5 -10.5q-14 -14 -31 -27t-38 -23q-23 -10 -52 -16t-62 -8.5t-67 -2t-65 4.5q-62 8 -111 20l-96 23l-49.5 -80l-40.5 -66.5l-37.5 -62 l-39.5 -67.5l-46.5 -82.5l-58.5 -106.5q-29 -51 -58.5 -111l-55 -114t-42.5 -95.5t-20 -56.5q-4 -18 -15.5 -17t-23 11.5t-20.5 25.5t-7 23q1 8 20.5 47.5l48 94.5l62.5 117l66 116l71.5 122.5l64 112l59 103.5l57.5 98q-59 15 -91 15q-26 0 -47.5 -8t-40.5 -29 q-20 -22 -47.5 -27t-50.5 -2q-17 2 -26 5.5t-12 9.5t-1.5 15t6.5 23q8 23 34 35t59 16.5t66 3.5t54 -4q32 -3 57 -9l60 -15l54.5 94.5t30.5 57.5t11.5 36.5t-0.5 32.5t3.5 36t16 36t24 36l26.5 35q26 34 46 24t40 -50q8 -16 3.5 -31.5t-9.5 -23.5q-42 -73 -90.5 -146 l-96.5 -151l95 -24.5t114 -21.5z"/>
    <glyph glyph-name="u" unicode="u" horiz-adv-x="844" d="M-18 236l18.5 24.5t19.5 29t14 32t3 34.5t3.5 36t16 36.5t23.5 36.5l26 35q26 34 46.5 23.5t40.5 -50.5q8 -15 3 -31t-10 -24q-4 -6 -13.5 -23l-23 -39.5l-29 -47.5l-30 -49l-26.5 -43.5t-19 -29.5q-34 -51 -42 -86.5t7 -46.5q8 -5 26 -3.5t48.5 14t75 38.5t106.5 70 q51 37 95.5 75.5t80.5 75.5t62.5 71t42.5 63q6 10 12.5 22.5t13.5 22.5t15 14.5t16 -0.5q5 -4 13.5 -14.5t14.5 -26.5t7 -35t-8 -39q-6 -12 -13 -28t-16.5 -31t-20.5 -25.5t-24 -11.5q-11 0 -22 -13.5t-23 -33.5q-7 -10 -18.5 -28l-24.5 -39.5t-24.5 -45t-18 -44.5 t-5.5 -37.5t13 -24.5q26 -17 83.5 -6t129.5 45q71 34 121 68.5t72 54.5q8 7 11 14t5 13.5t5 12.5t11 13q25 20 37.5 24t14.5 -12q2 -15 -20 -38t-60 -54q-23 -18 -67 -49.5t-124 -69.5q-38 -18 -79.5 -32.5t-79 -22t-68 -7.5t-47.5 9q-19 11 -23 37t6 63t33 83.5t58 99.5 q3 5 0 7t-7 -1q-5 -6 -16 -16.5t-30.5 -27.5t-50 -41t-75.5 -56l-44 -31t-56.5 -37t-63.5 -37t-64.5 -31t-59.5 -18.5t-49 0.5q-26 7 -35 24.5t-6.5 41t13.5 50t25 51t27.5 44z"/>
    <glyph glyph-name="v" unicode="v" horiz-adv-x="463" d="M-18 408q-8 29 -10 52q-2 20 1.5 36t18.5 16q63 0 80 -39q16 -43 18 -101.5t-4.5 -116.5t-18.5 -108t-24 -77q-6 -20 16 -9q49 28 99 70.5t92 89t72 90.5t38 76q5 20 0.5 34t-6.5 34q-1 9 0.5 32t6.5 45t14 35.5t24 3.5q12 -12 21 -23t13 -25.5t1.5 -35.5t-12.5 -53 q-16 -58 -52.5 -114.5t-89.5 -111.5t-122.5 -107t-151.5 -101q-14 -9 -24 -7t-17 9.5t-11.5 17.5t-6.5 19q-3 11 0.5 18.5l9.5 20.5q14 28 26 66.5t20 76t12 70t1 49.5q-2 13 -6 18.5t-9 10.5t-10 13t-9 26z"/>
    <glyph glyph-name="w" unicode="w" horiz-adv-x="881" d="M12 61q-6 -9 -4 -14.5t15 0.5q34 16 74 46.5t81.5 71t80.5 88t71 97.5q15 24 26.5 38.5t24 23.5t28.5 14t40 10q22 6 32 4.5t11 -8t-5.5 -18.5t-17.5 -27q-42 -58 -70.5 -121t-39 -117t1.5 -91.5t51 -43.5q35 -5 72 7.5t71.5 38.5t65.5 62t55.5 77.5t39.5 84.5t19 83 q1 12 -1 19l-4 14.5t-4 19t-1 31.5q1 21 2.5 42.5t5.5 36.5t11.5 21t21.5 -2q15 -9 26 -20t15 -31t1 -50.5t-15 -78.5q-11 -45 -33.5 -92t-53 -91t-67 -82t-77 -65t-82.5 -40t-83 -7q-52 7 -75.5 38.5t-29 73t0.5 85t14 73.5q2 6 -0.5 7t-7.5 -5l-56.5 -69t-72 -73 t-91.5 -68t-114 -54q-16 -5 -25.5 -4t-15 6.5t-8 13.5t-4.5 17q-5 22 14 43q19 19 39 49.5t36 66.5t24 76t4 78q-2 13 -6.5 17.5t-10 8.5t-11 11t-9.5 25q-8 29 -10 52q-2 20 1.5 36t18.5 16q64 0 80 -39q5 -13 8.5 -31.5t5.5 -39t3 -41.5t1 -39q-1 -41 -9 -79t-21 -71.5 t-28 -61.5t-30 -49z"/>
    <glyph glyph-name="x" unicode="x" horiz-adv-x="573" d="M156 45q14 -8 36.5 -10t51.5 1.5t63 13t70 26.5q71 34 121 68.5t71 54.5q9 7 12 14t5 13t5 12.5t11 13.5q25 20 37 24t14 -12q3 -32 -80 -92l-67 -49t-123 -70q-38 -18 -79 -31.5t-78.5 -20.5t-68 -7.5t-48.5 6.5q-23 9 -39.5 24.5t-28 37.5t-19.5 49.5t-14 62.5 l-33.5 -22l-50.5 -32t-65.5 -37t-77.5 -36q-39 -16 -80.5 -29t-78 -19.5t-66 -6t-45.5 11.5q-16 10 -21.5 21.5t-3 21t10 16t16.5 7.5q9 0 14 -4t7.5 -9.5t3.5 -12t3 -11.5q12 -10 36 -11.5t56 4.5t69 18.5t73 29.5q37 18 72.5 38.5t65 40t51.5 36.5l34 26q-5 42 -11.5 70 t-13 48t-12.5 34t-10 26q-6 16 -15 24t-18 13t-16.5 11.5t-10.5 19.5q-4 17 1.5 29.5t17 20.5t26 11t29.5 0q31 -6 47.5 -26.5t30.5 -71.5l9 -37t7 -33.5l6.5 -39.5l8.5 -54q63 45 109.5 86.5t62.5 75.5q4 7 4.5 15.5t1.5 17.5t4 19t12 22q29 34 60 44.5t51 -3.5 q22 -16 10 -41.5t-47 -65.5q-30 -35 -58.5 -62.5t-59.5 -52.5t-66 -50l-78 -54q4 -33 8.5 -58.5t12.5 -45.5t21 -35t34 -27z"/>
    <glyph glyph-name="y" unicode="y" horiz-adv-x="795" d="M-547 -444q-45 -34 -84.5 -78.5t-69 -92.5t-48.5 -97.5t-23.5 -94.5t6.5 -83.5t41 -63.5q47 -41 107 -45.5t126 19t136 70.5t137 108.5t127.5 133.5t109.5 146l59 94.5l61.5 101l60 102.5l55.5 99q-126 -29 -236 -59t-208 -67t-186 -84t-171 -109zM-8 233q8 12 19 26 t20 29.5t14.5 32.5t3.5 35t3.5 36t16 36.5t24 36.5l26.5 35q26 34 46 23.5t40 -50.5q4 -8 4 -16t-1.5 -15.5t-4 -13.5t-4.5 -10q-4 -6 -14 -23l-24 -39.5l-29.5 -48.5l-30.5 -50l-27 -43.5t-19 -29.5q-34 -51 -47 -86.5t2 -46.5q8 -5 26 -5t48.5 11t75 35.5t106.5 69.5 q102 74 170 141.5t103 124.5q11 19 20.5 38t18 33t17 19.5t19.5 -2.5q6 -4 15 -16t15.5 -29.5t8 -37.5t-7.5 -40l-10 -25t-12 -24t-16.5 -19.5t-24.5 -11.5q-23 -5 -38 -30.5t-32 -57.5l-49.5 -99l-97.5 -194q87 27 155.5 57t120 58t86.5 52.5l55 39.5q9 6 13 17.5t7.5 23.5 t8 23t12.5 18l23 18.5t20 11.5t15 -0.5t8 -17.5q1 -8 -6 -22t-20 -31t-30.5 -34.5t-37.5 -32.5l-53.5 -36.5t-89 -53t-129.5 -61.5t-175 -62l-55.5 -103l-64 -113l-68 -116l-68.5 -113q-57 -90 -126.5 -174.5t-145 -153.5t-154 -119t-154 -72.5t-144 -12.5t-124.5 61 q-59 54 -70 128.5t16.5 155.5t89.5 161t149 145q88 67 174 114t184 83.5t215.5 68t269.5 66.5l110.5 208t88.5 177q2 5 0.5 7t-6.5 -3q-12 -12 -27.5 -26t-36.5 -31l-48.5 -37.5l-63.5 -46.5l-45 -32.5l-58.5 -40.5t-65.5 -41.5t-66.5 -34.5t-61.5 -20t-49 1q-27 9 -35.5 28 t-5.5 43.5t14.5 51t26 51t28.5 44z"/>
    <glyph glyph-name="z" unicode="z" horiz-adv-x="496" d="M78 516q34 -9 77.5 -19t87 -16.5t83 -9t67.5 3.5t44.5 15t27 16.5t17 10.5t12.5 -1q24 -17 22 -30t-31 -33q-54 -36 -113 -65t-117.5 -54.5l-113 -50t-98.5 -50.5q-53 -31 -81 -62.5t-38 -55.5t-5.5 -35t15.5 -2q31 23 59.5 28.5t53.5 -2.5q21 -6 47.5 -18l54 -25 t54.5 -24t49 -15.5t37 -1t20 20.5q5 15 16 24t29 3q12 -4 13.5 -13.5t-5.5 -20.5t-21 -21t-34 -15q-38 -11 -76.5 -9.5t-75 9.5t-68.5 20l-56 21q-48 18 -89 7t-75 -42q-25 -23 -38 -11t-19 44q-3 16 7.5 46.5t39 67t77 75.5t119.5 73q48 23 103.5 43.5l107.5 40.5t96 39.5 t70 40.5q-54 -14 -97 -15.5t-73.5 0.5t-49.5 4.5t-26 -3.5l-26 -22t-17.5 -9t-25 0t-47.5 4q-56 4 -69 13.5t5 37.5q10 15 22 23.5t22.5 13t18.5 6t11 0.5z"/>
    <glyph glyph-name="agrave" unicode="à" horiz-adv-x="889" d="M424 0q-23 13 -33 31.5t-7 45.5t18 65t42 91q4 7 0 10t-10 -3q-25 -26 -62 -59t-79.5 -66t-88.5 -61.5t-89.5 -46t-81.5 -20.5t-66 17q-27 19 -35 49.5t-0.5 66t28 75t49 77t63.5 71.5t71 60q83 59 169 89t160.5 31.5t132 -25t83.5 -80.5q6 -11 2.5 -27t-18.5 -22 q-16 -7 -25 6t-18 35q-15 37 -51 58t-89.5 18t-122.5 -32.5t-151 -93.5q-58 -44 -105 -95t-76 -97.5t-37.5 -83.5t11.5 -53q17 -14 46.5 -10.5t66 19.5t77.5 41.5t80.5 55t75.5 61.5t62 60q35 37 58.5 66.5t37.5 49.5q17 24 27 42q4 11 9 15t11 3t14 -12q17 -23 24.5 -57.5 t-1.5 -63.5q-3 -10 -7.5 -23t-11.5 -24.5t-15.5 -19.5t-18.5 -9q-10 0 -22 -13.5t-24 -34t-22.5 -44.5t-16.5 -46t-6 -38.5t9 -21.5q13 -9 37.5 -8.5t55.5 8t66.5 21t71.5 30.5q71 34 121 67.5t72 53.5q8 7 11 14t5 13t5 12.5t12 13.5q48 41 51 12q2 -15 -20.5 -36.5 t-59.5 -53.5q-23 -20 -68 -50.5t-125 -68.5q-38 -18 -79 -32.5t-78.5 -22.5t-67.5 -8.5t-47 8.5zM319 721q8 17 21.5 34.5t26.5 26.5q9 8 21.5 1.5t17.5 -21.5q14 -48 44 -91.5t64 -66.5q4 -3 4.5 -9.5t-4 -13t-13 -10t-20.5 -0.5q-10 3 -29.5 13.5t-42 25.5t-44 33 t-33.5 35q-6 9 -12 21.5t-1 21.5z"/>
    <glyph glyph-name="aacute" unicode="á" horiz-adv-x="889" d="M424 0q-23 13 -33 31.5t-7 45.5t18 65t42 91q4 7 0 10t-10 -3q-25 -26 -62 -59t-79.5 -66t-88.5 -61.5t-89.5 -46t-81.5 -20.5t-66 17q-27 19 -35 49.5t-0.5 66t28 75t49 77t63.5 71.5t71 60q83 59 169 89t160.5 31.5t132 -25t83.5 -80.5q6 -11 2.5 -27t-18.5 -22 q-16 -7 -25 6t-18 35q-15 37 -51 58t-89.5 18t-122.5 -32.5t-151 -93.5q-58 -44 -105 -95t-76 -97.5t-37.5 -83.5t11.5 -53q17 -14 46.5 -10.5t66 19.5t77.5 41.5t80.5 55t75.5 61.5t62 60q35 37 58.5 66.5t37.5 49.5q17 24 27 42q4 11 9 15t11 3t14 -12q17 -23 24.5 -57.5 t-1.5 -63.5q-3 -10 -7.5 -23t-11.5 -24.5t-15.5 -19.5t-18.5 -9q-10 0 -22 -13.5t-24 -34t-22.5 -44.5t-16.5 -46t-6 -38.5t9 -21.5q13 -9 37.5 -8.5t55.5 8t66.5 21t71.5 30.5q71 34 121 67.5t72 53.5q8 7 11 14t5 13t5 12.5t12 13.5q48 41 51 12q2 -15 -20.5 -36.5 t-59.5 -53.5q-23 -20 -68 -50.5t-125 -68.5q-38 -18 -79 -32.5t-78.5 -22.5t-67.5 -8.5t-47 8.5zM604 719q5 -9 -0.5 -21.5t-11.5 -21.5q-12 -17 -33.5 -35t-44 -33t-42.5 -26t-30 -13q-12 -3 -20.5 0.5t-12.5 10t-4 13t5 9.5q34 23 64 66.5t44 91.5q5 15 17.5 21.5 t21.5 -1.5q12 -9 25.5 -26.5t21.5 -34.5z"/>
    <glyph glyph-name="acircumflex" unicode="â" horiz-adv-x="889" d="M424 0q-23 13 -33 31.5t-7 45.5t18 65t42 91q4 7 0 10t-10 -3q-26 -26 -62.5 -59t-79 -66t-88.5 -61.5t-89.5 -46t-81.5 -20.5t-66 17q-28 19 -35.5 49.5t0 66t28 75t49 77t63.5 71.5t71 60q83 59 169 89t160.5 31.5t132 -25t83.5 -80.5q6 -11 2.5 -27t-18.5 -22 q-16 -7 -25 6t-18 35q-15 37 -51 58t-89.5 18t-122.5 -32.5t-151 -93.5q-58 -44 -105 -95t-76 -97.5t-37.5 -83.5t11.5 -53q17 -14 46.5 -10.5t66 19.5t77.5 41.5t80.5 55t75.5 61.5t62 60q35 37 58.5 66.5t37.5 49.5q17 24 27 42q4 11 9 15t11 3t14 -12q17 -23 24.5 -57.5 t-1.5 -63.5q-3 -10 -7.5 -23t-11.5 -24.5t-15.5 -19.5t-18.5 -9t-22 -14t-24 -33.5t-22.5 -44.5t-16.5 -46t-6 -38.5t9 -21.5q13 -9 37.5 -8.5t55.5 8t66.5 21t71.5 30.5q71 34 121 67.5t72 53.5q8 7 11 14t5 13t5 12.5t12 13.5q48 41 51 12q2 -15 -20.5 -36.5t-59.5 -53.5 q-23 -20 -68 -50.5t-125 -68.5q-38 -18 -79 -32.5t-78.5 -22.5t-67.5 -8.5t-47 8.5zM475 799q31 0 67 -25.5t68.5 -61t58 -72t36.5 -58.5q6 -12 2.5 -24t-12.5 -18.5t-20.5 -6.5t-21.5 12l-23 26l-36.5 40l-38.5 41l-29 30q-31 31 -60.5 29.5t-55.5 -29.5l-29 -32.5 l-32.5 -37t-33 -35t-30.5 -26.5q-15 -11 -27 -12t-19 5t-8 18.5t7 27.5q7 14 21.5 35t34 44.5t42.5 46.5t47 41.5t47.5 30t44.5 11.5z"/>
    <glyph glyph-name="uni1EA7" unicode="ầ" horiz-adv-x="889" d="M424 0q-23 13 -33 31.5t-7 45.5t18 65t42 91q4 7 0 10t-10 -3q-26 -26 -62.5 -59t-79 -66t-88.5 -61.5t-89.5 -46t-81.5 -20.5t-66 17q-28 19 -35.5 49.5t0 66t28 75t49 77t63.5 71.5t71 60q83 59 169 89t160.5 31.5t132 -25t83.5 -80.5q6 -11 2.5 -27t-18.5 -22 q-16 -7 -25 6t-18 35q-15 37 -51 58t-89.5 18t-122.5 -32.5t-151 -93.5q-58 -44 -105 -95t-76 -97.5t-37.5 -83.5t11.5 -53q17 -14 46.5 -10.5t66 19.5t77.5 41.5t80.5 55t75.5 61.5t62 60q35 37 58.5 66.5t37.5 49.5q17 24 27 42q4 11 9 15t11 3t14 -12q17 -23 24.5 -57.5 t-1.5 -63.5q-3 -10 -7.5 -23t-11.5 -24.5t-15.5 -19.5t-18.5 -9t-22 -14t-24 -33.5t-22.5 -44.5t-16.5 -46t-6 -38.5t9 -21.5q13 -9 37.5 -8.5t55.5 8t66.5 21t71.5 30.5q71 34 121 67.5t72 53.5q8 7 11 14t5 13t5 12.5t12 13.5q48 41 51 12q2 -15 -20.5 -36.5t-59.5 -53.5 q-23 -20 -68 -50.5t-125 -68.5q-38 -18 -79 -32.5t-78.5 -22.5t-67.5 -8.5t-47 8.5zM475 799q31 0 67 -25.5t68.5 -61t58 -72t36.5 -58.5q6 -12 2.5 -24t-12.5 -18.5t-20.5 -6.5t-21.5 12l-23 26l-36.5 40l-38.5 41l-29 30q-31 31 -60.5 29.5t-55.5 -29.5l-29 -32.5 l-32.5 -37t-33 -35t-30.5 -26.5q-15 -11 -27 -12t-19 5t-8 18.5t7 27.5q7 14 21.5 35t34 44.5t42.5 46.5t47 41.5t47.5 30t44.5 11.5zM448 983q8 17 21.5 34.5t26.5 26.5q9 8 21.5 1.5t17.5 -21.5q14 -48 44 -91.5t64 -66.5q4 -3 4.5 -9.5t-4 -13t-13 -10t-20.5 -0.5 q-10 3 -29.5 13.5t-42 25.5t-44 33t-33.5 35q-6 9 -12 21.5t-1 21.5z"/>
    <glyph glyph-name="uni1EA5" unicode="ấ" horiz-adv-x="889" d="M424 0q-23 13 -33 31.5t-7 45.5t18 65t42 91q4 7 0 10t-10 -3q-26 -26 -62.5 -59t-79 -66t-88.5 -61.5t-89.5 -46t-81.5 -20.5t-66 17q-28 19 -35.5 49.5t0 66t28 75t49 77t63.5 71.5t71 60q83 59 169 89t160.5 31.5t132 -25t83.5 -80.5q6 -11 2.5 -27t-18.5 -22 q-16 -7 -25 6t-18 35q-15 37 -51 58t-89.5 18t-122.5 -32.5t-151 -93.5q-58 -44 -105 -95t-76 -97.5t-37.5 -83.5t11.5 -53q17 -14 46.5 -10.5t66 19.5t77.5 41.5t80.5 55t75.5 61.5t62 60q35 37 58.5 66.5t37.5 49.5q17 24 27 42q4 11 9 15t11 3t14 -12q17 -23 24.5 -57.5 t-1.5 -63.5q-3 -10 -7.5 -23t-11.5 -24.5t-15.5 -19.5t-18.5 -9t-22 -14t-24 -33.5t-22.5 -44.5t-16.5 -46t-6 -38.5t9 -21.5q13 -9 37.5 -8.5t55.5 8t66.5 21t71.5 30.5q71 34 121 67.5t72 53.5q8 7 11 14t5 13t5 12.5t12 13.5q48 41 51 12q2 -15 -20.5 -36.5t-59.5 -53.5 q-23 -20 -68 -50.5t-125 -68.5q-38 -18 -79 -32.5t-78.5 -22.5t-67.5 -8.5t-47 8.5zM475 799q31 0 67 -25.5t68.5 -61t58 -72t36.5 -58.5q6 -12 2.5 -24t-12.5 -18.5t-20.5 -6.5t-21.5 12l-23 26l-36.5 40l-38.5 41l-29 30q-31 31 -60.5 29.5t-55.5 -29.5l-29 -32.5 l-32.5 -37t-33 -35t-30.5 -26.5q-15 -11 -27 -12t-19 5t-8 18.5t7 27.5q7 14 21.5 35t34 44.5t42.5 46.5t47 41.5t47.5 30t44.5 11.5zM665 979q5 -9 -0.5 -21.5t-11.5 -21.5q-12 -17 -33.5 -35t-44 -33t-42.5 -26t-30 -13q-12 -3 -20.5 0.5t-12.5 10t-4 13t5 9.5 q34 23 64 66.5t44 91.5q5 15 17.5 21.5t21.5 -1.5q12 -9 25.5 -26.5t21.5 -34.5z"/>
    <glyph glyph-name="uni1EAB" unicode="ẫ" horiz-adv-x="889" d="M424 0q-23 13 -33 31.5t-7 45.5t18 65t42 91q4 7 0 10t-10 -3q-26 -26 -62.5 -59t-79 -66t-88.5 -61.5t-89.5 -46t-81.5 -20.5t-66 17q-28 19 -35.5 49.5t0 66t28 75t49 77t63.5 71.5t71 60q83 59 169 89t160.5 31.5t132 -25t83.5 -80.5q6 -11 2.5 -27t-18.5 -22 q-16 -7 -25 6t-18 35q-15 37 -51 58t-89.5 18t-122.5 -32.5t-151 -93.5q-58 -44 -105 -95t-76 -97.5t-37.5 -83.5t11.5 -53q17 -14 46.5 -10.5t66 19.5t77.5 41.5t80.5 55t75.5 61.5t62 60q35 37 58.5 66.5t37.5 49.5q17 24 27 42q4 11 9 15t11 3t14 -12q17 -23 24.5 -57.5 t-1.5 -63.5q-3 -10 -7.5 -23t-11.5 -24.5t-15.5 -19.5t-18.5 -9t-22 -14t-24 -33.5t-22.5 -44.5t-16.5 -46t-6 -38.5t9 -21.5q13 -9 37.5 -8.5t55.5 8t66.5 21t71.5 30.5q71 34 121 67.5t72 53.5q8 7 11 14t5 13t5 12.5t12 13.5q48 41 51 12q2 -15 -20.5 -36.5t-59.5 -53.5 q-23 -20 -68 -50.5t-125 -68.5q-38 -18 -79 -32.5t-78.5 -22.5t-67.5 -8.5t-47 8.5zM475 799q31 0 67 -25.5t68.5 -61t58 -72t36.5 -58.5q6 -12 2.5 -24t-12.5 -18.5t-20.5 -6.5t-21.5 12l-23 26l-36.5 40l-38.5 41l-29 30q-31 31 -60.5 29.5t-55.5 -29.5l-29 -32.5 l-32.5 -37t-33 -35t-30.5 -26.5q-15 -11 -27 -12t-19 5t-8 18.5t7 27.5q7 14 21.5 35t34 44.5t42.5 46.5t47 41.5t47.5 30t44.5 11.5zM1002 939q-2 -2 -13.5 -17t-31.5 -31t-48.5 -28t-64.5 -8q-39 4 -74 14.5t-65 21l-55.5 20t-47.5 12.5q-18 2 -33 -2t-28.5 -10.5t-26 -15 t-24.5 -15.5q-17 -10 -24 -0.5t5 26.5q5 8 18 22.5t32.5 28.5t45 23.5t54.5 7.5q36 -3 62 -10.5t50 -16.5l49 -18t60 -16q35 -8 72 -2t63 35q5 6 12 6.5t12 -2.5t6 -9.5t-5 -15.5z"/>
    <glyph glyph-name="uni1EA9" unicode="ẩ" horiz-adv-x="889" d="M424 0q-23 13 -33 31.5t-7 45.5t18 65t42 91q4 7 0 10t-10 -3q-26 -26 -62.5 -59t-79 -66t-88.5 -61.5t-89.5 -46t-81.5 -20.5t-66 17q-28 19 -35.5 49.5t0 66t28 75t49 77t63.5 71.5t71 60q83 59 169 89t160.5 31.5t132 -25t83.5 -80.5q6 -11 2.5 -27t-18.5 -22 q-16 -7 -25 6t-18 35q-15 37 -51 58t-89.5 18t-122.5 -32.5t-151 -93.5q-58 -44 -105 -95t-76 -97.5t-37.5 -83.5t11.5 -53q17 -14 46.5 -10.5t66 19.5t77.5 41.5t80.5 55t75.5 61.5t62 60q35 37 58.5 66.5t37.5 49.5q17 24 27 42q4 11 9 15t11 3t14 -12q17 -23 24.5 -57.5 t-1.5 -63.5q-3 -10 -7.5 -23t-11.5 -24.5t-15.5 -19.5t-18.5 -9t-22 -14t-24 -33.5t-22.5 -44.5t-16.5 -46t-6 -38.5t9 -21.5q13 -9 37.5 -8.5t55.5 8t66.5 21t71.5 30.5q71 34 121 67.5t72 53.5q8 7 11 14t5 13t5 12.5t12 13.5q48 41 51 12q2 -15 -20.5 -36.5t-59.5 -53.5 q-23 -20 -68 -50.5t-125 -68.5q-38 -18 -79 -32.5t-78.5 -22.5t-67.5 -8.5t-47 8.5zM475 799q-21 0 -44.5 -11.5t-47.5 -30t-47 -41.5t-42.5 -46.5t-34 -44.5t-21.5 -35q-8 -15 -7 -27.5t8 -18.5t19 -5t27 12q14 10 30.5 26.5t33 35l32.5 37l29 32.5q26 28 55.5 29.5 t60.5 -29.5l29 -30l38.5 -41l36.5 -40l23 -26q10 -12 21.5 -12t20.5 6.5t12.5 18.5t-2.5 24q-11 22 -36.5 58.5t-58 72t-68.5 61t-67 25.5zM579 815q4 -17 -4 -18.5t-13 11.5q-10 28 -0.5 61.5t79 59.5t74.5 76t-54 69q-46 15 -53 -11q-3 -5 18.5 -15.5t6.5 -30.5 q-13 -16 -34 -10q-45 15 -32 54q12 37 47.5 54.5t76.5 4.5q111 -37 75 -148q-15 -46 -102 -67.5t-85 -89.5z"/>
    <glyph glyph-name="uni1EAD" unicode="ậ" horiz-adv-x="889" d="M424 0q-23 13 -33 31.5t-7 45.5t18 65t42 91q4 7 0 10t-10 -3q-26 -26 -62.5 -59t-79 -66t-88.5 -61.5t-89.5 -46t-81.5 -20.5t-66 17q-28 19 -35.5 49.5t0 66t28 75t49 77t63.5 71.5t71 60q83 59 169 89t160.5 31.5t132 -25t83.5 -80.5q6 -11 2.5 -27t-18.5 -22 q-16 -7 -25 6t-18 35q-15 37 -51 58t-89.5 18t-122.5 -32.5t-151 -93.5q-58 -44 -105 -95t-76 -97.5t-37.5 -83.5t11.5 -53q17 -14 46.5 -10.5t66 19.5t77.5 41.5t80.5 55t75.5 61.5t62 60q35 37 58.5 66.5t37.5 49.5q17 24 27 42q4 11 9 15t11 3t14 -12q17 -23 24.5 -57.5 t-1.5 -63.5q-3 -10 -7.5 -23t-11.5 -24.5t-15.5 -19.5t-18.5 -9t-22 -14t-24 -33.5t-22.5 -44.5t-16.5 -46t-6 -38.5t9 -21.5q13 -9 37.5 -8.5t55.5 8t66.5 21t71.5 30.5q71 34 121 67.5t72 53.5q8 7 11 14t5 13t5 12.5t12 13.5q48 41 51 12q2 -15 -20.5 -36.5t-59.5 -53.5 q-23 -20 -68 -50.5t-125 -68.5q-38 -18 -79 -32.5t-78.5 -22.5t-67.5 -8.5t-47 8.5zM475 799q31 0 67 -25.5t68.5 -61t58 -72t36.5 -58.5q6 -12 2.5 -24t-12.5 -18.5t-20.5 -6.5t-21.5 12l-23 26l-36.5 40l-38.5 41l-29 30q-31 31 -60.5 29.5t-55.5 -29.5l-29 -32.5 l-32.5 -37t-33 -35t-30.5 -26.5q-15 -11 -27 -12t-19 5t-8 18.5t7 27.5q7 14 21.5 35t34 44.5t42.5 46.5t47 41.5t47.5 30t44.5 11.5zM41 -142q17 -3 30 -12t20.5 -21t9.5 -25.5t-2 -25.5q-16 -45 -43.5 -60.5t-59.5 4.5q-20 12 -25 20.5t-1 19t15 24t23 35.5q3 7 2.5 15 t1 14.5t7.5 10t22 1.5z"/>
    <glyph glyph-name="atilde" unicode="ã" horiz-adv-x="889" d="M424 0q-23 13 -33 31.5t-7 45.5t18 65t42 91q4 7 0 10t-10 -3q-26 -26 -62.5 -59t-79 -66t-88.5 -61.5t-89.5 -46t-81.5 -20.5t-66 17q-28 19 -35.5 49.5t0 66t28 75t49 77t63.5 71.5t71 60q83 59 169 89t160.5 31.5t132 -25t83.5 -80.5q6 -11 2.5 -27t-18.5 -22 q-16 -7 -25 6t-18 35q-15 37 -51 58t-89.5 18t-122.5 -32.5t-151 -93.5q-58 -44 -105 -95t-76 -97.5t-37.5 -83.5t11.5 -53q17 -14 46.5 -10.5t66 19.5t77.5 41.5t80.5 55t75.5 61.5t62 60q35 37 58.5 66.5t37.5 49.5q17 24 27 42q4 11 9 15t11 3t14 -12q17 -23 24.5 -57.5 t-1.5 -63.5q-3 -10 -7.5 -23t-11.5 -24.5t-15.5 -19.5t-18.5 -9t-22 -14t-24 -33.5t-22.5 -44.5t-16.5 -46t-6 -38.5t9 -21.5q13 -9 37.5 -8.5t55.5 8t66.5 21t71.5 30.5q71 34 121 67.5t72 53.5q8 7 11 14t5 13t5 12.5t12 13.5q48 41 51 12q2 -15 -20.5 -36.5t-59.5 -53.5 q-23 -20 -68 -50.5t-125 -68.5q-38 -18 -79 -32.5t-78.5 -22.5t-67.5 -8.5t-47 8.5zM748 645q-2 -2 -13.5 -17t-31.5 -31t-48.5 -28t-64.5 -8q-39 4 -74 14.5t-65 21l-55.5 20t-47.5 12.5q-18 2 -33 -2t-28.5 -10.5t-26 -15t-24.5 -15.5q-17 -10 -24 -0.5t5 26.5 q5 8 18 22.5t32.5 28.5t45 23.5t54.5 7.5q36 -3 62 -10.5t50 -16.5l49 -18t60 -16q35 -8 72 -2t63 35q5 6 12 6.5t12 -2.5t6 -9.5t-5 -15.5z"/>
    <glyph glyph-name="adieresis" unicode="ä" horiz-adv-x="889" d="M424 0q-23 13 -33 31.5t-7 45.5t18 65t42 91q4 7 0 10t-10 -3q-25 -26 -62 -59t-79.5 -66t-88.5 -61.5t-89.5 -46t-81.5 -20.5t-66 17q-27 19 -35 49.5t-0.5 66t28 75t49 77t63.5 71.5t71 60q83 59 169 89t160.5 31.5t132 -25t83.5 -80.5q6 -11 2.5 -27t-18.5 -22 q-16 -7 -25 6t-18 35q-15 37 -51 58t-89.5 18t-122.5 -32.5t-151 -93.5q-58 -44 -105 -95t-76 -97.5t-37.5 -83.5t11.5 -53q17 -14 46.5 -10.5t66 19.5t77.5 41.5t80.5 55t75.5 61.5t62 60q35 37 58.5 66.5t37.5 49.5q17 24 27 42q4 11 9 15t11 3t14 -12q17 -23 24.5 -57.5 t-1.5 -63.5q-3 -10 -7.5 -23t-11.5 -24.5t-15.5 -19.5t-18.5 -9q-10 0 -22 -13.5t-24 -34t-22.5 -44.5t-16.5 -46t-6 -38.5t9 -21.5q13 -9 37.5 -8.5t55.5 8t66.5 21t71.5 30.5q71 34 121 67.5t72 53.5q8 7 11 14t5 13t5 12.5t12 13.5q48 41 51 12q2 -15 -20.5 -36.5 t-59.5 -53.5q-23 -20 -68 -50.5t-125 -68.5q-38 -18 -79 -32.5t-78.5 -22.5t-67.5 -8.5t-47 8.5zM391 717q17 -3 30 -12t20.5 -21t9.5 -25.5t-2 -25.5q-16 -45 -43.5 -60t-59.5 5q-20 11 -25 19.5t-0.5 18.5t15.5 23.5t22 36.5q3 7 2.5 15t1 14.5t7.5 10t22 1.5zM598 717 q17 -3 30 -12t20.5 -21t9.5 -25.5t-3 -25.5q-15 -45 -42.5 -60t-59.5 5q-20 11 -25 19.5t-0.5 18.5t15.5 23.5t22 36.5q3 7 2.5 15t1 14.5t7.5 10t22 1.5z"/>
    <glyph glyph-name="abreve" unicode="ă" horiz-adv-x="889" d="M424 0q-23 13 -33 31.5t-7 45.5t18 65t42 91q4 7 0 10t-10 -3q-26 -26 -62.5 -59t-79 -66t-88.5 -61.5t-89.5 -46t-81.5 -20.5t-66 17q-28 19 -35.5 49.5t0 66t28 75t49 77t63.5 71.5t71 60q83 59 169 89t160.5 31.5t132 -25t83.5 -80.5q6 -11 2.5 -27t-18.5 -22 q-16 -7 -25 6t-18 35q-15 37 -51 58t-89.5 18t-122.5 -32.5t-151 -93.5q-58 -44 -105 -95t-76 -97.5t-37.5 -83.5t11.5 -53q17 -14 46.5 -10.5t66 19.5t77.5 41.5t80.5 55t75.5 61.5t62 60q35 37 58.5 66.5t37.5 49.5q17 24 27 42q4 11 9 15t11 3t14 -12q17 -23 24.5 -57.5 t-1.5 -63.5q-3 -10 -7.5 -23t-11.5 -24.5t-15.5 -19.5t-18.5 -9t-22 -14t-24 -33.5t-22.5 -44.5t-16.5 -46t-6 -38.5t9 -21.5q13 -9 37.5 -8.5t55.5 8t66.5 21t71.5 30.5q71 34 121 67.5t72 53.5q8 7 11 14t5 13t5 12.5t12 13.5q48 41 51 12q2 -15 -20.5 -36.5t-59.5 -53.5 q-23 -20 -68 -50.5t-125 -68.5q-38 -18 -79 -32.5t-78.5 -22.5t-67.5 -8.5t-47 8.5zM201 745q-2 3 -5.5 10.5t-2 15t10 12t29.5 -0.5q27 -5 44 -7t28.5 -7t19 -17.5t15.5 -39.5q4 -17 10.5 -35.5t20.5 -34t37.5 -25.5t62.5 -10q48 0 77.5 9t47.5 24t28.5 35t20.5 43 q9 19 15.5 29.5t16 16.5t23 8.5l35.5 6.5q57 10 64 -3t-21 -42q-27 -29 -43 -53l-29 -44t-28 -35t-40 -25.5t-65.5 -15.5t-103.5 -5q-60 0 -100.5 10.5t-66.5 27t-41 37.5t-24.5 42t-17 40.5t-18.5 32.5z"/>
    <glyph glyph-name="uni1EB1" unicode="ằ" horiz-adv-x="889" d="M424 0q-23 13 -33 31.5t-7 45.5t18 65t42 91q4 7 0 10t-10 -3q-26 -26 -62.5 -59t-79 -66t-88.5 -61.5t-89.5 -46t-81.5 -20.5t-66 17q-28 19 -35.5 49.5t0 66t28 75t49 77t63.5 71.5t71 60q83 59 169 89t160.5 31.5t132 -25t83.5 -80.5q6 -11 2.5 -27t-18.5 -22 q-16 -7 -25 6t-18 35q-15 37 -51 58t-89.5 18t-122.5 -32.5t-151 -93.5q-58 -44 -105 -95t-76 -97.5t-37.5 -83.5t11.5 -53q17 -14 46.5 -10.5t66 19.5t77.5 41.5t80.5 55t75.5 61.5t62 60q35 37 58.5 66.5t37.5 49.5q17 24 27 42q4 11 9 15t11 3t14 -12q17 -23 24.5 -57.5 t-1.5 -63.5q-3 -10 -7.5 -23t-11.5 -24.5t-15.5 -19.5t-18.5 -9t-22 -14t-24 -33.5t-22.5 -44.5t-16.5 -46t-6 -38.5t9 -21.5q13 -9 37.5 -8.5t55.5 8t66.5 21t71.5 30.5q71 34 121 67.5t72 53.5q8 7 11 14t5 13t5 12.5t12 13.5q48 41 51 12q2 -15 -20.5 -36.5t-59.5 -53.5 q-23 -20 -68 -50.5t-125 -68.5q-38 -18 -79 -32.5t-78.5 -22.5t-67.5 -8.5t-47 8.5zM201 745q-2 3 -5.5 10.5t-2 15t10 12t29.5 -0.5q27 -5 44 -7t28.5 -7t19 -17.5t15.5 -39.5q4 -17 10.5 -35.5t20.5 -34t37.5 -25.5t62.5 -10q48 0 77.5 9t47.5 24t28.5 35t20.5 43 q9 19 15.5 29.5t16 16.5t23 8.5l35.5 6.5q57 10 64 -3t-21 -42q-27 -29 -43 -53l-29 -44t-28 -35t-40 -25.5t-65.5 -15.5t-103.5 -5q-60 0 -100.5 10.5t-66.5 27t-41 37.5t-24.5 42t-17 40.5t-18.5 32.5zM316 983q8 17 21.5 34.5t26.5 26.5q9 8 21.5 1.5t17.5 -21.5 q14 -48 44 -91.5t64 -66.5q4 -3 4.5 -9.5t-4 -13t-13 -10t-20.5 -0.5q-10 3 -29.5 13.5t-42 25.5t-44 33t-33.5 35q-6 9 -12 21.5t-1 21.5z"/>
    <glyph glyph-name="uni1EAF" unicode="ắ" horiz-adv-x="889" d="M424 0q-23 13 -33 31.5t-7 45.5t18 65t42 91q4 7 0 10t-10 -3q-26 -26 -62.5 -59t-79 -66t-88.5 -61.5t-89.5 -46t-81.5 -20.5t-66 17q-28 19 -35.5 49.5t0 66t28 75t49 77t63.5 71.5t71 60q83 59 169 89t160.5 31.5t132 -25t83.5 -80.5q6 -11 2.5 -27t-18.5 -22 q-16 -7 -25 6t-18 35q-15 37 -51 58t-89.5 18t-122.5 -32.5t-151 -93.5q-58 -44 -105 -95t-76 -97.5t-37.5 -83.5t11.5 -53q17 -14 46.5 -10.5t66 19.5t77.5 41.5t80.5 55t75.5 61.5t62 60q35 37 58.5 66.5t37.5 49.5q17 24 27 42q4 11 9 15t11 3t14 -12q17 -23 24.5 -57.5 t-1.5 -63.5q-3 -10 -7.5 -23t-11.5 -24.5t-15.5 -19.5t-18.5 -9t-22 -14t-24 -33.5t-22.5 -44.5t-16.5 -46t-6 -38.5t9 -21.5q13 -9 37.5 -8.5t55.5 8t66.5 21t71.5 30.5q71 34 121 67.5t72 53.5q8 7 11 14t5 13t5 12.5t12 13.5q48 41 51 12q2 -15 -20.5 -36.5t-59.5 -53.5 q-23 -20 -68 -50.5t-125 -68.5q-38 -18 -79 -32.5t-78.5 -22.5t-67.5 -8.5t-47 8.5zM201 745q-2 3 -5.5 10.5t-2 15t10 12t29.5 -0.5q27 -5 44 -7t28.5 -7t19 -17.5t15.5 -39.5q4 -17 10.5 -35.5t20.5 -34t37.5 -25.5t62.5 -10q48 0 77.5 9t47.5 24t28.5 35t20.5 43 q9 19 15.5 29.5t16 16.5t23 8.5l35.5 6.5q57 10 64 -3t-21 -42q-27 -29 -43 -53l-29 -44t-28 -35t-40 -25.5t-65.5 -15.5t-103.5 -5q-60 0 -100.5 10.5t-66.5 27t-41 37.5t-24.5 42t-17 40.5t-18.5 32.5zM656 979q5 -9 -0.5 -21.5t-11.5 -21.5q-12 -17 -33.5 -35t-44 -33 t-42.5 -26t-30 -13q-12 -3 -20.5 0.5t-12.5 10t-4 13t5 9.5q34 23 64 66.5t44 91.5q5 15 17.5 21.5t21.5 -1.5q12 -9 25.5 -26.5t21.5 -34.5z"/>
    <glyph glyph-name="uni1EB5" unicode="ẵ" horiz-adv-x="889" d="M827 1005q-2 -2 -13.5 -17t-31.5 -31t-48.5 -28t-64.5 -8q-39 4 -74 14.5t-65 21l-55.5 20t-47.5 12.5q-18 2 -33 -2t-28.5 -10.5t-26 -15t-24.5 -15.5q-17 -10 -24 -0.5t5 26.5q5 8 18 22.5t32.5 28.5t45 23.5t54.5 7.5q36 -3 62 -10.5t50 -16.5l49 -18t60 -16 q35 -8 72 -2t63 35q5 6 12 6.5t12 -2.5t6 -9.5t-5 -15.5zM424 0q-23 13 -33 31.5t-7 45.5t18 65t42 91q4 7 0 10t-10 -3q-26 -26 -62.5 -59t-79 -66t-88.5 -61.5t-89.5 -46t-81.5 -20.5t-66 17q-28 19 -35.5 49.5t0 66t28 75t49 77t63.5 71.5t71 60q83 59 169 89t160.5 31.5 t132 -25t83.5 -80.5q6 -11 2.5 -27t-18.5 -22q-16 -7 -25 6t-18 35q-15 37 -51 58t-89.5 18t-122.5 -32.5t-151 -93.5q-58 -44 -105 -95t-76 -97.5t-37.5 -83.5t11.5 -53q17 -14 46.5 -10.5t66 19.5t77.5 41.5t80.5 55t75.5 61.5t62 60q35 37 58.5 66.5t37.5 49.5 q17 24 27 42q4 11 9 15t11 3t14 -12q17 -23 24.5 -57.5t-1.5 -63.5q-3 -10 -7.5 -23t-11.5 -24.5t-15.5 -19.5t-18.5 -9t-22 -14t-24 -33.5t-22.5 -44.5t-16.5 -46t-6 -38.5t9 -21.5q13 -9 37.5 -8.5t55.5 8t66.5 21t71.5 30.5q71 34 121 67.5t72 53.5q8 7 11 14t5 13 t5 12.5t12 13.5q48 41 51 12q2 -15 -20.5 -36.5t-59.5 -53.5q-23 -20 -68 -50.5t-125 -68.5q-38 -18 -79 -32.5t-78.5 -22.5t-67.5 -8.5t-47 8.5zM201 745q-2 3 -5.5 10.5t-2 15t10 12t29.5 -0.5q27 -5 44 -7t28.5 -7t19 -17.5t15.5 -39.5q4 -17 10.5 -35.5t20.5 -34 t37.5 -25.5t62.5 -10q48 0 77.5 9t47.5 24t28.5 35t20.5 43q9 19 15.5 29.5t16 16.5t23 8.5l35.5 6.5q57 10 64 -3t-21 -42q-27 -29 -43 -53l-29 -44t-28 -35t-40 -25.5t-65.5 -15.5t-103.5 -5q-60 0 -100.5 10.5t-66.5 27t-41 37.5t-24.5 42t-17 40.5t-18.5 32.5z"/>
    <glyph glyph-name="uni1EB3" unicode="ẳ" horiz-adv-x="889" d="M424 0q-23 13 -33 31.5t-7 45.5t18 65t42 91q4 7 0 10t-10 -3q-26 -26 -62.5 -59t-79 -66t-88.5 -61.5t-89.5 -46t-81.5 -20.5t-66 17q-28 19 -35.5 49.5t0 66t28 75t49 77t63.5 71.5t71 60q83 59 169 89t160.5 31.5t132 -25t83.5 -80.5q6 -11 2.5 -27t-18.5 -22 q-16 -7 -25 6t-18 35q-15 37 -51 58t-89.5 18t-122.5 -32.5t-151 -93.5q-58 -44 -105 -95t-76 -97.5t-37.5 -83.5t11.5 -53q17 -14 46.5 -10.5t66 19.5t77.5 41.5t80.5 55t75.5 61.5t62 60q35 37 58.5 66.5t37.5 49.5q17 24 27 42q4 11 9 15t11 3t14 -12q17 -23 24.5 -57.5 t-1.5 -63.5q-3 -10 -7.5 -23t-11.5 -24.5t-15.5 -19.5t-18.5 -9t-22 -14t-24 -33.5t-22.5 -44.5t-16.5 -46t-6 -38.5t9 -21.5q13 -9 37.5 -8.5t55.5 8t66.5 21t71.5 30.5q71 34 121 67.5t72 53.5q8 7 11 14t5 13t5 12.5t12 13.5q48 41 51 12q2 -15 -20.5 -36.5t-59.5 -53.5 q-23 -20 -68 -50.5t-125 -68.5q-38 -18 -79 -32.5t-78.5 -22.5t-67.5 -8.5t-47 8.5zM201 745q11 -13 18.5 -32.5t17 -40.5t24.5 -42t41 -37.5t66.5 -27t100.5 -10.5q63 0 103.5 5t65.5 15.5t40 25.5t28 35l29 44t43 53q28 29 21 42t-64 3l-35.5 -6.5t-23 -8.5t-16 -16.5 t-15.5 -29.5q-10 -23 -20.5 -43t-28.5 -35t-47.5 -24t-77.5 -9q-39 0 -62.5 10t-37.5 25.5t-20.5 34t-10.5 35.5q-8 27 -15.5 39.5t-19 17.5t-28.5 7t-44 7q-21 5 -29.5 0.5t-10 -12t2 -15t5.5 -10.5zM489 768q4 -17 -4 -18.5t-13 11.5q-10 28 -0.5 61.5t79 59.5t74.5 76 t-54 69q-46 15 -53 -11q-3 -5 18.5 -15.5t6.5 -30.5q-13 -16 -34 -10q-45 15 -32 54q12 37 47.5 54.5t76.5 4.5q111 -37 75 -148q-15 -46 -102 -67.5t-85 -89.5z"/>
    <glyph glyph-name="uni1EB7" unicode="ặ" horiz-adv-x="889" d="M424 0q-23 13 -33 31.5t-7 45.5t18 65t42 91q4 7 0 10t-10 -3q-26 -26 -62.5 -59t-79 -66t-88.5 -61.5t-89.5 -46t-81.5 -20.5t-66 17q-28 19 -35.5 49.5t0 66t28 75t49 77t63.5 71.5t71 60q83 59 169 89t160.5 31.5t132 -25t83.5 -80.5q6 -11 2.5 -27t-18.5 -22 q-16 -7 -25 6t-18 35q-15 37 -51 58t-89.5 18t-122.5 -32.5t-151 -93.5q-58 -44 -105 -95t-76 -97.5t-37.5 -83.5t11.5 -53q17 -14 46.5 -10.5t66 19.5t77.5 41.5t80.5 55t75.5 61.5t62 60q35 37 58.5 66.5t37.5 49.5q17 24 27 42q4 11 9 15t11 3t14 -12q17 -23 24.5 -57.5 t-1.5 -63.5q-3 -10 -7.5 -23t-11.5 -24.5t-15.5 -19.5t-18.5 -9t-22 -14t-24 -33.5t-22.5 -44.5t-16.5 -46t-6 -38.5t9 -21.5q13 -9 37.5 -8.5t55.5 8t66.5 21t71.5 30.5q71 34 121 67.5t72 53.5q8 7 11 14t5 13t5 12.5t12 13.5q48 41 51 12q2 -15 -20.5 -36.5t-59.5 -53.5 q-23 -20 -68 -50.5t-125 -68.5q-38 -18 -79 -32.5t-78.5 -22.5t-67.5 -8.5t-47 8.5zM201 745q-2 3 -5.5 10.5t-2 15t10 12t29.5 -0.5q27 -5 44 -7t28.5 -7t19 -17.5t15.5 -39.5q4 -17 10.5 -35.5t20.5 -34t37.5 -25.5t62.5 -10q48 0 77.5 9t47.5 24t28.5 35t20.5 43 q9 19 15.5 29.5t16 16.5t23 8.5l35.5 6.5q57 10 64 -3t-21 -42q-27 -29 -43 -53l-29 -44t-28 -35t-40 -25.5t-65.5 -15.5t-103.5 -5q-60 0 -100.5 10.5t-66.5 27t-41 37.5t-24.5 42t-17 40.5t-18.5 32.5zM41 -142q17 -3 30 -12t20.5 -21t9.5 -25.5t-2 -25.5 q-16 -45 -43.5 -60.5t-59.5 4.5q-20 12 -25 20.5t-1 19t15 24t23 35.5q3 7 2.5 15t1 14.5t7.5 10t22 1.5z"/>
    <glyph glyph-name="aring" unicode="å" horiz-adv-x="889" d="M424 0q-23 13 -33 31.5t-7 45.5t18 65t42 91q4 7 0 10t-10 -3q-26 -26 -62.5 -59t-79 -66t-88.5 -61.5t-89.5 -46t-81.5 -20.5t-66 17q-28 19 -35.5 49.5t0 66t28 75t49 77t63.5 71.5t71 60q83 59 169 89t160.5 31.5t132 -25t83.5 -80.5q6 -11 2.5 -27t-18.5 -22 q-16 -7 -25 6t-18 35q-15 37 -51 58t-89.5 18t-122.5 -32.5t-151 -93.5q-58 -44 -105 -95t-76 -97.5t-37.5 -83.5t11.5 -53q17 -14 46.5 -10.5t66 19.5t77.5 41.5t80.5 55t75.5 61.5t62 60q35 37 58.5 66.5t37.5 49.5q17 24 27 42q4 11 9 15t11 3t14 -12q17 -23 24.5 -57.5 t-1.5 -63.5q-3 -10 -7.5 -23t-11.5 -24.5t-15.5 -19.5t-18.5 -9t-22 -14t-24 -33.5t-22.5 -44.5t-16.5 -46t-6 -38.5t9 -21.5q13 -9 37.5 -8.5t55.5 8t66.5 21t71.5 30.5q71 34 121 67.5t72 53.5q8 7 11 14t5 13t5 12.5t12 13.5q48 41 51 12q2 -15 -20.5 -36.5t-59.5 -53.5 q-23 -20 -68 -50.5t-125 -68.5q-38 -18 -79 -32.5t-78.5 -22.5t-67.5 -8.5t-47 8.5zM387 739q14 23 35 40.5t45.5 27t51 10.5t50.5 -8t39.5 -26.5t22 -39.5t3.5 -47t-16 -49q-14 -24 -35 -42t-45.5 -27.5t-51 -10.5t-50.5 8q-24 10 -39.5 28t-22.5 40t-4 47t17 49zM426 682 q0 -40 21 -68t53 -28q16 0 30 9t24.5 24.5t16 35.5t4.5 41q0 20 -6.5 38t-17.5 30.5t-24.5 20t-28.5 6.5q-31 -4 -51.5 -35.5t-20.5 -73.5z"/>
    </font>
</defs>
</svg>
