<?xml version="1.0" encoding="utf-8"?>
<!-- Generator: Adobe Illustrator 15.1.0, SVG Export Plug-In . SVG Version: 6.00 Build 0)  -->
<!DOCTYPE svg PUBLIC "-//W3C//DTD SVG 1.1//EN" "http://www.w3.org/Graphics/SVG/1.1/DTD/svg11.dtd">
<svg version="1.1" id="Layer_1" xmlns="http://www.w3.org/2000/svg" xmlns:xlink="http://www.w3.org/1999/xlink" x="0px" y="0px"
	 width="360px" height="480px" viewBox="0 0 360 480" enable-background="new 0 0 360 480" xml:space="preserve">
<rect fill="#F9F9F9" width="360" height="480"/>
<g opacity="0.1">
	<path fill="#0B050C" d="M133.806,183.806c0-25.674,20.887-46.561,46.561-46.561s46.562,20.887,46.562,46.561
		c0,25.674-20.888,46.561-46.562,46.561S133.806,209.48,133.806,183.806L133.806,183.806z M258.408,262.692
		c-12.021-12.021-26.328-20.919-41.939-26.306c16.72-11.516,27.704-30.789,27.704-52.581c0-35.183-28.623-63.806-63.806-63.806
		s-63.806,28.624-63.806,63.806c0,21.792,10.985,41.064,27.705,52.581c-15.611,5.387-29.919,14.285-41.94,26.306
		C81.48,283.539,70,311.254,70,340.734h17.245c0-51.348,41.774-93.122,93.122-93.122c51.348,0,93.122,41.774,93.122,93.122h17.245
		C290.734,311.254,279.254,283.539,258.408,262.692L258.408,262.692z"/>
</g>
</svg>
